<svg xmlns="http://www.w3.org/2000/svg" xmlns:xlink="http://www.w3.org/1999/xlink" width="500" height="456" version="1.1" viewBox="0 0 500 456"><title>deploy-graph-grey-center@1x</title><desc>Created with Sketch.</desc><defs><linearGradient id="linearGradient-1" x1="96.653%" x2="5.06%" y1="100%" y2="0%"><stop offset="0%" stop-color="#62AAA7"/><stop offset="100%" stop-color="#BADB8D"/></linearGradient><polygon id="path-2" points="213.54 52.88 0 52.88 0 .948 213.54 .948"/><filter id="filter-4" width="190%" height="192.5%" x="-45%" y="-47.5%" filterUnits="objectBoundingBox"><feOffset dx="0" dy="0" in="SourceAlpha" result="shadowOffsetOuter1"/><feGaussianBlur in="shadowOffsetOuter1" result="shadowBlurOuter1" stdDeviation="6"/><feColorMatrix in="shadowBlurOuter1" result="shadowMatrixOuter1" type="matrix" values="0 0 0 0 0.447058824 0 0 0 0 0.537254902 0 0 0 0 0.607843137 0 0 0 1 0"/><feMerge><feMergeNode in="shadowMatrixOuter1"/><feMergeNode in="SourceGraphic"/></feMerge></filter><filter id="filter-5" width="190%" height="192.5%" x="-45%" y="-47.5%" filterUnits="objectBoundingBox"><feOffset dx="0" dy="0" in="SourceAlpha" result="shadowOffsetOuter1"/><feGaussianBlur in="shadowOffsetOuter1" result="shadowBlurOuter1" stdDeviation="6"/><feColorMatrix in="shadowBlurOuter1" result="shadowMatrixOuter1" type="matrix" values="0 0 0 0 0.447058824 0 0 0 0 0.537254902 0 0 0 0 0.607843137 0 0 0 1 0"/><feMerge><feMergeNode in="shadowMatrixOuter1"/><feMergeNode in="SourceGraphic"/></feMerge></filter><path id="path-6" d="M39.1395072,19.569542 C39.1395072,30.378393 30.3775467,39.1392956 19.5697536,39.1392956 C8.76196049,39.1392956 0,30.378393 0,19.569542 C0,8.76174893 8.76196049,-0.000211564904 19.5697536,-0.000211564904 C30.3775467,-0.000211564904 39.1395072,8.76174893 39.1395072,19.569542 Z"/><linearGradient id="linearGradient-8" x1=".024%" x2="97.056%" y1="49.981%" y2="49.981%"><stop offset="0%" stop-color="#506679"/><stop offset="100%" stop-color="#52677A"/></linearGradient><filter id="filter-9" width="190%" height="190%" x="-45%" y="-45%" filterUnits="objectBoundingBox"><feOffset dx="0" dy="0" in="SourceAlpha" result="shadowOffsetOuter1"/><feGaussianBlur in="shadowOffsetOuter1" result="shadowBlurOuter1" stdDeviation="6"/><feColorMatrix in="shadowBlurOuter1" result="shadowMatrixOuter1" type="matrix" values="0 0 0 0 0.447058824 0 0 0 0 0.537254902 0 0 0 0 0.607843137 0 0 0 1 0"/><feMerge><feMergeNode in="shadowMatrixOuter1"/><feMergeNode in="SourceGraphic"/></feMerge></filter><polygon id="path-10" points="0 19.57 0 0 39.14 0 39.14 19.57 39.14 39.139 0 39.139"/><filter id="filter-12" width="190%" height="190%" x="-45%" y="-45%" filterUnits="objectBoundingBox"><feOffset dx="0" dy="0" in="SourceAlpha" result="shadowOffsetOuter1"/><feGaussianBlur in="shadowOffsetOuter1" result="shadowBlurOuter1" stdDeviation="6"/><feColorMatrix in="shadowBlurOuter1" result="shadowMatrixOuter1" type="matrix" values="0 0 0 0 0.447058824 0 0 0 0 0.537254902 0 0 0 0 0.607843137 0 0 0 1 0"/><feMerge><feMergeNode in="shadowMatrixOuter1"/><feMergeNode in="SourceGraphic"/></feMerge></filter><polygon id="path-13" points="0 19.57 0 0 39.14 0 39.14 19.57 39.14 39.139 0 39.139"/><filter id="filter-15" width="190%" height="190%" x="-45%" y="-45%" filterUnits="objectBoundingBox"><feOffset dx="0" dy="0" in="SourceAlpha" result="shadowOffsetOuter1"/><feGaussianBlur in="shadowOffsetOuter1" result="shadowBlurOuter1" stdDeviation="6"/><feColorMatrix in="shadowBlurOuter1" result="shadowMatrixOuter1" type="matrix" values="0 0 0 0 0.447058824 0 0 0 0 0.537254902 0 0 0 0 0.607843137 0 0 0 1 0"/><feMerge><feMergeNode in="shadowMatrixOuter1"/><feMergeNode in="SourceGraphic"/></feMerge></filter><linearGradient id="linearGradient-16" x1="50.008%" x2="50.008%" y1="100.049%" y2="-.537%"><stop offset="0%" stop-color="#2F789F"/><stop offset="100%" stop-color="#70C2B2"/></linearGradient><linearGradient id="linearGradient-17" x1="23.083%" x2="77.434%" y1="129.049%" y2="-42.488%"><stop offset="0%" stop-color="#2F789F"/><stop offset="100%" stop-color="#70C2B2"/></linearGradient><polygon id="path-18" points=".003 67.305 76.866 67.305 76.866 .396 .003 .396"/></defs><g id="Symbols" fill="none" fill-rule="evenodd" stroke="none" stroke-width="1"><g id="home-v4---bg" transform="translate(-711.000000, -1511.000000)"><g id="deploy-graph-copy" transform="translate(711.000000, 1511.000000)"><g id="deploy-graph" transform="translate(96.000000, 96.000000)"><path id="Rectangle-15" stroke="url(#linearGradient-1)" d="M0.5,0.5 L0.5,240 C0.5,252.978692 11.0213084,263.5 24,263.5 L306.5,263.5 L306.5,24 C306.5,11.0213084 295.978692,0.5 283,0.5 L0.5,0.5 Z"/><g id="deply-bg" transform="translate(46.000000, 48.000000)"><g id="base" transform="translate(0.500000, 80.015312)"><g id="Group-3" transform="translate(0.000000, 33.683340)"><mask id="mask-3" fill="#fff"><use xlink:href="#path-2"/></mask><path id="Fill-1" fill="#546A7E" d="M213.539674,0.94754638 L213.539674,18.2602907 C213.513233,20.3876155 211.015748,22.4907035 206.078062,24.0914301 L124.783629,50.4621052 C114.82343,53.6866933 98.7181162,53.6866933 88.7579176,50.4621052 L7.46348385,24.0914301 C2.5235955,22.4907035 0.0272112494,20.3876155 -0.000330501004,18.2602907 L-0.000330501004,0.94754638 L213.539674,0.94754638 Z" mask="url(#mask-3)"/></g><path id="Fill-4" fill="#5C7386" d="M88.7637564,66.841735 L7.46491602,40.4710598 C-2.48096087,37.24537 -2.48096087,32.0146408 7.46491602,28.788951 L88.7637564,2.41937752 C98.7096333,-0.806312284 114.833676,-0.806312284 124.779553,2.41937752 L206.078393,28.788951 C216.020965,32.0146408 216.020965,37.24537 206.078393,40.4710598 L124.779553,66.841735 C114.833676,70.0685265 98.7096333,70.0685265 88.7637564,66.841735"/><path id="Fill-6" fill="#546A7E" d="M206.024852,34.6265902 C205.56215,34.8248908 205.023434,35.0231914 204.384465,35.2325087 L194.126816,38.5595522 L181.89938,42.5255642 L123.080116,23.4446396 C114.244723,20.5802975 99.3071792,20.5802975 90.470684,23.4446396 L31.6536235,42.5255642 L19.4239847,38.5595522 L9.16853853,35.2325087 C8.52846825,35.0231914 7.97763325,34.8248908 7.51603351,34.6265902 C7.97763325,34.4393063 8.52846825,34.2410057 9.16853853,34.0316884 L90.470684,7.65770827 C99.3071792,4.79336624 114.244723,4.79336624 123.080116,7.65770827 L204.384465,34.0316884 C205.023434,34.2410057 205.56215,34.4393063 206.024852,34.6265902"/><path id="Fill-8" fill="#61788B" d="M181.895745,42.5238016 L176.93823,44.1322398 L169.028239,46.6991309 L155.84235,50.9736106 L153.197241,51.8329132 L144.097446,54.7853888 L137.345311,56.9777122 L129.235918,59.6107035 L123.077583,61.6047262 C122.516833,61.7920101 121.921931,61.9572606 121.303894,62.1225111 C112.965354,64.2928011 100.581481,64.2928011 92.2418388,62.1225111 C91.6260053,61.9572606 91.0311035,61.7920101 90.4692518,61.6047262 L84.1225308,59.5446033 L76.2026251,56.9777122 L68.2915327,54.410821 L58.5858199,51.2600448 L52.4385012,49.2660221 L44.5174938,46.6991309 L36.6075031,44.1322398 L31.649988,42.5238016 L34.6355138,41.554332 L42.5576228,38.9874408 L50.8091313,36.3103827 L58.5858199,33.7875584 L66.6610611,31.1655837 L70.5069911,29.9206966 L82.5251093,26.0207848 L85.3013178,25.1174153 L90.2257827,23.5199938 L90.4351,23.4538936 L90.4692518,23.4428769 C99.3035436,20.5785349 114.242189,20.5785349 123.077583,23.4428769 L123.111734,23.4538936 L131.020623,26.0207848 L138.974681,28.5986926 L146.885773,31.1655837 L154.794662,33.7324749 L155.84235,34.0739926 L161.503833,35.9137815 L162.737703,36.3103827 L170.990313,38.9874408 L178.910219,41.554332 L181.895745,42.5238016 Z"/></g><g id="k8s" filter="url(#filter-4)" transform="translate(68.000000, 46.445312)"><g id="python" fill="#8996A0"><g style="mix-blend-mode:luminosity" id="Fill-1"><path d="M19.5697536,-0.000211564904 C30.3775467,-0.000211564904 39.1395072,8.76174893 39.1395072,19.569542 C39.1395072,30.378393 30.3775467,39.1392956 19.5697536,39.1392956 C8.76196049,39.1392956 0,30.378393 0,19.569542 C0,8.76174893 8.76196049,-0.000211564904 19.5697536,-0.000211564904"/></g></g><g id="Group-34" transform="translate(7.862397, 7.862397)"><g id="Group-8"><path id="Fill-4" fill="#455B6E" d="M11.8380723,0.22453616 C11.6133474,0.22453616 11.3874932,0.336580151 11.2734368,0.336580151 L3.1438151,4.25811986 C2.69097744,4.48220785 2.35332542,4.81833982 2.23926905,5.26651579 L0.206581303,14.0059471 C0.0947834769,14.4530027 0.206581303,14.7902551 0.432435497,15.1263871 L0.545362594,15.2373106 L6.19171745,22.1851585 C6.53162801,22.5201701 6.98220713,22.7453785 7.43504479,22.7453785 L16.4692126,22.7453785 C16.9197917,22.7453785 17.3715001,22.5201701 17.7102814,22.1851585 L23.3566362,15.2373106 C23.6954175,14.9022991 23.8094739,14.3420791 23.6954175,13.8927827 L21.6627298,5.15335136 C21.5509319,4.70629583 21.2121506,4.25811986 20.759313,4.14607587 L12.628562,0.22453616 C12.2897807,0.336580151 12.0639265,0.22453616 11.8380723,0.22453616"/><path id="Fill-6" fill="#8996A0" d="M11.8380723,14.3416309 C12.0639265,14.3416309 12.1779829,14.3416309 12.2897807,14.5657189 L13.5319788,16.8065988 L13.0813996,16.9186428 C12.1779829,17.1427307 11.1605097,17.0306868 10.2582222,16.8065988 L11.499291,14.5657189 C11.6133474,14.3416309 11.7251452,14.3416309 11.8380723,14.3416309 L11.8380723,14.3416309 Z M9.69358673,13.221191 C9.91944093,13.221191 10.1441659,13.445279 10.1441659,13.669367 L10.1441659,13.781411 L9.12895125,16.1343348 C8.22553447,15.5741149 7.43504479,14.6777629 7.0962635,13.557323 L9.69358673,13.221191 Z M13.9836872,13.221191 L13.9836872,13.221191 L16.6950668,13.669367 C16.3551562,14.6777629 15.5657958,15.5741149 14.6612497,16.2463788 L13.757833,13.893455 C13.6460351,13.669367 13.6460351,13.445279 13.9836872,13.221191 L13.9836872,13.221191 Z M11.499291,11.2043992 L12.2897807,11.2043992 L12.7426184,11.7646191 L12.628562,12.5489271 L11.9521287,12.8850591 L11.2734368,12.5489271 L11.1605097,11.7646191 L11.499291,11.2043992 Z M16.1304313,9.29965132 C16.6950668,10.1960033 16.9197917,11.3164432 16.8068646,12.4368831 L14.3224684,11.7646191 C14.0966143,11.6525751 13.9836872,11.4284872 13.9836872,11.2043992 C13.9836872,11.0923552 14.0966143,11.0923552 14.0966143,10.9803112 L16.1304313,9.29965132 Z M7.54684262,9.29965132 L9.46660327,10.9803112 C9.69358673,11.0923552 9.69358673,11.4284872 9.46660327,11.5405312 C9.35480544,11.6525751 9.35480544,11.6525751 9.24074907,11.6525751 L6.75635294,12.3248391 C6.75635294,11.4284872 6.98220713,10.3080472 7.54684262,9.29965132 L7.54684262,9.29965132 Z M12.5167642,7.05877148 C13.6460351,7.17081547 14.6612497,7.73103543 15.3399416,8.51534338 L13.1931975,9.97191527 C12.9673433,10.0839593 12.7426184,10.0839593 12.628562,9.85987128 C12.628562,9.74782728 12.5167642,9.74782728 12.5167642,9.63578329 L12.5167642,7.05877148 Z M11.2734368,7.05877148 L11.1605097,9.63578329 C11.1605097,9.85987128 10.9346555,10.0839593 10.7088013,10.0839593 C10.5958742,10.0839593 10.4840764,10.0839593 10.4840764,9.97191527 L8.3373323,8.51534338 C9.01489488,7.84307942 9.80538456,7.39490346 10.7088013,7.17081547 L11.2734368,7.05877148 Z M11.8380723,3.24927576 C11.499291,3.24927576 11.3874932,3.47336375 11.3874932,3.80949572 L11.3874932,3.92153971 L11.3874932,4.36971568 L11.3874932,5.26606761 C11.3874932,5.37811161 11.2734368,5.4901556 11.2734368,5.4901556 L11.2734368,5.71424358 C10.9346555,5.71424358 10.7088013,5.82628757 10.37002,5.82628757 C9.12895125,6.05037556 7.99968028,6.72263951 7.20806133,7.61899144 L7.0962635,7.50694745 L6.8704093,7.50694745 C6.64342584,7.28285947 6.41757165,7.17081547 6.19171745,6.94672749 C6.07879035,6.8346835 5.96699253,6.72263951 5.85293616,6.61059551 L5.74113833,6.49855152 C5.62708197,6.38650753 5.51415487,6.38650753 5.40235704,6.38650753 C5.28830067,6.38650753 5.06244648,6.38650753 5.06244648,6.49855152 C4.94951938,6.72263951 4.94951938,7.05877148 5.17650285,7.17081547 L5.28830067,7.28285947 L5.74113833,7.50694745 C5.96699253,7.61899144 6.19171745,7.84307942 6.41757165,8.06716741 C6.53162801,8.1792114 6.53162801,8.29125539 6.53162801,8.29125539 L6.64342584,8.40329938 C5.74113833,9.63578329 5.40235704,11.2043992 5.62708197,12.7730151 L5.40235704,12.7730151 C5.40235704,12.8850591 5.28830067,12.8850591 5.17650285,12.997103 C4.83772156,13.109147 4.61186736,13.109147 4.27308607,13.109147 L3.70845059,13.109147 C3.48259639,13.221191 3.36854002,13.445279 3.36854002,13.781411 C3.48259639,14.005499 3.70845059,14.117543 3.82024841,14.117543 L3.93317551,14.117543 L4.3848839,14.005499 C4.61186736,13.893455 4.94951938,13.781411 5.28830067,13.781411 C5.40235704,13.781411 5.51415487,13.781411 5.51415487,13.893455 L5.74113833,13.893455 C6.19171745,15.3500269 7.20806133,16.5825108 8.56431576,17.3668187 L8.45025939,17.5909067 L8.45025939,17.8149947 C8.3373323,18.0390827 8.22553447,18.3752147 7.99968028,18.5993026 C7.88562391,18.7113466 7.77269681,18.8233906 7.77269681,18.9354346 L7.77269681,19.0474786 C7.66089898,19.2715666 7.77269681,19.6076986 7.99968028,19.7197426 C8.22553447,19.8317865 8.56431576,19.7197426 8.67611359,19.4956546 L8.67611359,19.3836106 C8.79016996,19.2715666 8.79016996,19.0474786 8.79016996,18.9354346 C8.90196778,18.5993026 9.01489488,18.3752147 9.12895125,18.0390827 C9.24074907,18.0390827 9.24074907,17.9270387 9.35480544,17.9270387 L9.46660327,17.7029507 C10.9346555,18.2631707 12.5167642,18.2631707 13.9836872,17.7029507 L14.0966143,17.9270387 C14.2106706,17.9270387 14.3224684,18.0390827 14.3224684,18.0390827 C14.4365248,18.2631707 14.5483226,18.5993026 14.6612497,18.8233906 C14.6612497,18.9365551 14.7753061,19.1595226 14.7753061,19.2715666 L14.7753061,19.3836106 C14.8871039,19.6076986 15.2258852,19.7197426 15.4517394,19.6076986 C15.6775936,19.496775 15.7905207,19.1595226 15.6775936,18.9365551 C15.5657958,18.8233906 15.5657958,18.7113466 15.4517394,18.5993026 C15.3399416,18.3763351 15.1129581,18.1511267 15.0011603,17.8161151 L15.0011603,17.5909067 C15.0011603,17.4788627 14.8871039,17.4788627 14.8871039,17.3668187 C16.2422291,16.5825108 17.2597022,15.3500269 17.7102814,13.893455 L17.9361356,13.893455 C18.0501919,13.781411 18.163119,13.781411 18.163119,13.781411 C18.500771,13.893455 18.7277545,13.893455 19.0654065,14.005499 L19.5182442,14.117543 L19.630042,14.117543 C19.8570255,14.117543 20.1946775,13.893455 20.1946775,13.669367 C20.1946775,13.445279 20.0828797,13.221191 19.8570255,13.221191 L19.29239,13.221191 C18.9536087,13.221191 18.7277545,13.109147 18.3889732,13.109147 C18.2749168,13.109147 18.2749168,12.997103 18.163119,12.8850591 L17.9361356,12.8850591 C18.163119,11.3164432 17.8243377,9.85987128 16.9197917,8.51534338 L17.033848,8.40329938 C17.033848,8.29125539 17.033848,8.1792114 17.1456459,8.1792114 C17.3715001,7.95512342 17.5984835,7.84307942 17.8243377,7.61899144 L18.2749168,7.39490346 L18.3889732,7.28285947 C18.6136981,7.05877148 18.6136981,6.8346835 18.500771,6.61059551 C18.2749168,6.38650753 18.0490626,6.38650753 17.8243377,6.49855152 L17.7102814,6.61059551 C17.5984835,6.72263951 17.4844272,6.8346835 17.3715001,6.94672749 C17.1456459,7.17081547 16.9197917,7.39490346 16.6950668,7.50694745 L16.3551562,7.50694745 L16.1304313,7.61899144 C15.1129581,6.49855152 13.6460351,5.82628757 12.0639265,5.71424358 L12.0639265,5.4901556 C11.9521287,5.37811161 11.9521287,5.37811161 11.9521287,5.26606761 L11.9521287,4.36971568 L11.9521287,3.92153971 L11.9521287,3.80949572 C11.9521287,3.47336375 11.7251452,3.24927576 11.499291,3.24927576 L11.8380723,3.24927576 Z"/></g></g></g><g id="mesosphere" filter="url(#filter-5)" transform="translate(96.000000, 0.000000)"><g id="go-lang"><mask id="mask-7" fill="#fff"><use xlink:href="#path-6"/></mask><use id="Mask" fill="#8996A0" xlink:href="#path-6"/></g><g id="Shape" fill="url(#linearGradient-8)" fill-rule="nonzero" transform="translate(9.434877, 13.366076)"><path d="M10.4527161,15.4600687 C10.1244239,15.4600687 9.8159614,15.2784076 9.60199616,14.9655697 L6.19903488,9.86432548 L1.40799247,12.8564794 C1.2189164,12.9775592 1.02486249,13.0330093 0.835786418,13.0330093 C0.43282671,13.0330093 0,12.7303511 0,12.0592393 L0,1.32194707 C0,0.837627638 0.268639806,0.383433341 0.691510848,0.156418954 C0.870712857,0.0151453273 1.12450077,0 1.3084358,0 L19.5921001,0 C19.8358508,0 20.0249268,0.0454359819 20.164143,0.136225184 C20.6070886,0.358356652 20.8905803,0.822482311 20.8905803,1.32194707 L20.8905803,9.56166722 C20.8905803,9.83908327 20.8110165,10.0863742 20.6567853,10.2680353 C20.4925984,10.4647591 20.253744,10.5758248 19.990082,10.5758248 C19.8258951,10.5758248 19.6517525,10.5354373 19.4825878,10.4496138 L15.5970215,8.50703931 L11.2935619,14.9605212 C11.0895524,15.2783248 10.7810899,15.4600687 10.4527161,15.4600687 Z M6.9453019,9.4000343 L10.323374,14.4659394 C10.3731523,14.541666 10.4229307,14.5718739 10.4527161,14.5718739 C10.4825831,14.5718739 10.5323614,14.5366176 10.5821398,14.4659394 L14.8208875,8.11342633 L11.5920687,6.49875236 L6.9453019,9.4000343 Z M0.840764252,12.1551597 L0.840764252,12.5991743 L0.840764252,12.1551597 Z M0.875609087,1.87702745 L0.875609087,12.0643705 C0.875609087,12.0997096 0.880586921,12.124869 0.880586921,12.1450628 C0.900498255,12.1400971 0.920409589,12.124869 0.950276591,12.1098065 L5.711452,9.13288065 L0.875609087,1.87702745 Z M16.0996195,7.77046329 L19.8757551,9.65758762 C19.980208,9.70807205 20.010075,9.69284396 20.010075,9.69284396 C20.010075,9.68787828 20.0299863,9.64749074 20.0299863,9.56166722 L20.0299863,1.87702745 L16.0996195,7.77038052 L16.0996195,7.77046329 Z M1.72143278,1.56923798 L6.45771902,8.66850671 L10.6666813,6.03967514 L1.72143278,1.56923798 Z M12.4627,5.95393438 L15.3084703,7.3768503 L18.9701974,1.88712434 L12.4627,5.95393438 L12.4627,5.95393438 Z M2.30857233,0.877932416 L11.542372,5.48972596 L18.9304563,0.877932416 L2.30849072,0.877932416 L2.30857233,0.877932416 Z"/></g></g><g id="core-os" filter="url(#filter-9)" transform="translate(41.000000, 86.584297)"><g id="ruby"><g id="Group-3"><mask id="mask-11" fill="#fff"><use xlink:href="#path-10"/></mask><path id="Fill-1" fill="#8996A0" d="M19.5697536,-0.000211564904 C30.3775467,-0.000211564904 39.1395072,8.76174893 39.1395072,19.569542 C39.1395072,30.378393 30.3775467,39.1392956 19.5697536,39.1392956 C8.76196049,39.1392956 0,30.378393 0,19.569542 C0,8.76174893 8.76196049,-0.000211564904 19.5697536,-0.000211564904" mask="url(#mask-11)"/></g></g><g id="Group-32" fill-rule="nonzero" transform="translate(9.434877, 9.434877)"><g id="coreos-1"><path id="Shape" fill="#536A7D" d="M10.1395141,0 C4.54807997,0 0,4.54823839 0,10.1388804 C0,15.7298393 4.54800076,20.2777609 10.1395141,20.2777609 C15.729364,20.2777609 20.2777609,15.7298393 20.2777609,10.1388804 C20.2777609,4.54823839 15.729364,0 10.1395141,0 Z"/><path id="Shape" fill="#546B7E" d="M10.082857,0.711500381 C8.46661904,0.711500381 7.09594076,3.32918402 6.60085687,6.96747846 C6.58499896,7.08453718 6.56969608,7.20296079 6.55613757,7.32218727 C6.48693998,7.91372178 6.44144332,8.50785269 6.41975956,9.10311779 C6.40881,9.38666322 6.40339082,9.67039994 6.4035052,9.95416203 C6.4035052,10.2410282 6.40889689,10.5250843 6.41983885,10.8049654 C6.44275353,11.4177976 6.48858288,12.0136088 6.55621686,12.5862171 C7.31398699,12.6855323 8.12432609,12.7528933 8.9694733,12.7849279 C9.3348395,12.7987373 9.70559739,12.8070069 10.0829363,12.8070069 C10.4590859,12.8070069 10.8310331,12.798657 11.1952893,12.7849279 C12.0414672,12.7528933 12.851172,12.6855323 13.6096558,12.5862171 C13.6930684,12.5753783 13.7752123,12.5635761 13.8583078,12.5513724 C17.0147451,12.102567 19.2105103,11.109013 19.2105103,9.95416203 C19.210431,4.84934173 15.1234517,0.711500381 10.082857,0.711500381 L10.082857,0.711500381 Z"/><path id="Shape" fill="#8896A0" d="M14.1438459,7.36038704 C14.0513172,7.22555645 13.9518015,7.09565575 13.8457063,6.97121694 C12.9976182,5.97151465 11.7341581,5.33625286 10.3206245,5.33625286 C9.86237429,5.33625286 9.4542289,6.03767437 9.19302548,7.12682075 C9.08920255,7.56119464 9.0086655,8.05658964 8.95671388,8.59445854 C8.91432398,9.04769087 8.89331662,9.50266885 8.89376169,9.95787871 C8.89376169,10.4321572 8.91584313,10.8905381 8.95671388,11.3211383 C9.38798457,11.3620867 9.84567269,11.3840061 10.3206245,11.3840061 C10.7949339,11.3840061 11.252622,11.3620064 11.6838927,11.3211383 C12.6319495,11.2312125 13.4504083,11.0489521 14.0301466,10.8087216 C14.6026582,10.5718634 14.941508,10.2770351 14.941508,9.95787871 C14.9414277,8.99502996 14.6473832,8.10074965 14.1438459,7.36038704 L14.1438459,7.36038704 Z"/></g></g></g><g id="mesos" filter="url(#filter-12)" transform="translate(116.000000, 57.673919)"><g id="java"><g style="mix-blend-mode:luminosity" id="Group-3-Copy"><g><mask id="mask-14" fill="#fff"><use xlink:href="#path-13"/></mask><path id="Fill-1" fill="#8996A0" d="M19.5697536,-0.000211564904 C30.3775467,-0.000211564904 39.1395072,8.76174893 39.1395072,19.569542 C39.1395072,30.378393 30.3775467,39.1392956 19.5697536,39.1392956 C8.76196049,39.1392956 0,30.378393 0,19.569542 C0,8.76174893 8.76196049,-0.000211564904 19.5697536,-0.000211564904" mask="url(#mask-14)"/></g></g></g><g id="Group-33" transform="translate(8.648637, 9.434877)"><g id="Group-9"><polygon id="Fill-4" fill="#4C6475" points="16.375 14.543 20.772 12.031 20.772 17.056"/><path id="Fill-6" fill="#4C6475" d="M16.4795675,8.57529009 L18.1547672,7.63403727 L20.5628667,6.16719055 C20.6675667,6.06353757 20.7722667,6.06353757 20.7722667,6.27189053 L20.7722667,10.8786896 C20.7722667,10.9833896 20.7722667,11.0880896 20.5628667,10.9833896 L16.4795675,8.68103707 L16.4795675,8.57529009 Z"/><path id="Fill-8" fill="#4C6475" d="M15.327763,8.57529009 L13.4431634,9.62228989 L11.1397638,10.9833896 C10.9303639,11.0880896 10.9303639,11.0880896 10.9303639,10.8786896 L10.9303639,6.27189053 C10.9303639,6.16719055 10.9303639,6.06353757 11.1397638,6.16719055 L15.223063,8.47059011 L15.327763,8.57529009 Z"/><polygon id="Fill-10" fill="#2F4659" points="11.035 12.03 15.328 14.648 11.035 17.16"/><polygon id="Fill-12" fill="#2F4659" points="11.035 5.12 11.035 .095 15.328 2.608"/><polygon id="Fill-14" fill="#2F4659" points="15.328 20.512 11.035 23.023 11.035 17.999"/><path id="Fill-16" fill="#4C6475" d="M5.06685088,8.57529009 L3.28695122,9.62228989 L0.878851681,10.9833896 C0.774151701,11.0880896 0.669451721,11.0880896 0.669451721,10.8786896 L0.669451721,6.06353757 L5.06685088,8.57529009 Z"/><path id="Fill-18" fill="#4C6475" d="M5.06685088,14.5433983 L3.9151511,15.1715982 L0.983551661,16.8467979 C0.878851681,16.8467979 0.774151701,17.0561979 0.774151701,16.7420979 L0.774151701,12.0305988 L0.774151701,11.9258988 L5.06685088,14.5433983 Z"/><path id="Fill-20" fill="#2F4659" d="M10.4066546,12.03018 L10.4066546,16.8474261 C10.4066546,16.9510791 10.4066546,16.9510791 10.3019546,16.9510791 L6.11395538,14.5429795 L10.4066546,12.03018 Z"/><polygon id="Fill-22" fill="#2F4659" points="6.114 20.512 10.407 17.999 10.407 23.023"/><path id="Fill-24" fill="#2F4659" d="M6.11385068,2.60718184 L10.4065499,0.0954293176 L10.4065499,0.304829277 L10.4065499,4.91058139 C10.4065499,5.11998135 10.4065499,5.11998135 10.1971499,5.01632837 L6.21855066,2.71292881 L6.11385068,2.60718184 Z"/><path id="Fill-26" fill="#4C6475" d="M6.21865536,8.57529009 L10.5113545,6.06353757 L10.5113545,6.27189053 L10.5113545,10.8786896 C10.5113545,11.0880896 10.5113545,11.0880896 10.3019546,10.9833896 L6.32335534,8.68103707 L6.21865536,8.57529009 Z"/><path id="Fill-28" fill="#4C6475" d="M16.1651534,3.13068173 L20.4578526,5.64348125 C20.2484527,5.74818123 20.1437527,5.85392821 19.9343527,5.95758119 L16.2698534,8.05158079 C16.1651534,8.15732777 16.0604535,8.15732777 16.0604535,7.94792781 L16.0604535,3.23642871 C16.1651534,3.23642871 16.1651534,3.13068173 16.1651534,3.13068173"/><polygon id="Fill-30" fill="#4C6475" points="16.165 14.124 16.165 9.099 20.563 11.612"/><polygon id="Fill-32" fill="#4C6475" points="16.165 15.067 20.563 17.58 16.165 20.092"/><path id="Fill-34" fill="#4C6475" d="M5.90476482,3.13068173 L10.197464,5.64348125 L9.25516417,6.16698115 L6.11416478,8.05158079 C6.0094648,8.05158079 5.90476482,8.15732777 5.90476482,7.94792781 L5.90476482,3.13068173 Z"/><polygon id="Fill-36" fill="#2F4659" points="5.905 15.067 10.197 17.58 5.905 20.092"/><path id="Fill-38" fill="#4C6475" d="M11.3488497,5.64390005 L15.6415488,3.13110053 L15.6415488,7.94729961 C15.6415488,8.15669957 15.6415488,8.15669957 15.4321489,8.05199959 L11.5582496,5.74860003 L11.3488497,5.64390005 Z"/><polygon id="Fill-40" fill="#2F4659" points="10.093 11.507 5.8 14.019 5.8 8.995"/><polygon id="Fill-42" fill="#2F4659" points="15.642 15.067 15.642 20.092 11.349 17.58"/><polygon id="Fill-44" fill="#2F4659" points="15.642 9.099 15.642 14.124 11.349 11.612"/><path id="Fill-46" fill="#4C6475" d="M0.983656361,5.64390005 L5.27635554,3.13110053 L5.27635554,7.94729961 C5.27635554,8.05199959 5.27635554,8.15669957 5.06695558,8.05199959 L0.983656361,5.64390005 Z"/><path id="Fill-48" fill="#4C6475" d="M5.27646024,20.0922879 L0.983761061,17.5805354 C0.983761061,17.4747884 1.08846104,17.4747884 1.08846104,17.4747884 L5.06706028,15.1713888 C5.27646024,15.0666888 5.27646024,15.0666888 5.27646024,15.2760888 L5.27646024,19.8828879 L5.27646024,20.0922879 Z"/><path id="Fill-50" fill="#4C6475" d="M5.27646024,9.09878999 L5.27646024,13.9160361 C5.27646024,14.019689 5.27646024,14.124389 5.06706028,14.019689 L1.08846104,11.7162895 L0.983761061,11.6115895 L5.27646024,9.09878999 Z"/></g></g></g><g id="docker" filter="url(#filter-15)" transform="translate(96.000000, 86.584297)"><path id="Fill-1" fill="#8996A0" d="M19.5697536,0 C30.3775467,0 39.1395072,8.76196049 39.1395072,19.5697536 C39.1395072,30.3786045 30.3775467,39.1395072 19.5697536,39.1395072 C8.76196049,39.1395072 0,30.3786045 0,19.5697536 C0,8.76196049 8.76196049,0 19.5697536,0"/><g id="Group-22" transform="translate(6.289918, 10.221117)"><g id="moby"><rect id="Rectangle-path" width="2.724" height="2.528" x="5.473" y="6.573" fill="#496071" fill-rule="nonzero"/><rect id="Rectangle-path" width="2.724" height="2.528" x="2.252" y="6.573" fill="#496071" fill-rule="nonzero"/><rect id="Rectangle-path" width="2.724" height="2.528" x="8.692" y="6.573" fill="#496071" fill-rule="nonzero"/><rect id="Rectangle-path" width="2.724" height="2.528" x="11.912" y="6.573" fill="#496071" fill-rule="nonzero"/><rect id="Rectangle-path" width="2.724" height="2.528" x="15.133" y="6.573" fill="#496071" fill-rule="nonzero"/><rect id="Rectangle-path" width="2.724" height="2.528" x="5.473" y="3.539" fill="#496071" fill-rule="nonzero"/><rect id="Rectangle-path" width="2.724" height="2.528" x="8.692" y="3.539" fill="#496071" fill-rule="nonzero"/><rect id="Rectangle-path" width="2.724" height="2.528" x="11.912" y="3.539" fill="#496071" fill-rule="nonzero"/><rect id="Rectangle-path" width="2.724" height="2.528" x="11.912" y=".506" fill="#496071" fill-rule="nonzero"/><path id="Shape" fill="#496071" d="M25.9741297,7.35173075 C25.4156841,6.96686251 23.9454158,6.80432107 22.8779607,7.09764298 C22.8212007,6.01216507 22.2719099,5.09670178 21.2685388,4.29520432 L20.9023449,4.04111655 L20.6551641,4.41477504 C20.16672,5.21675516 19.9469507,6.15899508 20.0289726,7.09951127 C20.0775552,7.69935905 20.2921789,8.27277274 20.6478402,8.75295008 C20.36404,8.97714518 19.4833438,9.41245732 18.2950447,9.39003781 L0.58224822,9.39003781 C0.26732151,11.2994327 0.807457438,18.5446708 9.00470676,18.5446708 C15.0908485,18.5446708 20.0912255,15.7515736 22.3817681,9.89260847 C23.1361274,9.90568652 25.1282219,10.0308621 26.0968047,8.11212578 C26.1206073,8.08036481 26.3439855,7.60395023 26.3439855,7.60395023 L25.9741297,7.35173075 Z"/><path id="Shape" fill="#8996A0" fill-rule="nonzero" d="M11.1451098,18.2364025 C6.6921926,19.6170706 3.99151296,17.1882905 2.47547042,15.901037 C4.05670171,15.8810695 5.62542063,15.6119761 7.12613231,15.1032761 C8.03086262,16.6272308 9.46630407,17.7462765 11.1451098,18.2364025 Z"/><path id="Shape" fill="#41586B" d="M6.90092309,14.6586225 C5.89656006,15.2411567 4.76045192,15.5457863 3.60517845,15.5423248 C3.01408711,15.5429925 2.42550857,15.463837 1.85477185,15.30692 L2.20814891,15.914115 C3.89451508,16.2524844 5.6438726,15.9649204 7.14078006,15.1032761 C7.05472451,14.9575493 6.97416186,14.8099542 6.90092309,14.6586225 Z"/><ellipse id="Oval" cx="8.785" cy="13.444" fill="#8996A0" fill-rule="nonzero" rx="1" ry="1"/><path id="Shape" fill="#4D5C64" fill-rule="nonzero" d="M8.91498926,13.1957495 C8.91598029,13.1185937 8.95178442,13.0462151 9.01203063,12.9995788 C8.94339872,12.9615273 8.86675203,12.9410134 8.78865238,12.9397934 C8.51486411,12.9377488 8.2911952,13.1623776 8.28884659,13.441744 C8.28649797,13.7211105 8.50635737,13.9496215 8.78013973,13.9523699 C9.05392209,13.9551182 9.27814483,13.7310651 9.28118311,13.4517056 C9.28118311,13.4423641 9.28118311,13.4330226 9.28118311,13.4218129 C9.24255982,13.4434255 9.19884965,13.4537678 9.15484623,13.4517056 C9.02019569,13.4466553 8.91390758,13.3332332 8.91498926,13.1957495 Z"/><path id="Shape" fill="#000" fill-rule="nonzero" d="M25.9027219,7.30689174 C25.3534312,6.93323325 23.8209099,6.746404 22.802891,7.04906738 L22.5758508,7.37601856 C19.2563036,14.3858518 15.1018343,17.3508319 9.42582968,17.4816124 C3.23715363,17.4647977 1.68815365,14.1355006 1.250552,9.59368168 L0.259997633,9.59368168 C0.131829786,11.5030766 0.609712759,18.520383 8.86555309,18.520383 C14.9590187,18.520383 19.9758745,15.7347589 22.2920506,9.88139872 C23.0482409,9.89447677 25.1538555,9.89447677 26.0821569,7.97200384 L26.2652538,7.56471609 L25.9027219,7.30689174 Z" opacity=".05"/><rect id="Rectangle-path" width="1" height="1.517" x="2.746" y="7.077" fill="#41586B" fill-rule="nonzero"/><rect id="Rectangle-path" width="1" height="1.517" x="3.49" y="7.077" fill="#41586B" fill-rule="nonzero"/><rect id="Rectangle-path" width="1" height="1.517" x="4.233" y="7.077" fill="#41586B" fill-rule="nonzero"/><rect id="Rectangle-path" width="1" height="1.517" x="5.967" y="7.077" fill="#41586B" fill-rule="nonzero"/><rect id="Rectangle-path" width="1" height="1.517" x="6.711" y="7.077" fill="#41586B" fill-rule="nonzero"/><rect id="Rectangle-path" width="1" height="1.517" x="7.454" y="7.077" fill="#41586B" fill-rule="nonzero"/><rect id="Rectangle-path" width="1" height="1.517" x="9.188" y="7.077" fill="#41586B" fill-rule="nonzero"/><rect id="Rectangle-path" width="1" height="1.517" x="9.931" y="7.077" fill="#41586B" fill-rule="nonzero"/><rect id="Rectangle-path" width="1" height="1.517" x="10.675" y="7.077" fill="#41586B" fill-rule="nonzero"/><rect id="Rectangle-path" width="1" height="1.517" x="12.408" y="7.077" fill="#41586B" fill-rule="nonzero"/><rect id="Rectangle-path" width="1" height="1.517" x="13.152" y="7.077" fill="#41586B" fill-rule="nonzero"/><rect id="Rectangle-path" width="1" height="1.517" x="13.895" y="7.077" fill="#41586B" fill-rule="nonzero"/><rect id="Rectangle-path" width="1" height="1.517" x="15.629" y="7.077" fill="#41586B" fill-rule="nonzero"/><rect id="Rectangle-path" width="1" height="1.517" x="16.373" y="7.077" fill="#41586B" fill-rule="nonzero"/><rect id="Rectangle-path" width="1" height="1.517" x="17.116" y="7.077" fill="#41586B" fill-rule="nonzero"/><rect id="Rectangle-path" width="1" height="1.517" x="6.711" y="4.045" fill="#41586B" fill-rule="nonzero"/><rect id="Rectangle-path" width="1" height="1.517" x="7.454" y="4.045" fill="#41586B" fill-rule="nonzero"/><rect id="Rectangle-path" width="1" height="1.517" x="9.188" y="4.045" fill="#41586B" fill-rule="nonzero"/><rect id="Rectangle-path" width="1" height="1.517" x="9.931" y="4.045" fill="#41586B" fill-rule="nonzero"/><rect id="Rectangle-path" width="1" height="1.517" x="10.675" y="4.045" fill="#41586B" fill-rule="nonzero"/><rect id="Rectangle-path" width="1" height="1.517" x="12.408" y="4.045" fill="#41586B" fill-rule="nonzero"/><rect id="Rectangle-path" width="1" height="1.517" x="13.152" y="4.045" fill="#41586B" fill-rule="nonzero"/><rect id="Rectangle-path" width="1" height="1.517" x="13.895" y="4.045" fill="#41586B" fill-rule="nonzero"/><rect id="Rectangle-path" width="1" height="1.517" x="13.152" y="1.011" fill="#41586B" fill-rule="nonzero"/><rect id="Rectangle-path" width="1" height="1.517" x="12.408" y="1.011" fill="#41586B" fill-rule="nonzero"/><rect id="Rectangle-path" width="1" height="1.517" x="13.895" y="1.011" fill="#41586B" fill-rule="nonzero"/><rect id="Rectangle-path" width="1" height="1.517" x="5.967" y="4.045" fill="#41586B" fill-rule="nonzero"/><path id="Shape" fill="#41586B" fill-rule="nonzero" d="M26.0253969,7.09951127 C25.4303319,6.69035523 24.0735837,6.53902354 23.0097905,6.74453571 C22.8724678,5.72257975 22.3103603,4.83514084 21.3252988,4.05045801 L20.7412196,3.65064343 L20.3567161,4.24476042 C19.842268,5.09184068 19.6109776,6.08633979 19.6975672,7.07896006 C19.7461519,7.63486744 19.9210597,8.17156651 20.2084076,8.64645741 C19.6330316,8.93984476 18.9986842,9.09270986 18.3554667,9.09297931 L18.3554667,6.06634555 L15.1329608,6.06634555 L15.1329608,0 L11.4179242,0 L11.4179242,3.03410692 L4.97657441,3.03410692 L4.97657441,6.06634555 L1.75589951,6.06634555 L1.75589951,9.0948476 L0.29112411,9.0948476 L0.250842787,9.30596465 C0.150854228,10.07558 0.160721991,10.8559206 0.280138295,11.6226473 C0.429477168,12.725748 0.774444764,13.7918761 1.2981572,14.7688517 C2.67138413,17.2854417 5.16882618,18.763261 8.9186512,18.763261 C15.2977481,18.763261 20.1864359,15.7571784 22.4678236,10.1149353 C23.1113201,10.1557519 23.7565125,10.0701291 24.3683697,9.86271579 C25.1797148,9.58101045 25.8494661,8.98420691 26.2322964,8.20180381 C26.256099,8.16070138 26.2908874,8.08970627 26.3659572,7.934638 L26.4501817,7.75715021 L26.4886321,7.67681364 L26.5820115,7.47690635 L26.0253969,7.09951127 Z M15.1329608,6.57265281 L17.8574431,6.57265281 L17.8574431,9.0948476 L15.1329608,9.0948476 L15.1329608,6.57265281 Z M11.9122859,0.506307251 L14.6385991,0.506307251 L14.6385991,3.03410692 L11.9122859,3.03410692 L11.9122859,0.506307251 Z M11.9122859,3.54041417 L14.6385991,3.54041417 L14.6385991,6.06634555 L11.9122859,6.06634555 L11.9122859,3.54041417 Z M11.9122859,6.5745211 L14.6385991,6.5745211 L14.6385991,9.09671589 L11.9122859,9.09671589 L11.9122859,6.5745211 Z M8.69161101,3.53854588 L11.4179242,3.53854588 L11.4179242,6.06634555 L8.69161101,6.06634555 L8.69161101,3.53854588 Z M8.69161101,6.57265281 L11.4179242,6.57265281 L11.4179242,9.0948476 L8.69161101,9.0948476 L8.69161101,6.57265281 Z M5.47276708,3.53854588 L8.19724932,3.53854588 L8.19724932,6.06634555 L5.47276708,6.06634555 L5.47276708,3.53854588 Z M5.47276708,6.57265281 L8.19724932,6.57265281 L8.19724932,9.0948476 L5.47276708,9.0948476 L5.47276708,6.57265281 Z M2.25209217,6.57265281 L4.97657441,6.57265281 L4.97657441,9.0948476 L2.25209217,9.0948476 L2.25209217,6.57265281 Z M25.9118768,7.71791607 L25.8349761,7.87485264 C25.8239903,7.89727215 25.8148354,7.91408678 25.7910328,7.9570575 C25.4664125,8.62863537 24.8932889,9.14084515 24.1980896,9.38069634 C23.6273863,9.57018558 23.026242,9.645671 22.4275423,9.60302314 L22.2993745,9.60302314 L22.1290943,9.60302314 L22.0650104,9.76556459 C19.8971428,15.3106566 15.1659183,18.258822 8.9186512,18.258822 C5.3464302,18.258822 3.01743732,16.8781539 1.73026594,14.5222371 C1.23630547,13.5990485 0.911194968,12.5918068 0.770838053,11.5497839 C0.674435911,10.9056495 0.654762629,10.2519797 0.712247037,9.60302314 L18.3536357,9.60302314 L18.3536357,9.60302314 C19.3350352,9.59181339 20.2523508,9.28167684 20.7119241,8.91735982 L20.9151617,8.75668667 L20.7522054,8.55304279 C20.4267881,8.11159306 20.2311925,7.58477254 20.1882669,7.03412104 C20.1119616,6.15722806 20.3148681,5.27860721 20.7668532,4.52874088 L20.8767114,4.35872626 L21.0341747,4.46708723 C21.9954336,5.23308713 22.4897953,6.08502848 22.5410624,7.08269664 L22.5575411,7.39656977 L22.8523272,7.3162332 C23.817248,7.05093567 25.2325872,7.17984785 25.7470895,7.53669171 L25.9301865,7.66747218 L25.9118768,7.71791607 Z"/></g></g></g></g><g id="deploy-2" transform="translate(204.000000, 111.000000)"><polygon id="Shape" fill="url(#linearGradient-16)" fill-rule="nonzero" points="179.402 134.868 162.841 123.827 147.66 129.041 130.179 126.741 119.598 129.041 110.244 131.954 100.89 130.268 77.582 131.341 59.334 124.441 48.293 130.268 35.259 126.434 32.192 135.481 7.198 140.695 .91 144.682 .45 159.096 12.258 167.837 20.385 177.497 47.067 179.797 86.936 186.698 109.017 185.931 127.265 180.871 137.079 184.091 146.28 179.644 151.033 179.644 164.527 179.031 181.549 174.584 185.382 171.517 190.442 161.856 196.423 154.036 198.876 131.188"/><polygon id="Shape" fill="url(#linearGradient-17)" fill-rule="nonzero" points="179.402 123.214 162.841 112.173 147.66 117.387 130.179 115.087 119.598 117.387 110.244 120.3 100.89 118.614 77.582 119.687 59.334 112.787 48.293 118.614 35.259 114.933 32.192 123.827 7.198 129.041 .91 133.028 .45 147.442 12.258 156.336 20.385 165.843 47.067 168.143 86.936 175.044 109.017 174.277 127.265 169.217 137.079 172.437 146.28 167.99 151.033 167.99 164.527 167.377 181.549 162.93 185.382 159.863 190.442 150.202 196.423 142.535 198.876 131.188"/><g id="Group" fill-rule="nonzero" transform="translate(0.450450, 111.681488)"><polygon id="Shape" fill="#75A996" points="0 35.761 11.807 44.655 22.081 40.208"/><polygon id="Shape" fill="#76AC98" points="22.081 40.208 11.807 44.655 23.768 42.048"/><polygon id="Shape" fill="#6A9B8C" points=".46 21.346 0 35.761 33.122 25.18"/><polygon id="Shape" fill="#669487" points="6.747 17.359 .46 21.346 33.122 25.18"/><polygon id="Shape" fill="#7BB29B" points="11.807 44.655 19.935 54.162 23.768 42.048"/><polygon id="Shape" fill="#6FA290" points="0 35.761 22.081 40.208 33.122 25.18"/><polygon id="Shape" fill="#639185" points="31.742 12.146 6.747 17.359 33.122 25.18"/><polygon id="Shape" fill="#5B857D" points="34.809 3.252 31.742 12.146 47.536 9.232"/><polygon id="Shape" fill="#59837C" points="34.809 3.252 47.536 9.232 47.843 6.932"/><polygon id="Shape" fill="#7BB29C" points="23.768 42.048 19.935 54.162 49.99 45.881"/><polygon id="Shape" fill="#7EB7A0" points="19.935 54.162 46.616 56.462 49.99 45.881"/><polygon id="Shape" fill="#5B857E" points="47.843 6.932 47.536 9.232 55.51 9.692"/><polygon id="Shape" fill="#669487" points="31.742 12.146 33.122 25.18 48.763 25.333"/><polygon id="Shape" fill="#5E8981" points="55.51 9.692 47.536 9.232 60.264 17.359"/><polygon id="Shape" fill="#5F8A81" points="47.536 9.232 31.742 12.146 60.264 17.359"/><polygon id="Shape" fill="#639185" points="31.742 12.146 48.763 25.333 60.264 17.359"/><polygon id="Shape" fill="#77AD98" points="22.081 40.208 23.768 42.048 49.99 45.881"/><polygon id="Shape" fill="#6D9F8F" points="33.122 25.18 22.081 40.208 48.763 25.333"/><polygon id="Shape" fill="#5E8B81" points="55.51 9.692 60.264 17.359 60.264 10.459"/><polygon id="Shape" fill="#73A694" points="48.763 25.333 22.081 40.208 49.99 45.881"/><polygon id="Shape" fill="#5F8B82" points="60.264 10.459 60.264 17.359 64.404 12.606"/><polygon id="Shape" fill="#59837B" points="47.843 6.932 55.51 9.692 58.884 1.105"/><polygon id="Shape" fill="#5C867E" points="55.51 9.692 60.264 10.459 65.324 9.232"/><polygon id="Shape" fill="#618D83" points="60.264 17.359 64.097 16.746 64.404 12.606"/><polygon id="Shape" fill="#79AF9A" points="64.864 43.581 49.99 45.881 67.011 47.721"/><polygon id="Shape" fill="#5D8880" points="60.264 10.459 64.404 12.606 65.324 9.232"/><polygon id="Shape" fill="#7CB69E" points="49.99 45.881 46.616 56.462 67.011 47.721"/><polygon id="Shape" fill="#5A837B" points="58.884 1.105 55.51 9.692 65.324 9.232"/><polygon id="Shape" fill="#74A895" points="48.763 25.333 49.99 45.881 64.864 43.581"/><polygon id="Shape" fill="#639086" points="74.678 16.746 64.097 16.746 75.138 21.346"/><polygon id="Shape" fill="#669488" points="60.264 17.359 48.763 25.333 75.138 21.346"/><polygon id="Shape" fill="#639085" points="64.097 16.746 60.264 17.359 75.138 21.346"/><polygon id="Shape" fill="#618D83" points="64.404 12.606 64.097 16.746 74.678 16.746"/><polygon id="Shape" fill="#5D877E" points="65.324 9.232 64.404 12.606 77.132 8.006"/><polygon id="Shape" fill="#5A837B" points="58.884 1.105 65.324 9.232 77.132 8.006"/><polygon id="Shape" fill="#5F8A81" points="64.404 12.606 74.678 16.746 77.132 8.006"/><polygon id="Shape" fill="#82BDA3" points="82.345 51.555 46.616 56.462 86.485 63.362"/><polygon id="Shape" fill="#7EB89F" points="67.011 47.721 46.616 56.462 82.345 51.555"/><polygon id="Shape" fill="#6C9E8E" points="48.763 25.333 64.864 43.581 75.138 21.346"/><polygon id="Shape" fill="#7AB09A" points="64.864 43.581 67.011 47.721 94.153 46.955"/><polygon id="Shape" fill="#7BB39D" points="67.011 47.721 82.345 51.555 94.153 46.955"/><polygon id="Shape" fill="#6FA291" points="75.138 21.346 64.864 43.581 95.379 34.841"/><polygon id="Shape" fill="#76AB97" points="64.864 43.581 94.153 46.955 95.379 34.841"/><polygon id="Shape" fill="#5C877F" points="77.132 8.006 74.678 16.746 100.44 6.932"/><polygon id="Shape" fill="#83BFA4" points="82.345 51.555 86.485 63.362 105.96 60.449"/><polygon id="Shape" fill="#86C2A7" points="105.96 60.449 86.485 63.362 108.567 62.596"/><polygon id="Shape" fill="#7FB8A0" points="94.153 46.955 82.345 51.555 105.96 60.449"/><polygon id="Shape" fill="#69998B" points="75.138 21.346 95.379 34.841 116.694 20.886"/><polygon id="Shape" fill="#659286" points="74.678 16.746 75.138 21.346 116.694 20.886"/><polygon id="Shape" fill="#608C83" points="100.44 6.932 74.678 16.746 116.694 20.886"/><polygon id="Shape" fill="#5E8980" points="109.794 8.619 100.44 6.932 116.694 20.886"/><polygon id="Shape" fill="#75AB97" points="95.379 34.841 94.153 46.955 119.608 41.434"/><polygon id="Shape" fill="#5B857D" points="109.794 8.619 117.001 9.692 119.148 5.705"/><polygon id="Shape" fill="#7FB8A0" points="94.153 46.955 105.96 60.449 121.754 51.862"/><polygon id="Shape" fill="#5F8B81" points="109.794 8.619 116.694 20.886 117.001 9.692"/><polygon id="Shape" fill="#7AB29B" points="119.608 41.434 94.153 46.955 121.754 51.862"/><polygon id="Shape" fill="#85C1A6" points="105.96 60.449 108.567 62.596 126.815 57.535"/><polygon id="Shape" fill="#81BDA3" points="121.754 51.862 105.96 60.449 126.815 57.535"/><polygon id="Shape" fill="#5F8C82" points="117.001 9.692 116.694 20.886 123.441 11.072"/><polygon id="Shape" fill="#80BAA1" points="121.754 51.862 126.815 57.535 127.275 53.395"/><polygon id="Shape" fill="#5B857E" points="119.148 5.705 117.001 9.692 123.441 11.072"/><polygon id="Shape" fill="#5A837C" points="119.148 5.705 123.441 11.072 129.728 3.405"/><polygon id="Shape" fill="#6FA091" points="116.694 20.886 95.379 34.841 119.608 41.434"/><polygon id="Shape" fill="#7AB09B" points="119.608 41.434 121.754 51.862 140.769 44.194"/><polygon id="Shape" fill="#7CB49E" points="121.754 51.862 127.275 53.395 140.769 44.194"/><polygon id="Shape" fill="#6FA08F" points="116.694 20.886 119.608 41.434 144.142 33.767"/><polygon id="Shape" fill="#81BCA2" points="127.275 53.395 126.815 57.535 145.829 56.309"/><polygon id="Shape" fill="#83BFA3" points="126.815 57.535 136.629 60.756 145.829 56.309"/><polygon id="Shape" fill="#5A847C" points="129.728 3.405 123.441 11.072 147.209 5.705"/><polygon id="Shape" fill="#74A996" points="119.608 41.434 140.769 44.194 144.142 33.767"/><polygon id="Shape" fill="#7DB79E" points="140.769 44.194 127.275 53.395 145.829 56.309"/><polygon id="Shape" fill="#5C867E" points="147.209 5.705 123.441 11.072 154.416 10.152"/><polygon id="Shape" fill="#7EB89F" points="140.769 44.194 145.829 56.309 150.583 56.309"/><polygon id="Shape" fill="#5F8C82" points="123.441 11.072 116.694 20.886 154.416 10.152"/><polygon id="Shape" fill="#669487" points="116.694 20.886 144.142 33.767 154.416 10.152"/><polygon id="Shape" fill="#5A837B" points="147.209 5.705 154.416 10.152 162.39 .492"/><polygon id="Shape" fill="#679588" points="154.416 10.152 144.142 33.767 171.744 21.346"/><polygon id="Shape" fill="#7EB7A0" points="140.769 44.194 150.583 56.309 164.077 55.695"/><polygon id="Shape" fill="#628E84" points="154.416 10.152 171.744 21.346 173.891 16.286"/><polygon id="Shape" fill="#5F8A81" points="154.416 10.152 173.891 16.286 178.951 11.532"/><polygon id="Shape" fill="#5B847C" points="162.39 .492 154.416 10.152 178.951 11.532"/><polygon id="Shape" fill="#6B9C8C" points="171.744 21.346 144.142 33.767 184.012 28.093"/><polygon id="Shape" fill="#7BB39D" points="140.769 44.194 181.098 51.248 184.932 48.181"/><polygon id="Shape" fill="#7DB59E" points="140.769 44.194 164.077 55.695 181.098 51.248"/><polygon id="Shape" fill="#76AB97" points="144.142 33.767 140.769 44.194 184.932 48.181"/><polygon id="Shape" fill="#74AA96" points="144.142 33.767 184.932 48.181 189.992 38.521"/><polygon id="Shape" fill="#71A492" points="189.072 32.234 144.142 33.767 189.992 38.521"/><polygon id="Shape" fill="#6D9F8F" points="184.012 28.093 144.142 33.767 189.072 32.234"/><polygon id="Shape" fill="#6D9E8E" points="184.012 28.093 189.072 32.234 195.972 30.854"/><polygon id="Shape" fill="#639185" points="173.891 16.286 171.744 21.346 198.426 19.506"/><polygon id="Shape" fill="#679588" points="171.744 21.346 184.012 28.093 198.426 19.506"/><polygon id="Shape" fill="#628E83" points="178.951 11.532 173.891 16.286 198.426 19.506"/><polygon id="Shape" fill="#6FA391" points="189.072 32.234 189.992 38.521 195.972 30.854"/><polygon id="Shape" fill="#6A998C" points="184.012 28.093 195.972 30.854 198.426 19.506"/></g><path id="Shape" fill="#799987" fill-rule="nonzero" d="M151.033299,130.421022 L151.033299,140.695004 C151.033299,141.768406 149.806555,142.688464 147.353066,143.608522 L107.330537,156.489336 C101.503503,158.022766 95.3697816,158.022766 89.5427468,156.489336 L49.5202178,143.455179 C47.0667294,142.688464 45.8399852,141.615063 45.8399852,140.541661 L45.8399852,130.267679 L151.033299,130.267679 L151.033299,130.421022 Z"/><path id="Shape" fill="#87B09A" fill-rule="nonzero" d="M89.6960898,146.215353 L49.5202178,133.181196 C44.613241,131.647766 44.613241,129.040935 49.5202178,127.507505 L89.5427468,114.626691 C95.3697816,113.09326 101.503503,113.09326 107.330537,114.626691 L147.353066,127.507505 C152.260043,129.040935 152.260043,131.647766 147.353066,133.181196 L107.330537,146.06201 C101.503503,147.748784 95.3697816,147.748784 89.6960898,146.215353"/><path id="Shape" fill="#FFF" fill-rule="nonzero" d="M129.105247,129.500964 L121.744782,126.587446 C120.978066,126.28076 119.751322,126.587446 119.751322,126.894132 L119.751322,127.967534 C119.751322,128.27422 119.291293,128.427563 118.524578,128.427563 L114.537659,128.427563 C113.924287,128.427563 113.310915,128.27422 113.310915,127.967534 L113.310915,125.974074 C113.310915,125.667388 113.770944,125.514045 114.537659,125.514045 L115.917747,125.514045 C116.991148,125.514045 117.451177,125.054016 116.684462,124.74733 L109.323997,121.833813 C108.863968,121.68047 108.250596,121.68047 107.637223,121.833813 L100.276758,124.74733 C99.5100432,125.054016 100.123415,125.514045 101.043473,125.514045 L102.730247,125.514045 C103.343619,125.514045 103.956991,125.667388 103.956991,125.974074 L103.956991,127.967534 C103.956991,128.27422 103.496962,128.427563 102.730247,128.427563 L93.9896944,128.427563 C93.3763223,128.427563 92.7629502,128.27422 92.7629502,127.967534 L92.7629502,125.974074 C92.7629502,125.667388 93.2229793,125.514045 93.9896944,125.514045 L95.6764677,125.514045 C96.7498688,125.514045 97.2098979,125.054016 96.4431828,124.74733 L89.0827177,121.833813 C88.6226886,121.68047 88.0093165,121.68047 87.3959444,121.833813 L80.1888224,124.74733 C79.4221072,125.054016 80.0354793,125.514045 80.9555375,125.514045 L82.1822817,125.514045 C82.7956537,125.514045 83.4090258,125.667388 83.4090258,125.974074 L83.4090258,127.967534 C83.4090258,128.27422 82.9489968,128.427563 82.1822817,128.427563 L78.1953631,128.427563 C77.581991,128.427563 76.9686189,128.27422 76.9686189,127.967534 L76.9686189,126.894132 C76.9686189,126.434103 75.7418747,126.28076 74.9751596,126.587446 L67.9213805,129.500964 C67.4613515,129.654307 67.4613515,129.960993 67.9213805,130.114336 L75.2818456,133.027853 C76.0485607,133.334539 77.2753049,133.027853 77.2753049,132.721167 L77.2753049,131.647766 C77.2753049,131.34108 77.735334,131.187737 78.5020491,131.187737 L82.4889677,131.187737 C83.1023398,131.187737 83.7157119,131.34108 83.7157119,131.647766 L83.7157119,133.794568 C83.7157119,134.101254 83.2556828,134.254598 82.4889677,134.254598 L81.2622235,134.254598 C80.1888224,134.254598 79.7287933,134.714627 80.4955084,135.021313 L87.8559735,137.93483 C88.3160026,138.088173 88.9293747,138.088173 89.5427468,137.93483 L96.9032119,135.021313 C97.669927,134.714627 97.0565549,134.254598 96.1364967,134.254598 L93.9896944,134.254598 C93.3763223,134.254598 92.7629502,134.101254 92.7629502,133.794568 L92.7629502,131.801109 C92.7629502,131.494423 93.2229793,131.34108 93.9896944,131.34108 L102.88359,131.34108 C103.496962,131.34108 104.110334,131.494423 104.110334,131.801109 L104.110334,133.794568 C104.110334,134.101254 103.650305,134.254598 102.88359,134.254598 L101.196816,134.254598 C100.123415,134.254598 99.6633863,134.714627 100.430101,135.021313 L107.790566,137.93483 C108.250596,138.088173 108.863968,138.088173 109.47734,137.93483 L116.837805,135.021313 C117.60452,134.714627 116.991148,134.254598 116.07109,134.254598 L114.691003,134.254598 C114.07763,134.254598 113.464258,134.101254 113.464258,133.794568 L113.464258,131.801109 C113.464258,131.494423 113.924287,131.34108 114.691003,131.34108 L118.677921,131.34108 C119.291293,131.34108 119.904665,131.494423 119.904665,131.801109 L119.904665,132.87451 C119.904665,133.334539 121.131409,133.487882 121.898125,133.181196 L129.25859,130.267679 C129.565276,129.960993 129.565276,129.654307 129.105247,129.500964"/><polygon id="Shape" fill="#657C6E" fill-rule="nonzero" points="52.587 138.088 52.587 140.235 84.482 150.662 84.482 148.362"/><g id="Group-3" transform="translate(62.612613, 59.136557)"><mask id="mask-19" fill="#fff"><use xlink:href="#path-18"/></mask><path id="Fill-1" fill="#E2F0F7" d="M76.8658416,0.39641916 L76.8658416,58.7786313 C76.8658416,63.4892283 73.0506286,67.3051976 68.3400316,67.3051976 L8.52928871,67.3051976 C3.81869171,67.3051976 0.00272245131,63.4892283 0.00272245131,58.7786313 L0.00272245131,0.39641916 L4.11740511,0.39641916 L4.11740511,0.886460397 C4.11740511,2.01627769 5.82196213,2.9328363 7.95379275,2.9328363 L68.4882539,2.9328363 C70.5989099,2.9328363 72.326154,2.01627769 72.326154,0.886460397 L72.326154,0.39641916 L76.8658416,0.39641916 Z" mask="url(#mask-19)"/></g><path id="Fill-4" fill="#E2F0F7" d="M134.941413,59.5329762 L134.941413,60.0230174 C134.941413,61.1528347 133.214926,62.0693933 131.10427,62.0693933 L70.5690522,62.0693933 C68.4379778,62.0693933 66.7326646,61.1528347 66.7326646,60.0230174 L66.7326646,59.5329762 L134.941413,59.5329762 Z"/><path id="Fill-6" fill="#F3FCFF" d="M134.941413,58.7017967 L134.941413,60.023698 C134.941413,61.1527591 133.214926,62.0693177 131.10427,62.0693177 L70.5690522,62.0693177 C68.4379778,62.0693177 66.7326646,61.1527591 66.7326646,60.023698 L66.7326646,58.7017967 C66.7326646,57.5719794 68.4379778,56.6554208 70.5690522,56.6554208 L131.10427,56.6554208 C133.214926,56.6554208 134.941413,57.5719794 134.941413,58.7017967"/><path id="Fill-8" fill="#E2F0F7" d="M134.941413,58.7017967 L134.941413,60.023698 C134.941413,61.1527591 133.214926,62.0693177 131.10427,62.0693177 L70.5690522,62.0693177 C68.4379778,62.0693177 66.7326646,61.1527591 66.7326646,60.023698 L66.7326646,58.7017967 C66.7326646,57.5719794 68.4379778,56.6554208 70.5690522,56.6554208 L131.10427,56.6554208 C133.214926,56.6554208 134.941413,57.5719794 134.941413,58.7017967"/><g id="Group-12" fill="#F3FCFF" transform="translate(62.612613, 53.842902)"><path id="Fill-10" d="M72.3288008,6.18049384 C72.3288008,7.31031114 70.602313,8.22686975 68.491657,8.22686975 L7.95643958,8.22686975 C5.82536519,8.22686975 4.12005194,7.31031114 4.12005194,6.18049384 L4.12005194,4.85859248 C4.12005194,3.72953143 5.82536519,2.81221658 7.95643958,2.81221658 L68.491657,2.81221658 C70.602313,2.81221658 72.3288008,3.72953143 72.3288008,4.85859248 L72.3288008,6.18049384 Z M72.5413033,0.105646236 L4.33255439,0.105646236 C1.92394122,0.105646236 0.00612551545,2.0453928 0.00612551545,4.43207511 L0.00612551545,7.20368179 C0.00612551545,9.59112035 1.92394122,11.5308669 4.33255439,11.5308669 L72.5413033,11.5308669 C74.9287418,11.5308669 76.8684884,9.59112035 76.8684884,7.20368179 L76.8684884,4.43207511 C76.8684884,2.0453928 74.9287418,0.105646236 72.5413033,0.105646236 L72.5413033,0.105646236 Z"/></g><polygon id="Fill-13" fill="#847264" points="67.837 105.097 134.256 105.097 134.256 82.857 67.837 82.857"/><path id="Fill-15" fill="#685A50" d="M132.740992,121.654097 L69.3472009,121.654097 C68.5115596,121.654097 67.834728,120.976509 67.834728,120.141624 L67.834728,105.096299 L134.253465,105.096299 L134.253465,120.141624 C134.253465,120.976509 133.575877,121.654097 132.740992,121.654097"/><path id="Stroke-16" stroke-linecap="round" stroke-linejoin="round" d="M92.8506525,50.3182347 L92.8377964,50.3182347"/><path id="Fill-17" fill="#9B8676" d="M132.740992,88.7271072 L69.3472009,88.7271072 C68.5115596,88.7271072 67.834728,88.0502755 67.834728,87.2146342 L67.834728,78.5005213 C67.834728,77.66488 68.5115596,76.9880484 69.3472009,76.9880484 L132.740992,76.9880484 C133.575877,76.9880484 134.253465,77.66488 134.253465,78.5005213 L134.253465,87.2146342 C134.253465,88.0502755 133.575877,88.7271072 132.740992,88.7271072"/><path id="Fill-18" fill="#B3B3B3" d="M125.157604,82.7015662 L118.579103,82.7015662 C118.579103,81.0151589 120.052252,79.6478833 121.868732,79.6478833 C123.685212,79.6478833 125.157604,81.0151589 125.157604,82.7015662"/><path id="Fill-19" fill="#C3C6C8" d="M124.081555,82.7015662 L117.503054,82.7015662 C117.503054,81.0151589 118.976203,79.6478833 120.792683,79.6478833 C122.609163,79.6478833 124.081555,81.0151589 124.081555,82.7015662"/><path id="Fill-20" fill="#B3B3B3" d="M84.7344201,82.7015662 L78.155919,82.7015662 C78.155919,81.0151589 79.6290677,79.6478833 81.4455477,79.6478833 C83.2620277,79.6478833 84.7344201,81.0151589 84.7344201,82.7015662"/><path id="Fill-21" fill="#C3C6C8" d="M83.6583712,82.7015662 L77.0798701,82.7015662 C77.0798701,81.0151589 78.5530188,79.6478833 80.3694988,79.6478833 C82.1859788,79.6478833 83.6583712,81.0151589 83.6583712,82.7015662"/><path id="Fill-22" fill="#9B8676" d="M115.399658,116.472289 C115.399658,117.617987 114.471,118.547402 113.324545,118.547402 C112.178847,118.547402 111.250188,117.617987 111.250188,116.472289 C111.250188,115.326591 112.178847,114.397176 113.324545,114.397176 C114.471,114.397176 115.399658,115.326591 115.399658,116.472289"/><path id="Fill-23" fill="#9B8676" d="M92.2310679,116.472289 C92.2310679,117.617987 91.3016533,118.547402 90.155955,118.547402 C89.0102568,118.547402 88.0815984,117.617987 88.0815984,116.472289 C88.0815984,115.326591 89.0102568,114.397176 90.155955,114.397176 C91.3016533,114.397176 92.2310679,115.326591 92.2310679,116.472289"/><path id="Fill-24" fill="#847264" d="M105.630973,111.112161 C105.630973,112.258615 104.701559,113.187273 103.55586,113.187273 C102.410162,113.187273 101.481504,112.258615 101.481504,111.112161 C101.481504,109.966462 102.410162,109.037048 103.55586,109.037048 C104.701559,109.037048 105.630973,109.966462 105.630973,111.112161"/><path id="Fill-25" fill="#9B8676" d="M126.465515,111.717377 C126.465515,112.863075 125.5361,113.79249 124.390402,113.79249 C123.244704,113.79249 122.316045,112.863075 122.316045,111.717377 C122.316045,110.571678 123.244704,109.642264 124.390402,109.642264 C125.5361,109.642264 126.465515,110.571678 126.465515,111.717377"/><path id="Fill-26" fill="#847264" d="M78.59257,110.829328 C78.59257,111.975026 77.6631553,112.904441 76.5174571,112.904441 C75.3717588,112.904441 74.4431004,111.975026 74.4431004,110.829328 C74.4431004,109.68363 75.3717588,108.754215 76.5174571,108.754215 C77.6631553,108.754215 78.59257,109.68363 78.59257,110.829328"/><path id="Fill-27" fill="#847264" d="M94.881223,82.9068844 L108.606915,82.9068844 C108.606915,81.4859161 107.455167,80.3334117 106.033442,80.3334117 C105.763466,80.3334117 105.508614,80.3863482 105.263594,80.4642406 C104.489207,79.349548 103.203605,78.6175111 101.744069,78.6175111 C100.285289,78.6175111 98.9996869,79.349548 98.2245445,80.4642406 C97.9802801,80.3863482 97.7246722,80.3334117 97.4546957,80.3334117 C96.0337274,80.3334117 94.881223,81.4859161 94.881223,82.9068844"/><path id="Fill-28" fill="#BFEC80" d="M101.870814,0.401409303 C90.1483927,0.401409303 83.8912921,36.9601492 83.8912921,44.0665034 C83.8912921,53.9807636 91.9565541,62.0467818 101.870814,62.0467818 C111.785074,62.0467818 119.850336,53.9807636 119.850336,44.0665034 C119.850336,36.9609055 113.593992,0.401409303 101.870814,0.401409303"/><path id="Fill-29" fill="#AAE655" d="M91.5966611,44.0667303 C91.5966611,37.7846739 96.4902674,8.50168506 105.723915,1.79084258 C104.51318,0.910583322 103.229847,0.401636174 101.87089,0.401636174 C90.147712,0.401636174 83.8913677,36.9603761 83.8913677,44.0667303 C83.8913677,53.9809905 91.9573859,62.0462525 101.87089,62.0462525 C103.194304,62.0462525 104.481418,61.8934927 105.723915,61.6204913 C97.656384,59.850898 91.5966611,52.6575766 91.5966611,44.0667303"/><path id="Fill-30" fill="#759684" d="M108.823955,42.250704 C107.820429,41.2471782 106.195277,41.2471782 105.191751,42.250704 L104.440052,43.0031593 L104.440052,38.9293134 C104.440052,37.5106138 103.289816,36.3603781 101.871117,36.3603781 C100.452417,36.3603781 99.3021815,37.5106138 99.3021815,38.9293134 L99.3021815,48.1402737 L98.5497262,47.3878184 C97.5462004,46.3842926 95.9210482,46.3842926 94.9175224,47.3878184 C93.9147528,48.3913442 93.9147528,50.0172526 94.9175224,51.0200222 L99.3029377,55.4046812 L99.3029377,80.0262284 L104.440052,80.0262284 L104.440052,50.2675669 L108.823955,45.8829078 C109.827481,44.879382 109.827481,43.2542298 108.823955,42.250704"/><path id="Fill-31" fill="#F3FCFF" d="M139.475883,59.5329762 L139.475883,61.0462054 C139.475883,63.4336439 137.536136,65.3733905 135.147942,65.3733905 L66.9391927,65.3733905 C64.5305796,65.3733905 62.6127639,63.4336439 62.6127639,61.0462054 L62.6127639,59.5329762 L66.7266903,59.5329762 L66.7266903,60.0230174 C66.7266903,61.1528347 68.4320035,62.0693933 70.5630779,62.0693933 L131.098295,62.0693933 C133.208951,62.0693933 134.936195,61.1528347 134.936195,60.0230174 L134.936195,59.5329762 L139.475883,59.5329762 Z"/></g></g><path id="Fill-24" fill="#847264" d="M68.2749282,119.339491 C68.2749282,120.7183 67.1499401,121.834684 65.7625265,121.834684 C64.3751128,121.834684 63.2501247,120.7183 63.2501247,119.339491 C63.2501247,117.960681 64.3751128,116.844297 65.7625265,116.844297 C67.1499401,116.844297 68.2749282,117.960681 68.2749282,119.339491"/><path id="Shape" fill="#799987" fill-rule="nonzero" d="M155.096911,143.645807 L155.096911,155.259206 C155.096911,156.439642 153.690804,157.602718 150.930669,158.505403 L105.622786,173.139329 C99.0477796,174.93132 92.113034,174.93132 85.5380275,173.139329 L40.230145,158.488044 C37.4700097,157.602718 36.063903,156.439642 36.063903,155.259206 L36.063903,143.645807 L155.096911,143.645807 Z"/><path id="Shape" fill="#87B09A" fill-rule="nonzero" d="M85.5380275,161.525929 L40.230145,146.961441 C34.692515,145.225507 34.692515,142.257059 40.230145,140.469047 L85.5380275,125.730966 C92.113034,123.938975 99.0477796,123.938975 105.622786,125.730966 L150.948028,140.38225 C156.485658,142.118185 156.485658,145.086632 150.948028,146.874644 L105.622786,161.525929 C99.0477796,163.31792 92.113034,163.31792 85.5380275,161.525929"/><path id="Shape" fill="#FFF" fill-rule="nonzero" d="M130.273052,142.638965 L121.940568,139.410127 C121.124678,139.097659 119.718572,139.32333 119.718572,139.774673 L119.718572,140.885671 C119.718572,141.163421 119.128354,141.389092 118.416621,141.389092 L113.851114,141.389092 C113.139381,141.389092 112.549164,141.163421 112.549164,140.885671 L112.549164,138.576879 C112.549164,138.299129 113.122022,138.073458 113.851114,138.073458 L115.378736,138.073458 C116.541812,138.073458 117.114671,137.535318 116.298781,137.205491 L107.966297,133.976653 C107.368806,133.779319 106.723699,133.779319 106.126207,133.976653 L97.7937229,137.205491 C96.9778339,137.517959 97.5506921,138.073458 98.713768,138.073458 L100.536499,138.073458 C101.248232,138.073458 101.83845,138.299129 101.83845,138.576879 L101.83845,140.833593 C101.83845,141.111343 101.248232,141.337014 100.536499,141.337014 L90.5548773,141.337014 C89.8431443,141.337014 89.2529267,141.111343 89.2529267,140.833593 L89.2529267,138.576879 C89.2529267,138.299129 89.8431443,138.073458 90.5548773,138.073458 L92.4470456,138.073458 C93.6101215,138.073458 94.1829798,137.535318 93.3670907,137.205491 L85.0346066,133.976653 C84.437115,133.779319 83.792008,133.779319 83.1945164,133.976653 L74.8620322,137.205491 C74.0461431,137.517959 74.6190014,138.073458 75.7820773,138.073458 L77.2576214,138.073458 C77.9693544,138.073458 78.5595721,138.299129 78.5595721,138.576879 L78.5595721,140.885671 C78.5595721,141.163421 77.9867138,141.389092 77.2576214,141.389092 L72.7441925,141.389092 C72.0324595,141.389092 71.4422419,141.163421 71.4422419,140.885671 L71.4422419,139.757314 C71.4422419,139.305971 70.0361352,139.0803 69.2202461,139.392768 L60.887762,142.621605 C60.384341,142.812558 60.384341,143.142386 60.887762,143.333338 L69.2202461,146.562176 C70.0361352,146.874644 71.4422419,146.648973 71.4422419,146.19763 L71.4422419,145.069273 C71.4422419,144.791523 72.0324595,144.565852 72.7441925,144.565852 L77.2402621,144.565852 C77.9519951,144.565852 78.5422127,144.791523 78.5422127,145.069273 L78.5422127,147.378065 C78.5422127,147.655815 77.9693544,147.881486 77.2402621,147.881486 L75.764718,147.881486 C74.6016421,147.881486 74.0287838,148.419626 74.8446729,148.749453 L83.177157,151.978291 C83.7746486,152.175625 84.4197557,152.175625 85.0172473,151.978291 L93.3497314,148.697375 C94.1656205,148.384907 93.5927622,147.829408 92.4296863,147.829408 L90.5548773,147.829408 C89.8431443,147.829408 89.2529267,147.603737 89.2529267,147.325987 L89.2529267,145.121351 C89.2529267,144.843601 89.8431443,144.61793 90.5548773,144.61793 L100.553858,144.61793 C101.265591,144.61793 101.855809,144.843601 101.855809,145.121351 L101.855809,147.395424 C101.855809,147.673174 101.265591,147.898845 100.553858,147.898845 L98.7311274,147.898845 C97.5680515,147.898845 96.9951932,148.436985 97.8110823,148.766813 L106.143566,151.99565 C106.741058,152.192984 107.386165,152.192984 107.983657,151.99565 L116.316141,148.697375 C117.13203,148.384907 116.559172,147.829408 115.396096,147.829408 L113.868474,147.829408 C113.156741,147.829408 112.566523,147.603737 112.566523,147.325987 L112.566523,145.086632 C112.566523,144.808883 113.139381,144.583211 113.868474,144.583211 L118.43398,144.583211 C119.145714,144.583211 119.735931,144.808883 119.735931,145.086632 L119.735931,146.214989 C119.735931,146.666332 121.142038,146.892004 121.957927,146.579535 L130.290411,143.350698 C130.793832,143.159745 130.793832,142.829918 130.290411,142.638965"/><polygon id="Shape" fill="#657C6E" fill-rule="nonzero" points="43.528 152.273 43.528 154.669 79.74 166.612 79.74 163.939"/><path id="Fill-1" fill="#E2F0F7" d="M142.014995,57.6611036 L142.014995,127.859931 C142.014995,133.525741 137.394585,138.111735 131.687905,138.111735 L59.2498563,138.111735 C53.5453277,138.111735 48.9249177,133.525741 48.9249177,127.859931 L48.9249177,57.6611036 L53.9088516,57.6611036 L53.9088516,58.2504855 C53.9088516,59.6077848 55.9716883,60.7112626 58.552923,60.7112626 L131.868591,60.7112626 C134.426165,60.7112626 136.516965,59.6077848 136.516965,58.2504855 L136.516965,57.6611036 L142.014995,57.6611036 Z"/><path id="Fill-3" fill="#E2F0F7" d="M136.519761,57.6611036 L136.519761,58.2504855 C136.519761,59.6077848 134.428961,60.7112626 131.873539,60.7112626 L58.5578703,60.7112626 C55.9766357,60.7112626 53.9116479,59.6077848 53.9116479,58.2504855 L53.9116479,57.6611036 L136.519761,57.6611036 Z"/><path id="Fill-5" fill="#F3FCFF" d="M136.519761,56.6613054 L136.519761,58.2509157 C136.519761,59.608215 134.428961,60.7116928 131.873539,60.7116928 L58.5578703,60.7116928 C55.9766357,60.7116928 53.9116479,59.608215 53.9116479,58.2509157 L53.9116479,56.6613054 C53.9116479,55.3018551 55.9766357,54.2005284 58.5578703,54.2005284 L131.873539,54.2005284 C134.428961,54.2005284 136.519761,55.3018551 136.519761,56.6613054"/><path id="Fill-7" fill="#E2F0F7" d="M136.519761,56.6613054 L136.519761,58.2509157 C136.519761,59.608215 134.428961,60.7116928 131.873539,60.7116928 L58.5578703,60.7116928 C55.9766357,60.7116928 53.9116479,59.608215 53.9116479,58.2509157 L53.9116479,56.6613054 C53.9116479,55.3018551 55.9766357,54.2005284 58.5578703,54.2005284 L131.873539,54.2005284 C134.428961,54.2005284 136.519761,55.3018551 136.519761,56.6613054"/><path id="Fill-9" fill="#F3FCFF" d="M136.519761,58.2513459 C136.519761,59.6086452 134.428961,60.712123 131.873539,60.712123 L58.5578703,60.712123 C55.9766357,60.712123 53.9116479,59.6086452 53.9116479,58.2513459 L53.9116479,56.6617356 C53.9116479,55.3022854 55.9766357,54.2009586 58.5578703,54.2009586 L131.873539,54.2009586 C134.428961,54.2009586 136.519761,55.3022854 136.519761,56.6617356 L136.519761,58.2513459 Z M136.777885,50.9464519 L54.1676204,50.9464519 C51.2508252,50.9464519 48.927714,53.2781672 48.927714,56.1476397 L48.927714,59.4795834 C48.927714,62.351207 51.2508252,64.6829223 54.1676204,64.6829223 L136.777885,64.6829223 C139.668867,64.6829223 142.017791,62.351207 142.017791,59.4795834 L142.017791,56.1476397 C142.017791,53.2781672 139.668867,50.9464519 136.777885,50.9464519 L136.777885,50.9464519 Z"/><polygon id="Fill-12" fill="#847264" points="55.252 112.448 135.691 112.448 135.691 85.706 55.252 85.706"/><path id="Fill-14" fill="#685A50" d="M131.384825,132.354936 L59.5490644,132.354936 C57.1721775,132.354936 55.2470067,130.427614 55.2470067,128.052878 L55.2470067,112.447164 L135.686883,112.447164 L135.686883,128.052878 C135.686883,130.427614 133.759561,132.354936 131.384825,132.354936"/><path id="Fill-15" fill="#9B8676" d="M131.384825,92.7646044 L59.5490644,92.7646044 C57.1721775,92.7646044 55.2470067,90.8372825 55.2470067,88.4625466 L55.2470067,82.9516106 C55.2470067,80.5747237 57.1721775,78.6495528 59.5490644,78.6495528 L131.384825,78.6495528 C133.759561,78.6495528 135.686883,80.5747237 135.686883,82.9516106 L135.686883,88.4625466 C135.686883,90.8372825 133.759561,92.7646044 131.384825,92.7646044"/><path id="Fill-16" fill="#B3B3B3" d="M124.670603,85.5195089 L116.703192,85.5195089 C116.703192,83.4910886 118.486395,81.8477026 120.686898,81.8477026 C122.8874,81.8477026 124.670603,83.4910886 124.670603,85.5195089"/><path id="Fill-17" fill="#C3C6C8" d="M123.367725,85.5195089 L115.400314,85.5195089 C115.400314,83.4910886 117.183517,81.8477026 119.38402,81.8477026 C121.584522,81.8477026 123.367725,83.4910886 123.367725,85.5195089"/><path id="Fill-18" fill="#B3B3B3" d="M75.7131861,85.5195089 L67.7457751,85.5195089 C67.7457751,83.4910886 69.528978,81.8477026 71.7294806,81.8477026 C73.9299831,81.8477026 75.7131861,83.4910886 75.7131861,85.5195089"/><path id="Fill-19" fill="#C3C6C8" d="M74.4103079,85.5195089 L66.4428969,85.5195089 C66.4428969,83.4910886 68.2260998,81.8477026 70.4266024,81.8477026 C72.6271049,81.8477026 74.4103079,83.4910886 74.4103079,85.5195089"/><path id="Fill-20" fill="#9B8676" d="M112.852636,126.124481 C112.852636,127.503291 111.727648,128.619675 110.340234,128.619675 C108.95282,128.619675 107.827832,127.503291 107.827832,126.124481 C107.827832,124.745672 108.95282,123.629288 110.340234,123.629288 C111.727648,123.629288 112.852636,124.745672 112.852636,126.124481"/><path id="Fill-21" fill="#9B8676" d="M84.792679,126.124481 C84.792679,127.503291 83.6676909,128.619675 82.2802772,128.619675 C80.8928636,128.619675 79.7678755,127.503291 79.7678755,126.124481 C79.7678755,124.745672 80.8928636,123.629288 82.2802772,123.629288 C83.6676909,123.629288 84.792679,124.745672 84.792679,126.124481"/><path id="Fill-22" fill="#847264" d="M101.021331,119.679783 C101.021331,121.058593 99.8963434,122.174977 98.5089297,122.174977 C97.1215161,122.174977 95.996528,121.058593 95.996528,119.679783 C95.996528,118.300974 97.1215161,117.18459 98.5089297,117.18459 C99.8963434,117.18459 101.021331,118.300974 101.021331,119.679783"/><path id="Fill-23" fill="#9B8676" d="M126.254621,120.406616 C126.254621,121.785426 125.129633,122.90181 123.742219,122.90181 C122.354806,122.90181 121.229818,121.785426 121.229818,120.406616 C121.229818,119.029958 122.354806,117.913574 123.742219,117.913574 C125.129633,117.913574 126.254621,119.029958 126.254621,120.406616"/><path id="Fill-25" fill="#87AF9A" d="M98.2454287,76.2935309 L98.2454287,80.9483574 C98.2454287,82.2045583 97.2193879,83.2219949 95.956734,83.2219949 C94.691929,83.2219949 93.6658882,82.2045583 93.6658882,80.9483574 L93.6658882,76.3214943 C94.4897323,76.0569177 95.2598006,75.6933938 95.9653381,75.2201675 C95.9825463,74.9857053 95.9933015,74.7555452 95.9933015,74.5210831 C95.9933015,74.7555452 96.0019056,74.9857053 96.0212648,75.2201675 C96.707443,75.6761856 97.449548,76.0397095 98.2454287,76.2935309"/><path id="Fill-26" fill="#759684" d="M79.3079855,65.5510776 C82.3839568,63.496845 86.7699047,63.3548771 90.5040909,65.5209632 C94.236126,67.6892003 96.2623952,71.5545992 95.9677042,75.2221034 C92.8917329,77.276336 88.505785,77.4204549 84.7715989,75.2522178 C81.0395638,73.0839807 79.0132946,69.2207328 79.3079855,65.5510776"/><path id="Fill-27" fill="#87AF9A" d="M79.3079855,65.5510776 C82.3839568,63.496845 86.7699047,63.3548771 90.5040909,65.5209632 C94.236126,67.6892003 96.2623952,71.5545992 95.9677042,75.2221034 L79.3079855,65.5510776 Z"/><path id="Fill-28" fill="#759684" d="M112.683565,65.5510776 C109.607593,63.496845 105.221646,63.3548771 101.487459,65.5209632 C97.7554243,67.6892003 95.7291551,71.5545992 96.0238461,75.2221034 C99.0998174,77.276336 103.485765,77.4204549 107.219951,75.2522178 C110.951987,73.0839807 112.978256,69.2207328 112.683565,65.5510776"/><path id="Fill-29" fill="#87AF9A" d="M112.683565,65.5510776 C109.607593,63.496845 105.221646,63.3548771 101.487459,65.5209632 C97.7554243,67.6892003 95.7291551,71.5545992 96.0238461,75.2221034 L112.683565,65.5510776 Z"/><path id="Fill-30" fill="#759684" d="M93.6661033,68.2271726 L93.6661033,76.3214943 C90.9192394,77.2206243 87.6496755,76.9216313 84.7715989,75.2481309 C81.0352617,73.0841958 79.0111435,69.2187969 79.3058345,65.5555947 C82.3818058,63.4992111 86.7699047,63.3529411 90.5062419,65.5168762 C91.7602917,66.2546791 92.8315041,67.1839236 93.6661033,68.2271726"/><path id="Fill-31" fill="#87AF9A" d="M93.6661033,68.2271726 L93.6661033,73.8843786 L79.3058345,65.5555947 C82.3818058,63.4992111 86.7699047,63.3529411 90.5062419,65.5168762 C91.7602917,66.2546791 92.8315041,67.1839236 93.6661033,68.2271726"/><path id="Fill-32" fill="#759684" d="M107.220812,75.2474856 C104.316923,76.9381943 101.021547,77.2307342 98.2445683,76.2928856 L98.2445683,68.3082664 C99.1071309,67.2262989 100.195551,66.2733931 101.48832,65.5183819 C105.224657,63.3544469 109.602001,63.4985658 112.680123,65.5549494 C112.981267,69.2181516 110.948545,73.0835505 107.220812,75.2474856"/><path id="Fill-33" fill="#87AF9A" d="M112.680984,65.5553796 L98.2454287,73.9293351 L98.2454287,68.3086966 C99.1058403,67.2267291 100.196412,66.2738233 101.487029,65.5166611 C105.225517,63.3548771 109.602861,63.498996 112.680984,65.5553796"/><path id="Fill-34" fill="#847264" d="M88.0024443,85.7653715 L104.625595,85.7653715 C104.625595,84.0574545 103.231729,82.6721919 101.508755,82.6721919 C101.181798,82.6721919 100.87205,82.7367228 100.577359,82.8292171 C99.6395105,81.4891261 98.0821656,80.6093552 96.3140199,80.6093552 C94.5458741,80.6093552 92.9906802,81.4891261 92.0528317,82.8292171 C91.7559897,82.7367228 91.4462415,82.6721919 91.1192851,82.6721919 C89.398462,82.6721919 88.0024443,84.0574545 88.0024443,85.7653715"/><path id="Fill-35" fill="#F3FCFF" d="M142.011338,57.6611036 L142.011338,59.4808741 C142.011338,62.3524976 139.662414,64.6842129 136.76928,64.6842129 L54.1611673,64.6842129 C51.2443721,64.6842129 48.9212609,62.3524976 48.9212609,59.4808741 L48.9212609,57.6611036 L53.9051949,57.6611036 L53.9051949,58.2504855 C53.9051949,59.6077848 55.9680315,60.7112626 58.5492662,60.7112626 L131.864935,60.7112626 C134.422508,60.7112626 136.513308,59.6077848 136.513308,58.2504855 L136.513308,57.6611036 L142.011338,57.6611036 Z"/></g></g></g></svg>