<svg xmlns="http://www.w3.org/2000/svg" xmlns:xlink="http://www.w3.org/1999/xlink" width="1440" height="96" version="1.1" viewBox="0 0 1440 96"><title>dark-weave</title><desc>Created with Sketch.</desc><g id="Habitat-SaaS-Home-&amp;-Pricing/desktop" fill="none" fill-rule="evenodd" stroke="none" stroke-width="1"><g id="Pricing-(desktop)-V2" transform="translate(0.000000, -549.000000)"><g id="dark-weave" transform="translate(0.000000, 549.000000)"><rect id="bg" width="1440" height="18" x="0" y="78" fill="#243442"/><path id="hill-middle" fill="#253442" fill-opacity=".6" d="M0,62.8233779 C32.3016029,62.8233779 61.0449828,61.4734165 87.0604336,59.209684 C222.074938,47.461407 283.615861,11.1017734 387.742279,11.1017734 C511.932434,11.1017734 528.111794,49.2522632 799.993768,50.1921815 C1071.87574,51.1320997 1138.03811,0 1440,0 L1440,78 L0,78 L0,62.8233779 Z"/><path id="hill-back" fill="#253442" fill-opacity=".6" d="M1440,51 C1240.06014,51 1219.9813,33.1205163 1029.11534,26.2888806 C838.249382,19.4572449 767.439787,55.7682499 573.375232,51.6577867 C379.310676,47.5473235 189.944325,1.11413811 0,0 L0,78 L1440,78 L1440,51 Z"/><path id="hill-front" fill="#253442" d="M410.992188,56.4673728 C513.890625,56.3112608 594.898438,65.2712695 866.851563,65.5444655 C1138.80469,65.8176616 1250.00597,47.3986429 1440,47 L1440,78 L0,78 C0,78 4.54747351e-13,65.5444655 0,47 C47.5742188,47 367.468149,56.5334051 410.992188,56.4673728 Z"/></g></g></g></svg>