<svg xmlns="http://www.w3.org/2000/svg" xmlns:xlink="http://www.w3.org/1999/xlink" width="1440" height="450" version="1.1" viewBox="0 0 1440 450"><title>bg</title><desc>Created with Sketch.</desc><defs><linearGradient id="linearGradient-1" x1="50%" x2="50%" y1="97.415%" y2="0%"><stop offset="0%" stop-color="#6F8E92"/><stop offset="100%" stop-color="#87B09A"/></linearGradient></defs><g id="Symbols" fill="none" fill-rule="evenodd" stroke="none" stroke-width="1"><g id="footer/desktop"><g id="bg"><rect width="1440" height="400" x="0" y="50" fill="url(#linearGradient-1)"/><g id="background-hills" fill="#87B09A"><path id="hill-back" fill-opacity=".731" d="M1440,34.4648486 C1240.06014,34.4648486 1219.9813,23.5326122 1029.11534,19.5036988 C838.249382,15.4747854 767.439787,36.8889679 573.375232,34.4648486 C379.310676,32.0407293 189.944325,4.65705581 0,4 L0,50 L1440,50 L1440,34.4648486 Z"/><path id="hill-middle" fill-opacity=".731" d="M0,41.0725753 C32.3016029,41.0725753 61.0449828,40.2784803 87.0604336,38.946873 C222.074938,32.0361218 283.615861,10.648102 387.742279,10.648102 C511.932434,10.648102 528.111794,33.0895666 799.993768,33.6424597 C1071.87574,34.1953528 1138.03811,-16.3005412 1440,5.43748819 L1440,50 L0,50 L0,41.0725753 Z"/><path id="hill-front" d="M410.992188,37.4971842 C513.890625,37.4065385 594.898438,42.6091242 866.851563,42.7677542 C1138.80469,42.9263841 1250.00597,32.2314701 1440,32 L1440,50 L0,50 C0,50 308.09375,37.5878299 410.992188,37.4971842 Z"/></g></g></g></g></svg>