<svg xmlns="http://www.w3.org/2000/svg" xmlns:xlink="http://www.w3.org/1999/xlink" width="1440" height="323" version="1.1" viewBox="0 0 1440 323"><title>polygons</title><desc>Created with Sketch.</desc><defs><linearGradient id="linearGradient-1" x1="35.333%" x2="35.333%" y1="14.667%" y2="82.436%"><stop offset="0%" stop-color="#65B0CB" stop-opacity=".96"/><stop offset="100%" stop-color="#B2EBFF"/></linearGradient></defs><g id="Habitat-Web-UI/Global-Nav-Pages/desktop" fill="none" fill-rule="evenodd" stroke="none" stroke-width="1"><g id="Habitat-Web---Tutorials---V2" fill-rule="nonzero" transform="translate(0.000000, -1288.000000)"><g id="polygon" transform="translate(720.000000, 1449.500000) rotate(180.000000) translate(-720.000000, -1449.500000) translate(0.000000, 1288.000000)"><polygon id="polygon_bg" fill="url(#linearGradient-1)" points="1292 13.82 1154 7.77 1116 30.23 1048 50.09 970 4.32 898 25.91 816 16.41 766 25.91 722 38 678 31.09 568 35.41 482 6.91 430 31.09 368 15.54 270 0 202 18.14 112 38.86 0 31.09 0 74.27 0 117.02 0 160.21 0 203.39 0 246.57 0 289.32 84 304 152 309.18 186 314.36 316 312.64 414 302.27 446 288.45 538 294.5 594 309.18 704 292.77 798 315.23 918 268.59 946 272.91 986 285.86 1034 283.27 1128 323 1250 278.95 1300 291.91 1440 289.32 1440 246.57 1440 203.39 1440 160.21 1440 117.02 1440 74.27 1440 31.09"/><g style="mix-blend-mode:luminosity" id="Shape"><polygon fill="#5F8B81" points="0 31.059 0 74.192 14 66.43"/><polygon fill="#6EA090" points="0 116.891 0 160.024 66 130.264"/><polygon fill="#6C9D8D" points="0 116.891 66 130.264 70 124.226"/><polygon fill="#77AE99" points="0 160.024 0 203.158 100 182.885"/><polygon fill="#75AA96" points="92 168.223 0 160.024 100 182.885"/><polygon fill="#72A693" points="66 130.264 0 160.024 92 168.223"/><polygon fill="#7EB9A0" points="0 203.158 0 246.292 106 216.531"/><polygon fill="#6A9B8C" points="0 116.891 70 124.226 112 107.839"/><polygon fill="#5D887F" points="0 31.059 14 66.43 112 38.821"/><polygon fill="#7BB39C" points="100 182.885 0 203.158 106 216.531"/><polygon fill="#68968A" points="0 74.192 0 116.891 112 107.839"/><polygon fill="#5E8B81" points="112 38.821 14 66.43 118 62.109"/><polygon fill="#639185" points="14 66.43 112 107.839 118 62.109"/><polygon fill="#649286" points="14 66.43 0 74.192 112 107.839"/><polygon fill="#81BCA2" points="106 216.531 0 246.292 150 237.231"/><polygon fill="#8AC8AB" points="0 246.292 0 288.999 84 303.661"/><polygon fill="#5E8880" points="112 38.821 118 62.109 158 47.446"/><polygon fill="#87C4A8" points="0 246.292 84 303.661 150 237.231"/><polygon fill="#76AB97" points="92 168.223 100 182.885 188 166.498"/><polygon fill="#76AC98" points="100 182.885 186 178.573 188 166.498"/><polygon fill="#6C9D8D" points="70 124.226 66 130.264 112 107.839"/><polygon fill="#7FB9A0" points="106 216.531 150 237.231 198 215.669"/><polygon fill="#73A794" points="92 168.223 188 166.498 204 150.101"/><polygon fill="#5B857C" points="112 38.821 158 47.446 202 18.113"/><polygon fill="#659386" points="118 62.109 112 107.839 206 90.58"/><polygon fill="#71A493" points="66 130.264 92 168.223 204 150.101"/><polygon fill="#79B19B" points="100 182.885 106 216.531 186 178.573"/><polygon fill="#6D9E8E" points="112 107.839 66 130.264 204 150.101"/><polygon fill="#7CB39D" points="186 178.573 106 216.531 198 215.669"/><polygon fill="#618D83" points="158 47.446 118 62.109 206 90.58"/><polygon fill="#8CCAAB" points="150 237.231 84 303.661 152 308.836"/><polygon fill="#82BCA3" points="198 215.669 150 237.231 216 246.728"/><polygon fill="#628E84" points="158 47.446 206 90.58 236 74.192"/><polygon fill="#88C5A9" points="150 237.231 152 308.836 216 246.728"/><polygon fill="#6A9B8C" points="112 107.839 204 150.101 206 90.58"/><polygon fill="#7AB09B" points="186 178.573 198 215.669 260 186.335"/><polygon fill="#76AD97" points="188 166.498 186 178.573 260 186.335"/><polygon fill="#74AA96" points="204 150.101 188 166.498 260 186.335"/><polygon fill="#5D877F" points="202 18.113 158 47.446 236 74.192"/><polygon fill="#8CCCAC" points="152 308.836 186 314.011 216 246.728"/><polygon fill="#81BBA2" points="198 215.669 216 246.728 298 226.019"/><polygon fill="#75A996" points="204 150.101 260 186.335 308 168.223"/><polygon fill="#7CB49D" points="260 186.335 198 215.669 298 226.019"/><polygon fill="#76AC98" points="308 168.223 260 186.335 316 175.985"/><polygon fill="#8CCCAD" points="216 246.728 186 314.011 316 312.286"/><polygon fill="#5D877F" points="202 18.113 236 74.192 354 52.621"/><polygon fill="#6A9B8C" points="206 90.58 204 150.101 360 106.105"/><polygon fill="#669487" points="236 74.192 206 90.58 360 106.105"/><polygon fill="#59827B" points="270 0 202 18.113 354 52.621"/><polygon fill="#7BB29B" points="260 186.335 298 226.019 316 175.985"/><polygon fill="#59827B" points="270 0 354 52.621 368 15.525"/><polygon fill="#6FA290" points="204 150.101 308 168.223 360 106.105"/><polygon fill="#639185" points="354 52.621 236 74.192 360 106.105"/><polygon fill="#87C4A8" points="298 226.019 216 246.728 316 312.286"/><polygon fill="#88C5A9" points="298 226.019 316 312.286 408 265.703"/><polygon fill="#8DCCAE" points="408 265.703 316 312.286 414 301.936"/><polygon fill="#83BFA3" points="298 226.019 408 265.703 424 235.506"/><polygon fill="#5B857D" points="368 15.525 354 52.621 428 40.546"/><polygon fill="#59837C" points="368 15.525 428 40.546 430 31.059"/><polygon fill="#7BB29C" points="316 175.985 298 226.019 440 191.51"/><polygon fill="#8CCAAD" points="408 265.703 414 301.936 446 288.136"/><polygon fill="#7EB7A0" points="298 226.019 424 235.506 440 191.51"/><polygon fill="#5B857E" points="430 31.059 428 40.546 466 42.271"/><polygon fill="#669487" points="354 52.621 360 106.105 434 106.968"/><polygon fill="#5E8981" points="466 42.271 428 40.546 488 74.192"/><polygon fill="#5F8A81" points="428 40.546 354 52.621 488 74.192"/><polygon fill="#639185" points="354 52.621 434 106.968 488 74.192"/><polygon fill="#77AD98" points="308 168.223 316 175.985 440 191.51"/><polygon fill="#6D9F8F" points="360 106.105 308 168.223 434 106.968"/><polygon fill="#5E8B81" points="466 42.271 488 74.192 488 45.721"/><polygon fill="#73A694" points="434 106.968 308 168.223 440 191.51"/><polygon fill="#5F8B82" points="488 45.721 488 74.192 508 54.346"/><polygon fill="#59837B" points="430 31.059 466 42.271 482 6.9"/><polygon fill="#5C867E" points="466 42.271 488 45.721 512 40.546"/><polygon fill="#618D83" points="488 74.192 506 71.605 508 54.346"/><polygon fill="#79AF9A" points="510 182.023 440 191.51 520 199.281"/><polygon fill="#5D8880" points="488 45.721 508 54.346 512 40.546"/><polygon fill="#7CB69E" points="440 191.51 424 235.506 520 199.281"/><polygon fill="#5A837B" points="482 6.9 466 42.271 512 40.546"/><polygon fill="#74A895" points="434 106.968 440 191.51 510 182.023"/><polygon fill="#639086" points="556 71.605 506 71.605 558 90.58"/><polygon fill="#669488" points="488 74.192 434 106.968 558 90.58"/><polygon fill="#639085" points="506 71.605 488 74.192 558 90.58"/><polygon fill="#618D83" points="508 54.346 506 71.605 556 71.605"/><polygon fill="#5D877E" points="512 40.546 508 54.346 568 35.371"/><polygon fill="#5A837B" points="482 6.9 512 40.546 568 35.371"/><polygon fill="#87C4A8" points="424 235.506 408 265.703 446 288.136"/><polygon fill="#5F8A81" points="508 54.346 556 71.605 568 35.371"/><polygon fill="#89C6AA" points="424 235.506 446 288.136 538 294.174"/><polygon fill="#87C4A8" points="424 235.506 538 294.174 612 263.978"/><polygon fill="#82BDA3" points="592 214.806 424 235.506 612 263.978"/><polygon fill="#7EB89F" points="520 199.281 424 235.506 592 214.806"/><polygon fill="#8CCBAD" points="538 294.174 594 308.836 612 263.978"/><polygon fill="#6C9E8E" points="434 106.968 510 182.023 558 90.58"/><polygon fill="#7AB09A" points="510 182.023 520 199.281 648 195.831"/><polygon fill="#7BB39D" points="520 199.281 592 214.806 648 195.831"/><polygon fill="#6FA291" points="558 90.58 510 182.023 654 145.789"/><polygon fill="#76AB97" points="510 182.023 648 195.831 654 145.789"/><polygon fill="#8CCAAC" points="612 263.978 594 308.836 704 292.449"/><polygon fill="#5C877F" points="568 35.371 556 71.605 678 31.059"/><polygon fill="#83BFA4" points="592 214.806 612 263.978 704 251.903"/><polygon fill="#86C2A7" points="704 251.903 612 263.978 716 260.528"/><polygon fill="#89C6AA" points="612 263.978 704 292.449 716 260.528"/><polygon fill="#7FB8A0" points="648 195.831 592 214.806 704 251.903"/><polygon fill="#69998B" points="558 90.58 654 145.789 754 88.855"/><polygon fill="#659286" points="556 71.605 558 90.58 754 88.855"/><polygon fill="#608C83" points="678 31.059 556 71.605 754 88.855"/><polygon fill="#5E8980" points="722 37.959 678 31.059 754 88.855"/><polygon fill="#75AB97" points="654 145.789 648 195.831 768 173.398"/><polygon fill="#5B857D" points="722 37.959 756 42.271 766 25.884"/><polygon fill="#7FB8A0" points="648 195.831 704 251.903 778 216.531"/><polygon fill="#5F8B81" points="722 37.959 754 88.855 756 42.271"/><polygon fill="#7AB29B" points="768 173.398 648 195.831 778 216.531"/><polygon fill="#85C1A6" points="704 251.903 716 260.528 802 239.819"/><polygon fill="#81BDA3" points="778 216.531 704 251.903 802 239.819"/><polygon fill="#5F8C82" points="756 42.271 754 88.855 786 48.309"/><polygon fill="#80BAA1" points="778 216.531 802 239.819 804 222.569"/><polygon fill="#5B857E" points="766 25.884 756 42.271 786 48.309"/><polygon fill="#86C3A7" points="802 239.819 716 260.528 830 275.19"/><polygon fill="#89C7AA" points="716 260.528 704 292.449 830 275.19"/><polygon fill="#8DCDAD" points="704 292.449 798 314.874 830 275.19"/><polygon fill="#5A837C" points="766 25.884 786 48.309 816 16.388"/><polygon fill="#6FA091" points="754 88.855 654 145.789 768 173.398"/><polygon fill="#86C3A6" points="802 239.819 830 275.19 848 252.765"/><polygon fill="#7AB09B" points="768 173.398 778 216.531 868 184.61"/><polygon fill="#7CB49E" points="778 216.531 804 222.569 868 184.61"/><polygon fill="#6FA08F" points="754 88.855 768 173.398 884 141.476"/><polygon fill="#81BCA2" points="804 222.569 802 239.819 892 234.644"/><polygon fill="#83BFA3" points="802 239.819 848 252.765 892 234.644"/><polygon fill="#5A847C" points="816 16.388 786 48.309 898 25.884"/><polygon fill="#74A996" points="768 173.398 868 184.61 884 141.476"/><polygon fill="#88C5A8" points="848 252.765 830 275.19 918 268.29"/><polygon fill="#7DB79E" points="868 184.61 804 222.569 892 234.644"/><polygon fill="#5C867E" points="898 25.884 786 48.309 932 43.996"/><polygon fill="#85C1A6" points="892 234.644 848 252.765 918 268.29"/><polygon fill="#83BFA4" points="914 234.644 892 234.644 918 268.29"/><polygon fill="#7EB89F" points="868 184.61 892 234.644 914 234.644"/><polygon fill="#5F8C82" points="786 48.309 754 88.855 932 43.996"/><polygon fill="#8CCBAD" points="830 275.19 798 314.874 918 268.29"/><polygon fill="#88C5A9" points="918 268.29 946 272.603 984 259.665"/><polygon fill="#83BFA3" points="978 232.056 914 234.644 984 259.665"/><polygon fill="#85C2A6" points="914 234.644 918 268.29 984 259.665"/><polygon fill="#669487" points="754 88.855 884 141.476 932 43.996"/><polygon fill="#5A837B" points="898 25.884 932 43.996 970 4.313"/><polygon fill="#89C7AA" points="984 259.665 946 272.603 986 285.54"/><polygon fill="#679588" points="932 43.996 884 141.476 1014 90.58"/><polygon fill="#7EB7A0" points="868 184.61 914 234.644 978 232.056"/><polygon fill="#628E84" points="932 43.996 1014 90.58 1024 69.88"/><polygon fill="#84C0A5" points="978 232.056 984 259.665 1016 257.078"/><polygon fill="#88C6A9" points="1016 257.078 1034 282.961 1042 264.84"/><polygon fill="#89C7AA" points="1016 257.078 986 285.54 1034 282.961"/><polygon fill="#88C5A9" points="984 259.665 986 285.54 1016 257.078"/><polygon fill="#5F8A81" points="932 43.996 1024 69.88 1048 50.034"/><polygon fill="#5B847C" points="970 4.313 932 43.996 1048 50.034"/><polygon fill="#6B9C8C" points="1014 90.58 884 141.476 1072 118.189"/><polygon fill="#7BB39D" points="868 184.61 1058 213.944 1076 201.006"/><polygon fill="#7DB59E" points="868 184.61 978 232.056 1058 213.944"/><polygon fill="#82BDA3" points="978 232.056 1016 257.078 1058 213.944"/><polygon fill="#76AB97" points="884 141.476 868 184.61 1076 201.006"/><polygon fill="#74AA96" points="884 141.476 1076 201.006 1100 161.322"/><polygon fill="#71A492" points="1096 135.439 884 141.476 1100 161.322"/><polygon fill="#6D9F8F" points="1072 118.189 884 141.476 1096 135.439"/><polygon fill="#83BFA4" points="1016 257.078 1042 264.84 1058 213.944"/><polygon fill="#6D9E8E" points="1072 118.189 1096 135.439 1128 129.401"/><polygon fill="#639185" points="1024 69.88 1014 90.58 1140 82.818"/><polygon fill="#679588" points="1014 90.58 1072 118.189 1140 82.818"/><polygon fill="#628E83" points="1048 50.034 1024 69.88 1140 82.818"/><polygon fill="#6FA391" points="1096 135.439 1100 161.322 1128 129.401"/><polygon fill="#5C877F" points="1116 30.196 1048 50.034 1174 56.934"/><polygon fill="#618D82" points="1048 50.034 1140 82.818 1174 56.934"/><polygon fill="#6A998C" points="1072 118.189 1128 129.401 1140 82.818"/><polygon fill="#77AD99" points="1100 161.322 1076 201.006 1194 179.435"/><polygon fill="#82BDA3" points="1058 213.944 1042 264.84 1206 237.231"/><polygon fill="#7DB79F" points="1076 201.006 1058 213.944 1206 237.231"/><polygon fill="#72A693" points="1128 129.401 1100 161.322 1194 179.435"/><polygon fill="#5A847C" points="1154 7.763 1116 30.196 1174 56.934"/><polygon fill="#8DCCAD" points="1042 264.84 1034 282.961 1128 322.636"/><polygon fill="#7CB49D" points="1194 179.435 1076 201.006 1206 237.231"/><polygon fill="#8CCBAD" points="1042 264.84 1128 322.636 1250 278.64"/><polygon fill="#87C4A7" points="1206 237.231 1042 264.84 1250 278.64"/><polygon fill="#85C2A6" points="1234 249.315 1206 237.231 1250 278.64"/><polygon fill="#5B847C" points="1154 7.763 1174 56.934 1296 36.234"/><polygon fill="#58807A" points="1292 13.8 1154 7.763 1296 36.234"/><polygon fill="#83BEA3" points="1206 237.231 1234 249.315 1310 229.469"/><polygon fill="#72A593" points="1128 129.401 1194 179.435 1316 151.835"/><polygon fill="#5E8981" points="1296 36.234 1174 56.934 1326 62.109"/><polygon fill="#7EB79F" points="1194 179.435 1206 237.231 1310 229.469"/><polygon fill="#87C4A7" points="1234 249.315 1250 278.64 1342 253.628"/><polygon fill="#83BFA4" points="1310 229.469 1234 249.315 1342 253.628"/><polygon fill="#89C7AA" points="1250 278.64 1300 291.586 1342 253.628"/><polygon fill="#618D83" points="1174 56.934 1140 82.818 1326 62.109"/><polygon fill="#6C9D8E" points="1140 82.818 1128 129.401 1316 151.835"/><polygon fill="#618C82" points="1358 58.659 1326 62.109 1366 60.384"/><polygon fill="#5E8981" points="1296 36.234 1326 62.109 1358 58.659"/><polygon fill="#68968A" points="1140 82.818 1316 151.835 1326 62.109"/><polygon fill="#79AF9A" points="1194 179.435 1310 229.469 1316 151.835"/><polygon fill="#77AD98" points="1316 151.835 1310 229.469 1366 153.551"/><polygon fill="#88C6A9" points="1342 253.628 1300 291.586 1418 260.528"/><polygon fill="#7AB29B" points="1366 153.551 1310 229.469 1440 203.158"/><polygon fill="#8BC9AB" points="1418 260.528 1300 291.586 1440 288.999"/><polygon fill="#5D877E" points="1296 36.234 1358 58.659 1440 31.059"/><polygon fill="#59827B" points="1292 13.8 1296 36.234 1440 31.059"/><polygon fill="#5D8880" points="1358 58.659 1366 60.384 1440 31.059"/><polygon fill="#5F8A81" points="1440 31.059 1366 60.384 1440 74.192"/><polygon fill="#649186" points="1366 60.384 1326 62.109 1440 116.891"/><polygon fill="#6FA291" points="1316 151.835 1366 153.551 1440 116.891"/><polygon fill="#69998B" points="1326 62.109 1316 151.835 1440 116.891"/><polygon fill="#659287" points="1440 74.192 1366 60.384 1440 116.891"/><polygon fill="#70A291" points="1440 116.891 1366 153.551 1440 160.024"/><polygon fill="#75AB97" points="1366 153.551 1440 203.158 1440 160.024"/><polygon fill="#85C2A6" points="1342 253.628 1418 260.528 1440 246.292"/><polygon fill="#80BAA1" points="1440 203.158 1310 229.469 1440 246.292"/><polygon fill="#83BFA4" points="1310 229.469 1342 253.628 1440 246.292"/><polygon fill="#88C5A9" points="1418 260.528 1440 288.999 1440 246.292"/></g></g></g></g></svg>