<svg xmlns="http://www.w3.org/2000/svg" xmlns:xlink="http://www.w3.org/1999/xlink" width="19" height="15" version="1.1" viewBox="0 0 19 15"><desc>Created with Sketch.</desc><g id="Page-1" fill="none" fill-rule="evenodd" stroke="none" stroke-width="1"><g id="sprout" fill-rule="nonzero"><path id="Shape" fill="#BADB8D" d="M7.91666667,6.43995535 C7.91744571,6.67678995 7.91744571,6.67678995 7.92056228,7.63965366 C7.92445802,8.85478403 7.92640583,9.47003387 7.92913279,10.3529367 C7.92978275,10.5636709 7.92978275,10.5636709 7.9304306,10.7749984 C7.93744801,13.067741 7.94159176,14.5975987 7.94159176,15 L11.0833333,15 C11.0833333,14.5921174 11.079194,13.0638684 11.0721559,10.7644059 C11.0715079,10.5530281 11.0715079,10.5530281 11.0708578,10.3422476 C11.0681304,9.45917794 11.0661822,8.84381381 11.0622859,7.62851116 C11.0591689,6.66550544 11.0591689,6.66550544 11.0583895,6.42857143 L7.91666667,6.43995535 Z"/><path id="Shape" fill="#9ECB95" d="M0.00642500016,0.899153203 C1.95790587,-0.299717734 4.42867878,-0.299717734 6.38015964,0.899153203 C8.39233354,1.99699901 9.59934546,4.12893988 9.493575,6.39836767 C7.54209413,7.5972386 5.07132122,7.5972386 3.11984036,6.39836767 C1.10766647,5.30052186 -0.0993454628,3.16858099 0.00642500016,0.899153203 L0.00642500016,0.899153203 Z"/><path id="Shape" fill="#B9DA8D" d="M0,0.899153203 C1.95280157,-0.299717734 4.42524664,-0.299717734 6.37804822,0.899153203 C8.39158389,1.99699901 9.5994127,4.12893988 9.49357065,6.39836767 L0,0.899153203 Z"/><path id="Shape" fill="#9ECB95" d="M9.50642495,0.899153203 C11.4579058,-0.299717734 13.9286787,-0.299717734 15.8801596,0.899153203 C17.8923335,1.99699901 19.0993455,4.12893988 18.993575,6.39836767 C17.0420941,7.5972386 14.5713212,7.5972386 12.6198403,6.39836767 C10.6076664,5.30052186 9.4006545,3.16858099 9.50642495,0.899153203 L9.50642495,0.899153203 Z" transform="translate(14.250000, 3.648760) scale(-1, 1) translate(-14.250000, -3.648760)"/><path id="Shape" fill="#B9DA8D" d="M9.50000004,0.899153203 C11.4528016,-0.299717734 13.9252467,-0.299717734 15.8780483,0.899153203 C17.891584,1.99699901 19.0994127,4.12893988 18.9935707,6.39836767 L9.50000004,0.899153203 Z" transform="translate(14.250000, 3.199184) scale(-1, 1) translate(-14.250000, -3.199184)"/></g></g></svg>