<svg xmlns="http://www.w3.org/2000/svg" xmlns:xlink="http://www.w3.org/1999/xlink" width="376" height="143" version="1.1" viewBox="0 0 376 143"><title>illustration</title><desc>Created with Sketch.</desc><defs><linearGradient id="linearGradient-1" x1="49.997%" x2="49.997%" y1="100%" y2="-.401%"><stop offset="0%" stop-color="#2F789F"/><stop offset="100%" stop-color="#70C2B2"/></linearGradient><linearGradient id="linearGradient-2" x1="218.633%" x2="606.259%" y1="14845%" y2="4777%"><stop offset="0%" stop-color="#2F789F"/><stop offset="100%" stop-color="#70C2B2"/></linearGradient><polygon id="path-3" points=".001 18.474 21.099 18.474 21.099 .109 .001 .109"/><polygon id="path-5" points="0 34.597 21.099 34.597 21.099 0 0 0"/><polygon id="path-7" points=".001 18.474 21.099 18.474 21.099 .109 .001 .109"/><polygon id="path-9" points="0 34.597 21.099 34.597 21.099 0 0 0"/><polygon id="path-11" points=".001 18.474 21.099 18.474 21.099 .109 .001 .109"/><polygon id="path-13" points="0 34.597 21.099 34.597 21.099 0 0 0"/></defs><g id="Habitat-Web-App/Origins" fill="none" fill-rule="evenodd" stroke="none" stroke-width="1"><g id="docs-with-download-link" transform="translate(-401.000000, -189.000000)"><g id="illustration" transform="translate(401.000000, 189.000000)"><path id="terminal-bg" fill="#243442" d="M5.65429688,0 L370.125,0 L370.125,0 C372.886424,-5.07265313e-16 375.125,2.23857625 375.125,5 L375.125,130.5 L375.125,130.5 C375.125,133.261424 372.886424,135.5 370.125,135.5 L5.65429688,135.5 L5.65429688,135.5 C2.89287313,135.5 0.654296875,133.261424 0.654296875,130.5 L0.654296875,5 L0.654296875,5 C0.654296875,2.23857625 2.89287313,7.61269267e-15 5.65429687,7.10542736e-15 Z" transform="translate(187.889648, 67.750000) scale(-1, 1) translate(-187.889648, -67.750000)"/><g id="control" fill="#627B8F" transform="translate(8.865842, 10.415117)"><g id="Group-5" transform="translate(0.443359, 0.687500)"><ellipse id="Oval-3" cx="3.759" cy="3.808" rx="3.759" ry="3.808"/><ellipse id="Oval-3-Copy" cx="15.607" cy="3.808" rx="3.759" ry="3.808"/><ellipse id="Oval-3-Copy-2" cx="27.455" cy="3.808" rx="3.759" ry="3.808"/></g></g><text id="#-Your-fastest-path" fill="#FFF" font-family="SourceCodePro-Medium, Source Code Pro" font-size="14" font-weight="400"><tspan x="23.866" y="48.906"># Your fastest path from </tspan> <tspan x="23.866" y="66.906">Code to Cloud Native.</tspan></text><g id="Group-2" transform="translate(244.865842, 26.000000)"><g id="supervise" fill-rule="nonzero"><polygon id="Shape" fill="url(#linearGradient-1)" points="106.727 96.92 96.864 92.826 87.758 94.755 77.392 93.912 71.071 94.755 65.506 95.841 59.942 95.221 46.028 95.605 35.154 93.062 28.578 95.221 20.738 93.831 18.97 97.15 4.045 99.079 .254 100.543 0 105.872 7.084 109.11 11.885 112.658 27.822 113.508 51.593 116.051 64.743 115.747 75.624 113.893 81.436 115.053 87.001 113.433 89.786 113.433 97.875 113.198 107.993 111.579 110.269 110.419 113.303 106.87 116.845 104.017 118.365 99.848"/><polygon id="Shape" fill="url(#linearGradient-2)" points="106.727 92.634 96.864 88.546 87.758 90.475 77.392 89.625 71.071 90.475 65.506 91.555 59.942 90.94 46.028 91.325 35.154 88.775 28.578 90.94 20.738 89.551 18.97 92.87 4.045 94.799 .254 96.263 0 101.585 7.084 104.83 11.885 108.378 27.822 109.228 51.593 111.771 64.743 111.461 75.624 109.612 81.436 110.766 87.001 109.147 89.786 109.147 97.875 108.917 107.993 107.298 110.269 106.138 113.303 102.59 116.845 99.737 118.365 95.568"/><g style="mix-blend-mode:luminosity" id="Group" transform="translate(0.000000, 88.465330)"><polygon id="Shape" fill="#75A996" points="0 13.12 7.084 16.364 13.151 14.739"/><polygon id="Shape" fill="#76AC98" points="13.151 14.739 7.084 16.364 14.162 15.434"/><polygon id="Shape" fill="#6A9B8C" points=".254 7.798 0 13.12 19.726 9.187"/><polygon id="Shape" fill="#669487" points="4.045 6.334 .254 7.798 19.726 9.187"/><polygon id="Shape" fill="#7BB29B" points="7.084 16.364 11.885 19.912 14.162 15.434"/><polygon id="Shape" fill="#6FA290" points="0 13.12 13.151 14.739 19.726 9.187"/><polygon id="Shape" fill="#639185" points="18.97 4.404 4.045 6.334 19.726 9.187"/><polygon id="Shape" fill="#5B857D" points="20.738 1.086 18.97 4.404 28.324 3.325"/><polygon id="Shape" fill="#59837C" points="20.738 1.086 28.324 3.325 28.578 2.475"/><polygon id="Shape" fill="#7BB29C" points="14.162 15.434 11.885 19.912 29.844 16.823"/><polygon id="Shape" fill="#7EB7A0" points="11.885 19.912 27.822 20.762 29.844 16.823"/><polygon id="Shape" fill="#5B857E" points="28.578 2.475 28.324 3.325 33.132 3.474"/><polygon id="Shape" fill="#669487" points="18.97 4.404 19.726 9.187 29.087 9.261"/><polygon id="Shape" fill="#5E8981" points="33.132 3.474 28.324 3.325 35.917 6.334"/><polygon id="Shape" fill="#5F8A81" points="28.324 3.325 18.97 4.404 35.917 6.334"/><polygon id="Shape" fill="#639185" points="18.97 4.404 29.087 9.261 35.917 6.334"/><polygon id="Shape" fill="#77AD98" points="13.151 14.739 14.162 15.434 29.844 16.823"/><polygon id="Shape" fill="#6D9F8F" points="19.726 9.187 13.151 14.739 29.087 9.261"/><polygon id="Shape" fill="#5E8B81" points="33.132 3.474 35.917 6.334 35.917 3.784"/><polygon id="Shape" fill="#73A694" points="29.087 9.261 13.151 14.739 29.844 16.823"/><polygon id="Shape" fill="#5F8B82" points="35.917 3.784 35.917 6.334 38.442 4.553"/><polygon id="Shape" fill="#59837B" points="28.578 2.475 33.132 3.474 35.154 .31"/><polygon id="Shape" fill="#5C867E" points="33.132 3.474 35.917 3.784 38.95 3.325"/><polygon id="Shape" fill="#618D83" points="35.917 6.334 38.187 6.098 38.442 4.553"/><polygon id="Shape" fill="#79AF9A" points="38.696 15.973 29.844 16.823 39.961 17.518"/><polygon id="Shape" fill="#5D8880" points="35.917 3.784 38.442 4.553 38.95 3.325"/><polygon id="Shape" fill="#7CB69E" points="29.844 16.823 27.822 20.762 39.961 17.518"/><polygon id="Shape" fill="#5A837B" points="35.154 .31 33.132 3.474 38.95 3.325"/><polygon id="Shape" fill="#74A895" points="29.087 9.261 29.844 16.823 38.696 15.973"/><polygon id="Shape" fill="#639086" points="44.515 6.098 38.187 6.098 44.763 7.798"/><polygon id="Shape" fill="#669488" points="35.917 6.334 29.087 9.261 44.763 7.798"/><polygon id="Shape" fill="#639085" points="38.187 6.098 35.917 6.334 44.763 7.798"/><polygon id="Shape" fill="#618D83" points="38.442 4.553 38.187 6.098 44.515 6.098"/><polygon id="Shape" fill="#5D877E" points="38.95 3.325 38.442 4.553 46.028 2.86"/><polygon id="Shape" fill="#5A837B" points="35.154 .31 38.95 3.325 46.028 2.86"/><polygon id="Shape" fill="#5F8A81" points="38.442 4.553 44.515 6.098 46.028 2.86"/><polygon id="Shape" fill="#82BDA3" points="49.068 18.908 27.822 20.762 51.593 23.306"/><polygon id="Shape" fill="#7EB89F" points="39.961 17.518 27.822 20.762 49.068 18.908"/><polygon id="Shape" fill="#6C9E8E" points="29.087 9.261 38.696 15.973 44.763 7.798"/><polygon id="Shape" fill="#7AB09A" points="38.696 15.973 39.961 17.518 56.146 17.208"/><polygon id="Shape" fill="#7BB39D" points="39.961 17.518 49.068 18.908 56.146 17.208"/><polygon id="Shape" fill="#6FA291" points="44.763 7.798 38.696 15.973 56.903 12.735"/><polygon id="Shape" fill="#76AB97" points="38.696 15.973 56.146 17.208 56.903 12.735"/><polygon id="Shape" fill="#5C877F" points="46.028 2.86 44.515 6.098 59.942 2.475"/><polygon id="Shape" fill="#83BFA4" points="49.068 18.908 51.593 23.306 63.23 22.226"/><polygon id="Shape" fill="#86C2A7" points="63.23 22.226 51.593 23.306 64.743 22.996"/><polygon id="Shape" fill="#7FB8A0" points="56.146 17.208 49.068 18.908 63.23 22.226"/><polygon id="Shape" fill="#69998B" points="44.763 7.798 56.903 12.735 69.551 7.642"/><polygon id="Shape" fill="#659286" points="44.515 6.098 44.763 7.798 69.551 7.642"/><polygon id="Shape" fill="#608C83" points="59.942 2.475 44.515 6.098 69.551 7.642"/><polygon id="Shape" fill="#5E8980" points="65.506 3.089 59.942 2.475 69.551 7.642"/><polygon id="Shape" fill="#75AB97" points="56.903 12.735 56.146 17.208 71.319 15.204"/><polygon id="Shape" fill="#5B857D" points="65.506 3.089 69.805 3.474 71.071 2.01"/><polygon id="Shape" fill="#7FB8A0" points="56.146 17.208 63.23 22.226 72.584 19.063"/><polygon id="Shape" fill="#5F8B81" points="65.506 3.089 69.551 7.642 69.805 3.474"/><polygon id="Shape" fill="#7AB29B" points="71.319 15.204 56.146 17.208 72.584 19.063"/><polygon id="Shape" fill="#85C1A6" points="63.23 22.226 64.743 22.996 75.624 21.147"/><polygon id="Shape" fill="#81BDA3" points="72.584 19.063 63.23 22.226 75.624 21.147"/><polygon id="Shape" fill="#5F8C82" points="69.805 3.474 69.551 7.642 73.596 4.014"/><polygon id="Shape" fill="#80BAA1" points="72.584 19.063 75.624 21.147 75.872 19.602"/><polygon id="Shape" fill="#5B857E" points="71.071 2.01 69.805 3.474 73.596 4.014"/><polygon id="Shape" fill="#5A837C" points="71.071 2.01 73.596 4.014 77.392 1.16"/><polygon id="Shape" fill="#6FA091" points="69.551 7.642 56.903 12.735 71.319 15.204"/><polygon id="Shape" fill="#7AB09B" points="71.319 15.204 72.584 19.063 83.967 16.209"/><polygon id="Shape" fill="#7CB49E" points="72.584 19.063 75.872 19.602 83.967 16.209"/><polygon id="Shape" fill="#6FA08F" points="69.551 7.642 71.319 15.204 85.99 12.351"/><polygon id="Shape" fill="#81BCA2" points="75.872 19.602 75.624 21.147 87.001 20.682"/><polygon id="Shape" fill="#83BFA3" points="75.624 21.147 81.436 22.301 87.001 20.682"/><polygon id="Shape" fill="#5A847C" points="77.392 1.16 73.596 4.014 87.758 2.01"/><polygon id="Shape" fill="#74A996" points="71.319 15.204 83.967 16.209 85.99 12.351"/><polygon id="Shape" fill="#7DB79E" points="83.967 16.209 75.872 19.602 87.001 20.682"/><polygon id="Shape" fill="#5C867E" points="87.758 2.01 73.596 4.014 92.063 3.629"/><polygon id="Shape" fill="#7EB89F" points="83.967 16.209 87.001 20.682 89.786 20.682"/><polygon id="Shape" fill="#5F8C82" points="73.596 4.014 69.551 7.642 92.063 3.629"/><polygon id="Shape" fill="#669487" points="69.551 7.642 85.99 12.351 92.063 3.629"/><polygon id="Shape" fill="#5A837B" points="87.758 2.01 92.063 3.629 96.864 .081"/><polygon id="Shape" fill="#679588" points="92.063 3.629 85.99 12.351 102.428 7.798"/><polygon id="Shape" fill="#7EB7A0" points="83.967 16.209 89.786 20.682 97.875 20.452"/><polygon id="Shape" fill="#628E84" points="92.063 3.629 102.428 7.798 103.694 5.943"/><polygon id="Shape" fill="#5F8A81" points="92.063 3.629 103.694 5.943 106.727 4.169"/><polygon id="Shape" fill="#5B847C" points="96.864 .081 92.063 3.629 106.727 4.169"/><polygon id="Shape" fill="#6B9C8C" points="102.428 7.798 85.99 12.351 109.761 10.266"/><polygon id="Shape" fill="#7BB39D" points="83.967 16.209 107.993 18.833 110.269 17.673"/><polygon id="Shape" fill="#7DB59E" points="83.967 16.209 97.875 20.452 107.993 18.833"/><polygon id="Shape" fill="#76AB97" points="85.99 12.351 83.967 16.209 110.269 17.673"/><polygon id="Shape" fill="#74AA96" points="85.99 12.351 110.269 17.673 113.303 14.125"/><polygon id="Shape" fill="#71A492" points="112.8 11.811 85.99 12.351 113.303 14.125"/><polygon id="Shape" fill="#6D9F8F" points="109.761 10.266 85.99 12.351 112.8 11.811"/><polygon id="Shape" fill="#6D9E8E" points="109.761 10.266 112.8 11.811 116.845 11.271"/><polygon id="Shape" fill="#639185" points="103.694 5.943 102.428 7.798 118.365 7.103"/><polygon id="Shape" fill="#679588" points="102.428 7.798 109.761 10.266 118.365 7.103"/><polygon id="Shape" fill="#628E83" points="106.727 4.169 103.694 5.943 118.365 7.103"/><polygon id="Shape" fill="#6FA391" points="112.8 11.811 113.303 14.125 116.845 11.271"/><polygon id="Shape" fill="#6A998C" points="109.761 10.266 116.845 11.271 118.365 7.103"/></g><path id="Shape" fill="#4296B4" d="M24.9185174,38.150644 C24.1153414,38.8585287 23.6271994,39.8571712 23.5620114,40.9257886 C23.4968234,41.9944059 23.8599589,43.0449782 24.5711346,43.8452417 L27.7906294,47.4679487 L30.8178229,44.7943413 L30.2781388,44.1740148 C31.3767958,43.2209385 31.8780713,41.7506959 31.5904594,40.3249747 C31.3028474,38.8992535 30.270785,37.7383325 28.8885587,37.2857269 C27.5063324,36.8331213 25.9875006,37.1587603 24.9123142,38.1382375 L24.9185174,38.150644 Z"/><path id="Shape" fill="#4296B4" d="M21.7982749,43.9196809 L19.6767581,45.7806605 L21.5377378,47.8959741 C22.577555,49.0640585 24.3658601,49.1721886 25.538844,48.1379014 L26.0785281,48.758228 L28.2000449,46.8972483 L25.7869746,44.180218 C24.7536456,43.0146103 22.9744492,42.8983953 21.7982749,43.9196809 Z"/><path id="Shape" fill="#9B8676" d="M31.1776123,44.1057788 L26.8849526,47.8835675 C26.4569273,48.2619667 25.724942,49.6142786 26.1281542,50.0112876 C26.5313665,50.4082966 27.9208979,49.7135308 28.34272,49.3351317 L32.6353797,45.557343 C32.837879,45.380549 32.9571214,45.127057 32.9641931,44.858334 C32.9712648,44.5896109 32.8655198,44.3301982 32.6725993,44.1429984 C32.2585756,43.7465789 31.6108496,43.730453 31.1776123,44.1057788 Z"/><path id="Shape" fill="#9B8676" d="M33.6279022,43.7087699 L32.0832891,44.4221454 C32.0219926,44.4478517 31.9739727,44.4976453 31.9505054,44.5598334 C31.9270382,44.6220216 31.9301911,44.6911256 31.9592238,44.7509185 C32.0253392,44.8762297 32.177887,44.927987 32.3066066,44.8687805 L33.8512197,44.180218 C33.9125162,44.1545117 33.9605361,44.1047181 33.9840034,44.04253 C34.0074706,43.9803418 34.0043177,43.9112378 33.9752851,43.851445 C33.9182585,43.7166214 33.7632293,43.6529487 33.6279022,43.7087699 L33.6279022,43.7087699 Z"/><path id="Shape" fill="#9B8676" d="M32.8400875,43.0698335 L32.2197609,44.5586172 C32.1937244,44.6201352 32.194283,44.6896808 32.2213044,44.7507726 C32.2483258,44.8118643 32.2994047,44.8590645 32.362436,44.881187 C32.4943588,44.9337756 32.6443534,44.8737778 32.7036156,44.7447152 L33.3239422,43.2559315 C33.3499787,43.1944135 33.34942,43.1248679 33.3223987,43.0637761 C33.2953773,43.0026844 33.2442984,42.9554842 33.1812671,42.9333617 C33.0493443,42.8807731 32.8993497,42.9407709 32.8400875,43.0698335 Z"/><path id="Shape" fill="#80C4D6" d="M26.1715771,37.8590905 C25.309997,38.5493365 24.769666,39.5631044 24.6770153,40.6631842 C24.5843647,41.763264 24.9475243,42.8531255 25.6815191,43.6777535 L28.9010139,47.3004606 L31.3264907,45.160334 C31.4873999,45.0183298 31.5850693,44.8180444 31.5978763,44.603818 C31.6106833,44.3895917 31.5375715,44.1790965 31.3947266,44.0189331 C32.2251406,43.2927075 32.7211676,42.2575351 32.7668982,41.1553102 C32.8126288,40.0530852 32.4040563,38.9803816 31.636654,38.1878636 C30.1681706,36.6944413 27.8085069,36.5524865 26.1715771,37.8590905 Z"/><path id="Shape" fill="#80C4D6" d="M22.1704708,44.6206499 L20.6754839,45.9419454 C20.5821328,46.0153594 20.5246466,46.1252011 20.5175337,46.2437483 C20.5104209,46.3622955 20.554361,46.4782228 20.6382643,46.562272 L22.2387068,48.361219 C23.1861441,49.4296193 24.7793898,49.628775 25.960666,48.8264639 C26.1342522,48.7059217 26.3702493,48.7324383 26.5127567,48.8884965 L26.5127567,48.8884965 C26.5872896,48.9801361 26.6968317,49.0363259 26.8147423,49.0434005 C26.9326529,49.0504751 27.0481277,49.0077864 27.1330832,48.9257161 L28.9382335,47.3314769 L26.7981069,44.9246099 C26.227165,44.2667479 25.4168828,43.8644841 24.5476892,43.8073923 C23.6784956,43.7503005 22.8225577,44.0431209 22.1704708,44.6206499 L22.1704708,44.6206499 Z"/><path id="Shape" fill="#E2F0F7" d="M29.5151372,41.9098229 C29.1434783,42.255509 28.5987353,42.3399414 28.1398693,42.1229825 C27.6810032,41.9060235 27.4005732,41.4314366 27.4318906,40.9248318 C27.463208,40.418227 27.7999557,39.9817929 28.2820499,39.8230024 C28.7641441,39.6642119 29.2943402,39.8150951 29.6205927,40.2039249 C30.0451852,40.7099569 29.9988227,41.4599389 29.5151372,41.9098229 L29.5151372,41.9098229 Z"/><path id="Shape" fill="#4296B4" d="M101.249699,57.1202298 C102.052875,57.8281145 102.541017,58.8267571 102.606205,59.8953744 C102.671393,60.9639918 102.308258,62.0145641 101.597082,62.8148275 L98.3775873,66.4375346 L95.3503937,63.7639272 L95.8900778,63.1436006 C94.7914209,62.1905244 94.2901454,60.7202817 94.5777573,59.2945606 C94.8653692,57.8688394 95.8974316,56.7079183 97.279658,56.2553127 C98.6618843,55.8027071 100.180716,56.1283461 101.255902,57.1078233 L101.249699,57.1202298 Z"/><path id="Shape" fill="#4296B4" d="M104.369942,62.8892667 L106.491459,64.7502464 L104.630479,66.8655599 C103.590662,68.0336443 101.802357,68.1417744 100.629373,67.1074873 L100.089689,67.7278138 L97.9681718,65.8668342 L100.381242,63.1498039 C101.414571,61.9841961 103.193767,61.8679811 104.369942,62.8892667 Z"/><path id="Shape" fill="#9B8676" d="M94.9844011,63.0753647 L99.2522477,66.8531534 C99.680273,67.2315526 100.412258,68.5838644 100.009046,68.9808734 C99.6058339,69.3778824 98.2163024,68.6831167 97.7944803,68.3047175 L93.5018206,64.5269288 C93.2993214,64.3501348 93.1800789,64.0966428 93.1730072,63.8279198 C93.1659356,63.5591968 93.2716806,63.2997841 93.464601,63.1125843 C93.8819575,62.7009559 94.5473956,62.6846594 94.9844011,63.0753647 L94.9844011,63.0753647 Z"/><path id="Shape" fill="#9B8676" d="M92.5341112,62.684559 L94.0787243,63.3731214 C94.1400208,63.3988278 94.1880407,63.4486214 94.2115079,63.5108095 C94.2349752,63.5729976 94.2318223,63.6421017 94.2027896,63.7018945 C94.1366742,63.8272058 93.9841264,63.8789631 93.8554068,63.8197566 L92.3107937,63.1311941 C92.2494972,63.1054877 92.2014772,63.0556942 92.17801,62.993506 C92.1545428,62.9313179 92.1576957,62.8622138 92.1867283,62.802421 C92.2528437,62.6771098 92.4053916,62.6253524 92.5341112,62.684559 L92.5341112,62.684559 Z"/><path id="Shape" fill="#9B8676" d="M93.3281292,62.0394194 L93.9484557,63.5282031 C93.9744922,63.589721 93.9739336,63.6592667 93.9469123,63.7203584 C93.9198909,63.7814502 93.868812,63.8286503 93.8057806,63.8507729 C93.6738579,63.9033615 93.5238633,63.8433636 93.464601,63.714301 L92.8442745,62.2255173 C92.818238,62.1639994 92.8187966,62.0944537 92.845818,62.033362 C92.8728393,61.9722702 92.9239183,61.9250701 92.9869496,61.9029475 C93.1188723,61.8503589 93.2688669,61.9103568 93.3281292,62.0394194 Z"/><path id="Shape" fill="#80C4D6" d="M99.9904363,56.8286764 C100.852016,57.5189223 101.392347,58.5326902 101.484998,59.63277 C101.577649,60.7328499 101.214489,61.8227113 100.480494,62.6473394 L97.2609995,66.2700464 L94.8355227,64.1299198 C94.6746135,63.9879157 94.5769441,63.7876303 94.5641371,63.5734039 C94.5513301,63.3591775 94.6244419,63.1486824 94.7672868,62.988519 L94.7672868,62.988519 C93.9402787,62.258789 93.4488634,61.2217238 93.4078254,60.1195604 C93.3667874,59.017397 93.7797206,57.9466593 94.5501725,57.1574494 C96.0153614,55.6786546 98.3578242,55.5370919 99.9904363,56.8286764 L99.9904363,56.8286764 Z"/><path id="Shape" fill="#80C4D6" d="M103.991543,63.5902357 L105.455513,64.8929215 C105.548864,64.9663354 105.60635,65.0761772 105.613463,65.1947243 C105.620576,65.3132715 105.576636,65.4291988 105.492733,65.513248 L103.89229,67.312195 C102.944853,68.3805954 101.351607,68.5797511 100.170331,67.7774399 C99.9967449,67.6568978 99.7607478,67.6834143 99.6182404,67.8394726 L99.6182404,67.8394726 C99.5437075,67.9311121 99.4341654,67.9873019 99.3162548,67.9943765 C99.1983442,68.0014512 99.0828693,67.9587624 98.9979138,67.8766922 L97.1927636,66.282453 L99.3328902,63.8755859 C99.9072687,63.2109597 100.725366,62.8059994 101.602152,62.7522947 C102.478938,62.6985901 103.340343,63.0006781 103.991543,63.5902357 L103.991543,63.5902357 Z"/><path id="Shape" fill="#E2F0F7" d="M96.6468762,60.8794087 C97.0185351,61.2250948 97.5632781,61.3095273 98.0221441,61.0925683 C98.4810102,60.8756094 98.7614402,60.4010225 98.7301228,59.8944177 C98.6988054,59.3878128 98.3620577,58.9513787 97.8799635,58.7925883 C97.3978693,58.6337978 96.8676732,58.784681 96.5414207,59.1735107 C96.1168282,59.6795428 96.1631907,60.4295247 96.6468762,60.8794087 L96.6468762,60.8794087 Z"/><g id="Group-40" transform="translate(29.210044, 0.145302)"><path id="Shape" fill="#80C4D6" d="M3.3220186,12.6852264 C4.33865005,12.8819938 5.39154054,12.654952 6.236738,12.0567061 L9.95869729,9.43272482 L8.20317316,6.95141863 C7.96153316,6.61070828 7.4895474,6.53019306 7.14861802,6.77152393 C5.98036262,5.03798365 3.62799244,4.57972972 1.89445216,5.74798512 C0.160911883,6.91624053 -0.297342049,9.26861071 0.870913355,11.002151 C1.41324655,11.8849596 2.30538715,12.488459 3.3220186,12.6852264 Z"/><path id="Shape" fill="#80C4D6" d="M6.77021883,15.4002662 L7.84958702,16.9200663 C7.90950747,17.0049625 8.00077127,17.0624995 8.10320639,17.07996 C8.20564151,17.0974206 8.31081284,17.0733668 8.39547439,17.0131152 L10.256454,15.7104295 C11.3418886,14.9441645 11.6875041,13.4899211 11.0628785,12.3172433 C10.9702584,12.1439423 11.0207196,11.9288183 11.1807406,11.8147788 L11.1807406,11.8147788 C11.2656368,11.7548583 11.3231738,11.6635945 11.3406344,11.5611594 C11.3580949,11.4587243 11.3340411,11.3535529 11.2737896,11.2688914 L9.96490055,9.40791176 L7.48359436,11.1510294 C6.82117341,11.6165733 6.37284954,12.3280739 6.23879891,13.1265494 C6.10474829,13.9250249 6.29614378,14.7439237 6.77021883,15.4002662 L6.77021883,15.4002662 Z"/><path id="Shape" fill="#E2F0F7" d="M4.9960849,8.31613703 C5.35777522,8.82714035 5.23748724,9.53449966 4.72721759,9.89722429 C4.21694795,10.2599489 3.50934644,10.141094 3.14558897,9.63156011 C2.7818315,9.12202623 2.89925291,8.41418543 3.40804894,8.04939662 C3.65314265,7.87160775 3.95937862,7.79971897 4.25798233,7.84987506 C4.55658604,7.90003115 4.82252871,8.06802807 4.9960849,8.31613703 L4.9960849,8.31613703 Z"/><path id="Shape" fill="#80C4D6" d="M9.62372095,0.673713957 C8.72299248,1.18664539 8.07306552,2.04767025 7.82664117,3.05448973 C7.58021682,4.06130921 7.75901802,5.12516964 8.3210352,5.99611574 L8.3210352,5.99611574 C7.97096011,6.22127421 7.86841782,6.68687165 8.09151438,7.03826434 L9.72917646,9.58160319 L13.5565913,7.13751659 C14.428263,6.58235043 15.0339436,5.69382236 15.2321081,4.67954833 C15.4302726,3.66527429 15.2035595,2.6141167 14.6049431,1.77169195 C13.465893,0.191398231 11.3216021,-0.281253689 9.62372095,0.673713957 L9.62372095,0.673713957 Z"/><path id="Shape" fill="#80C4D6" d="M9.72917646,9.57539993 L10.9698296,11.4735992 C11.0863797,11.6550789 11.3279165,11.7078284 11.5095137,11.5914612 C11.6766273,11.4832849 11.8983491,11.5180124 12.0243847,11.6721037 C12.8855379,12.6869611 14.3640412,12.9095315 15.4858068,12.193178 L17.3902093,10.9525249 C17.5716891,10.8359748 17.6244385,10.5944379 17.5080714,10.4128408 L16.5031424,8.8434146 C16.0615551,8.16277941 15.3671316,7.68598325 14.5732993,7.51837058 C13.7794671,7.35075792 12.9515663,7.50612489 12.2725153,7.95014437 L9.72917646,9.57539993 Z"/><path id="Shape" fill="#E2F0F7" d="M10.9015936,2.99373525 C11.2877689,2.74409764 11.7863974,2.75208677 12.164377,3.01396781 C12.5423565,3.27584885 12.725015,3.73988565 12.6269619,4.18914707 C12.5289088,4.63840849 12.1695152,4.98414027 11.7167928,5.06471731 C11.2640704,5.14529435 10.8074572,4.94479818 10.560414,4.55695815 C10.2287579,4.03004232 10.3805526,3.33454654 10.9015936,2.99373525 L10.9015936,2.99373525 Z"/><path id="Shape" fill="#9B8676" d="M10.0889659,11.5790547 C10.3929259,12.0194865 11.5591398,12.8569274 11.9809618,12.5281543 C12.4027839,12.1993812 11.9189292,10.8346628 11.6149692,10.394231 L8.71804419,6.10157125 C8.41048909,5.62538572 7.78562077,5.47052705 7.29129313,5.74798512 C6.87036807,6.08316988 6.77846894,6.68592005 7.0803821,7.13131332 L10.0889659,11.5790547 Z"/><path id="Shape" fill="#9B8676" d="M6.95631679,4.75546264 L7.29129313,6.30007575 C7.30311372,6.36168671 7.33963814,6.41577409 7.39237108,6.44975754 C7.44510401,6.48374098 7.50944908,6.49465839 7.57044008,6.47997045 C7.69908284,6.44369806 7.77587918,6.31204718 7.74413151,6.18221371 L7.40915517,4.6376006 C7.39733459,4.57598964 7.36081016,4.52190226 7.30807723,4.48791881 C7.25534429,4.45393537 7.19099922,4.44301796 7.13000823,4.4577059 C7.00136547,4.49397829 6.92456912,4.62562917 6.95631679,4.75546264 Z"/><path id="Shape" fill="#9B8676" d="M6.19331514,5.4998545 L7.47739109,6.27526269 C7.53146875,6.30589745 7.59565839,6.31329142 7.65528495,6.2957542 C7.71491151,6.27821698 7.76487677,6.23724803 7.79375763,6.18221371 C7.86029237,6.06546 7.82179176,5.91695767 7.70691192,5.84723737 L6.3980229,5.07182918 C6.34394525,5.04119443 6.2797556,5.03380045 6.22012904,5.05133767 C6.16050248,5.0688749 6.11053722,5.10984384 6.08165636,5.16487817 C6.05161526,5.22403314 6.04651545,5.29275504 6.06749586,5.3556963 C6.08847628,5.41863755 6.13378927,5.47055518 6.19331514,5.4998545 Z"/></g><polygon id="Shape" fill="#87B09A" points="71.449 98.384 89.563 103.911 108.123 99.389 108.123 88.627 71.449 88.627"/><path id="Shape" fill="#799987" d="M108.122917,87.454198 L108.122917,91.0334822 C108.122917,91.3994749 107.688689,91.7592643 106.838841,92.032208 L92.8814941,96.5295754 C90.850834,97.0834834 88.7088887,97.0834834 86.6782286,96.5295754 L72.714678,92.0135982 C71.8648306,91.7406545 71.4368053,91.3932716 71.430602,91.0148724 L71.430602,87.454198 L71.430602,87.454198 C71.5112445,87.7767678 71.9330665,88.0745246 72.6712551,88.3350617 L86.6348057,92.8448357 C88.6654658,93.3987437 90.8074111,93.3987437 92.8380712,92.8448357 L106.801622,88.3350617 C107.55842,88.0931344 107.986446,87.7767678 108.042275,87.454198 L108.122917,87.454198 Z"/><path id="Shape" fill="#799987" d="M108.122917,92.0632243 L108.122917,95.6425085 C108.122917,96.0085011 107.688689,96.3682905 106.838841,96.6412342 L92.8752908,101.157211 C90.8446307,101.711119 88.7026854,101.711119 86.6720253,101.157211 L72.7084747,96.6412342 C71.8586274,96.3682905 71.430602,96.0209077 71.4243988,95.6425085 L71.4243988,92.0632243 L71.4243988,92.0632243 C71.5050412,92.3857941 71.9268633,92.6835508 72.6650519,92.944088 L86.6286025,97.453862 C88.6592626,98.00777 90.8012079,98.00777 92.831868,97.453862 L106.795419,92.944088 C107.552217,92.7021606 107.980242,92.3857941 108.036072,92.0632243 L108.122917,92.0632243 Z"/><path id="Shape" fill="#799987" d="M108.122917,96.6784538 L108.122917,100.251535 C108.122917,100.617527 107.688689,100.977317 106.838841,101.25026 L92.8752908,105.766238 C90.8446307,106.320146 88.7026854,106.320146 86.6720253,105.766238 L72.7084747,101.25026 C71.8586274,100.977317 71.430602,100.629934 71.4243988,100.251535 L71.4243988,96.6784538 L71.4243988,96.6784538 C71.5050412,97.0010236 71.9268633,97.2987804 72.6650519,97.5593175 L86.6286025,102.069092 C88.6592626,102.622999 90.8012079,102.622999 92.831868,102.069092 L106.795419,97.5593175 C107.552217,97.3173902 107.980242,97.0010236 108.036072,96.6784538 L108.122917,96.6784538 Z"/><path id="Shape" fill="#87B09A" d="M86.6906351,92.8944619 L72.7270845,88.3784846 C71.0211865,87.826394 71.0211865,86.9331237 72.7270845,86.3810331 L86.6906351,81.8650558 C88.7212952,81.3111479 90.8632405,81.3111479 92.8939006,81.8650558 L106.857451,86.3810331 C108.563349,86.9331237 108.563349,87.826394 106.857451,88.3784846 L92.8939006,92.8944619 C90.8632405,93.4483698 88.7212952,93.4483698 86.6906351,92.8944619"/><path id="Shape" fill="#FFF" d="M100.492901,87.0757988 L97.9247489,86.0770731 C97.670415,85.9778209 97.2423897,86.0770731 97.2423897,86.1887319 L97.2423897,86.5361148 C97.2423897,86.6229605 97.062495,86.6911964 96.8391775,86.6911964 L95.4310362,86.6911964 C95.2077186,86.6911964 95.0278239,86.6229605 95.0278239,86.5361148 L95.0278239,85.8289425 C95.0278239,85.7420968 95.2077186,85.6738609 95.4310362,85.6738609 L95.9024844,85.6738609 C96.2622738,85.6738609 96.4359652,85.5063727 96.1878346,85.4071204 L93.6196827,84.4083947 C93.436322,84.3482565 93.2385462,84.3482565 93.0551855,84.4083947 L90.4870336,85.4071204 C90.2326997,85.5063727 90.4125944,85.6738609 90.7723838,85.6738609 L91.336881,85.6738609 C91.5601985,85.6738609 91.7400932,85.7420968 91.7400932,85.8289425 L91.7400932,86.5237082 C91.7400932,86.6105539 91.5601985,86.6787899 91.336881,86.6787899 L88.2352482,86.6787899 C88.0119307,86.6787899 87.832036,86.6105539 87.832036,86.5237082 L87.832036,85.8289425 C87.832036,85.7420968 88.0119307,85.6738609 88.2352482,85.6738609 L88.8183552,85.6738609 C89.1781446,85.6738609 89.351836,85.5063727 89.1037054,85.4071204 L86.5355535,84.4083947 C86.3521928,84.3482565 86.154417,84.3482565 85.9710563,84.4083947 L83.4029044,85.4071204 C83.1485705,85.5063727 83.3284652,85.6738609 83.6882546,85.6738609 L84.141093,85.6738609 C84.3644106,85.6738609 84.5443053,85.7420968 84.5443053,85.8289425 L84.5443053,86.542318 C84.5443053,86.6291637 84.3644106,86.6973997 84.141093,86.6973997 L82.7515615,86.6973997 C82.528244,86.6973997 82.3483493,86.6291637 82.3483493,86.542318 L82.3483493,86.1949352 C82.3483493,86.0584633 81.920324,85.9902274 81.6659901,86.0832764 L79.0978382,87.0820021 C78.9427565,87.1440348 78.9427565,87.243287 79.0978382,87.2991164 L81.6659901,88.2978421 C81.920324,88.3970944 82.3483493,88.2978421 82.3483493,88.1861834 L82.3483493,87.8450038 C82.3483493,87.7581581 82.528244,87.6899221 82.7515615,87.6899221 L84.1348897,87.6899221 C84.3582073,87.6899221 84.538102,87.7581581 84.538102,87.8450038 L84.538102,88.5583793 C84.538102,88.645225 84.3582073,88.7134609 84.1348897,88.7134609 L83.6820514,88.7134609 C83.322262,88.7134609 83.1485705,88.8809491 83.3967012,88.9802014 L85.9648531,89.9789271 C86.1482137,90.0390653 86.3459896,90.0390653 86.5293502,89.9789271 L89.0975021,88.9802014 C89.351836,88.8809491 89.1719413,88.7134609 88.8121519,88.7134609 L88.229045,88.7134609 C88.0057274,88.7134609 87.8258327,88.645225 87.8258327,88.5583793 L87.8258327,87.8450038 C87.8258327,87.7581581 88.0057274,87.6899221 88.229045,87.6899221 L91.3306777,87.6899221 C91.5539953,87.6899221 91.73389,87.7581581 91.73389,87.8450038 L91.73389,88.5459728 C91.73389,88.6328185 91.5539953,88.7010544 91.3306777,88.7010544 L90.7661805,88.7010544 C90.4063912,88.7010544 90.2326997,88.8685426 90.4808303,88.9677948 L93.0489822,89.9603173 C93.2323429,90.0204555 93.4301188,90.0204555 93.6134794,89.9603173 L96.150615,88.9615916 C96.4049489,88.8623393 96.2250542,88.6948511 95.8652648,88.6948511 L95.3938166,88.6948511 C95.170499,88.6948511 94.9906043,88.6266152 94.9906043,88.5397695 L94.9906043,87.8450038 C94.9906043,87.7581581 95.170499,87.6899221 95.3938166,87.6899221 L96.8019579,87.6899221 C97.0252754,87.6899221 97.2051701,87.7581581 97.2051701,87.8450038 L97.2051701,88.1923866 C97.2051701,88.3288585 97.6393987,88.4032977 97.8875293,88.3040454 L100.492901,87.2929131 C100.647982,87.2308805 100.647982,87.1316282 100.492901,87.0757988"/></g><g id="Page-1" transform="translate(15.085563, 63.507345)"><g id="Group-3" transform="translate(0.000000, 16.122170)"><mask id="mask-4" fill="#fff"><use xlink:href="#path-3"/></mask><path id="Fill-1" fill="#E2F0F7" d="M21.0987706,0.108812403 L21.0987706,16.1340438 C21.0987706,17.4270474 20.0515394,18.4744861 18.7585359,18.4744861 L2.34118956,18.4744861 C1.04818602,18.4744861 0.000747280905,17.4270474 0.000747280905,16.1340438 L0.000747280905,0.108812403 L1.13017934,0.108812403 L1.13017934,0.243322966 C1.13017934,0.553444541 1.59806021,0.805029112 2.18322268,0.805029112 L18.7992212,0.805029112 C19.3785714,0.805029112 19.8526797,0.553444541 19.8526797,0.243322966 L19.8526797,0.108812403 L21.0987706,0.108812403 Z" mask="url(#mask-4)"/></g><path id="Fill-4" fill="#E2F0F7" d="M19.8534062,16.2309828 L19.8534062,16.3654933 C19.8534062,16.6756149 19.3795055,16.9271995 18.8001553,16.9271995 L2.1839492,16.9271995 C1.59899432,16.9271995 1.13090586,16.6756149 1.13090586,16.3654933 L1.13090586,16.2309828 L19.8534062,16.2309828 Z"/><path id="Fill-6" fill="#F3FCFF" d="M19.8534062,16.0028338 L19.8534062,16.3656801 C19.8534062,16.6755941 19.3795055,16.9271787 18.8001553,16.9271787 L2.1839492,16.9271787 C1.59899432,16.9271787 1.13090586,16.6755941 1.13090586,16.3656801 L1.13090586,16.0028338 C1.13090586,15.6927122 1.59899432,15.4411276 2.1839492,15.4411276 L18.8001553,15.4411276 C19.3795055,15.4411276 19.8534062,15.6927122 19.8534062,16.0028338"/><path id="Fill-8" fill="#E2F0F7" d="M19.8534062,16.0028338 L19.8534062,16.3656801 C19.8534062,16.6755941 19.3795055,16.9271787 18.8001553,16.9271787 L2.1839492,16.9271787 C1.59899432,16.9271787 1.13090586,16.6755941 1.13090586,16.3656801 L1.13090586,16.0028338 C1.13090586,15.6927122 1.59899432,15.4411276 2.1839492,15.4411276 L18.8001553,15.4411276 C19.3795055,15.4411276 19.8534062,15.6927122 19.8534062,16.0028338"/><g id="Group-12" fill="#F3FCFF" transform="translate(0.000000, 14.669124)"><path id="Fill-10" d="M19.8534062,1.69647296 C19.8534062,2.00659453 19.3795055,2.2581791 18.8001553,2.2581791 L2.1839492,2.2581791 C1.59899432,2.2581791 1.13090586,2.00659453 1.13090586,1.69647296 L1.13090586,1.33362656 C1.13090586,1.02371257 1.59899432,0.771920417 2.1839492,0.771920417 L18.8001553,0.771920417 C19.3795055,0.771920417 19.8534062,1.02371257 19.8534062,1.33362656 L19.8534062,1.69647296 Z M19.9117356,0.0289986507 L1.18923529,0.0289986507 C0.528099264,0.0289986507 0.00168138204,0.561436295 0.00168138204,1.21655255 L0.00168138204,1.97732603 C0.00168138204,2.63264987 0.528099264,3.16508751 1.18923529,3.16508751 L19.9117356,3.16508751 C20.5670595,3.16508751 21.0994971,2.63264987 21.0994971,1.97732603 L21.0994971,1.21655255 C21.0994971,0.561436295 20.5670595,0.0289986507 19.9117356,0.0289986507 L19.9117356,0.0289986507 Z"/></g><mask id="mask-6" fill="#fff"><use xlink:href="#path-5"/></mask><polygon id="Fill-13" fill="#847264" points="1.434 28.738 19.665 28.738 19.665 22.633 1.434 22.633" mask="url(#mask-6)"/><path id="Fill-15" fill="#685A50" d="M19.2494164,33.2825007 L1.84856538,33.2825007 C1.61919166,33.2825007 1.43340932,33.0965108 1.43340932,32.8673447 L1.43340932,28.7375798 L19.6645725,28.7375798 L19.6645725,32.8673447 C19.6645725,33.0965108 19.4785825,33.2825007 19.2494164,33.2825007" mask="url(#mask-6)"/><path id="Stroke-16" stroke-linecap="round" stroke-linejoin="round" d="M8.30578824,13.7016445 L8.29645791,13.7016445" mask="url(#mask-6)"/><path id="Fill-17" fill="#9B8676" d="M19.2494164,24.2444288 L1.84856538,24.2444288 C1.61919166,24.2444288 1.43340932,24.0586464 1.43340932,23.8292727 L1.43340932,21.4373511 C1.43340932,21.2079774 1.61919166,21.022195 1.84856538,21.022195 L19.2494164,21.022195 C19.4785825,21.022195 19.6645725,21.2079774 19.6645725,21.4373511 L19.6645725,23.8292727 C19.6645725,24.0586464 19.4785825,24.2444288 19.2494164,24.2444288" mask="url(#mask-6)"/><path id="Fill-18" fill="#B3B3B3" d="M17.1678654,22.5904886 L15.3621442,22.5904886 C15.3621442,22.1275896 15.7665062,21.7522885 16.2651086,21.7522885 C16.763711,21.7522885 17.1678654,22.1275896 17.1678654,22.5904886" mask="url(#mask-6)"/><path id="Fill-19" fill="#C3C6C8" d="M16.8725027,22.5904886 L15.0667814,22.5904886 C15.0667814,22.1275896 15.4711434,21.7522885 15.9697458,21.7522885 C16.4683482,21.7522885 16.8725027,22.1275896 16.8725027,22.5904886" mask="url(#mask-6)"/><path id="Fill-20" fill="#B3B3B3" d="M6.07217629,22.5904886 L4.26645502,22.5904886 C4.26645502,22.1275896 4.67081702,21.7522885 5.16941945,21.7522885 C5.66802187,21.7522885 6.07217629,22.1275896 6.07217629,22.5904886" mask="url(#mask-6)"/><path id="Fill-21" fill="#C3C6C8" d="M5.77681352,22.5904886 L3.97109224,22.5904886 C3.97109224,22.1275896 4.37545424,21.7522885 4.87405667,21.7522885 C5.37265909,21.7522885 5.77681352,22.1275896 5.77681352,22.5904886" mask="url(#mask-6)"/><path id="Fill-22" fill="#9B8676" d="M14.4894239,31.8601553 C14.4894239,32.174636 14.234518,32.4297494 13.9198297,32.4297494 C13.605349,32.4297494 13.3504432,32.174636 13.3504432,31.8601553 C13.3504432,31.5456746 13.605349,31.2905612 13.9198297,31.2905612 C14.234518,31.2905612 14.4894239,31.5456746 14.4894239,31.8601553" mask="url(#mask-6)"/><path id="Fill-23" fill="#9B8676" d="M8.12991805,31.8601553 C8.12991805,32.174636 7.87480466,32.4297494 7.56032394,32.4297494 C7.24584323,32.4297494 6.99093741,32.174636 6.99093741,31.8601553 C6.99093741,31.5456746 7.24584323,31.2905612 7.56032394,31.2905612 C7.87480466,31.2905612 8.12991805,31.5456746 8.12991805,31.8601553" mask="url(#mask-6)"/><path id="Fill-24" fill="#847264" d="M11.8080347,30.388863 C11.8080347,30.7035513 11.5529213,30.9584571 11.2384406,30.9584571 C10.9239598,30.9584571 10.669054,30.7035513 10.669054,30.388863 C10.669054,30.0743823 10.9239598,29.8192689 11.2384406,29.8192689 C11.5529213,29.8192689 11.8080347,30.0743823 11.8080347,30.388863" mask="url(#mask-6)"/><path id="Fill-25" fill="#9B8676" d="M17.5268716,30.5549877 C17.5268716,30.8694684 17.2717582,31.1245818 16.9572775,31.1245818 C16.6427968,31.1245818 16.387891,30.8694684 16.387891,30.5549877 C16.387891,30.240507 16.6427968,29.9853936 16.9572775,29.9853936 C17.2717582,29.9853936 17.5268716,30.240507 17.5268716,30.5549877" mask="url(#mask-6)"/><path id="Fill-26" fill="#847264" d="M4.38631057,30.3112288 C4.38631057,30.6257095 4.13119718,30.8808229 3.81671646,30.8808229 C3.50223575,30.8808229 3.24732993,30.6257095 3.24732993,30.3112288 C3.24732993,29.9967481 3.50223575,29.7416347 3.81671646,29.7416347 C4.13119718,29.7416347 4.38631057,29.9967481 4.38631057,30.3112288" mask="url(#mask-6)"/><path id="Fill-27" fill="#847264" d="M8.8573545,22.646846 L12.6248957,22.646846 C12.6248957,22.2568069 12.3087544,21.940458 11.9185077,21.940458 C11.8444023,21.940458 11.7744485,21.9549884 11.7071933,21.976369 C11.4946334,21.670399 11.1417507,21.4694634 10.7411251,21.4694634 C10.3407071,21.4694634 9.98782445,21.670399 9.77505697,21.976369 C9.70800926,21.9549884 9.63784789,21.940458 9.56374253,21.940458 C9.17370342,21.940458 8.8573545,22.2568069 8.8573545,22.646846" mask="url(#mask-6)"/><path id="Fill-28" fill="#BFEC80" d="M10.7759152,6.22734087e-05 C7.55824816,6.22734087e-05 5.84074755,10.0350069 5.84074755,11.9856177 C5.84074755,14.7069656 8.05456723,16.9209929 10.7759152,16.9209929 C13.4972632,16.9209929 15.7110828,14.7069656 15.7110828,11.9856177 C15.7110828,10.0352145 13.9937898,6.22734087e-05 10.7759152,6.22734087e-05" mask="url(#mask-6)"/><path id="Fill-29" fill="#AAE655" d="M7.95578085,11.9856799 C7.95578085,10.2613293 9.29901827,2.22349282 11.833546,0.381445386 C11.5012136,0.13982456 11.1489537,0.000124546817 10.7759359,0.000124546817 C7.55806134,0.000124546817 5.84076831,10.0350692 5.84076831,11.9856799 C5.84076831,14.7070279 8.05479557,16.9208476 10.7759359,16.9208476 C11.1391975,16.9208476 11.4924953,16.8789168 11.833546,16.8039812 C9.61910359,16.3182486 7.95578085,14.3437664 7.95578085,11.9856799" mask="url(#mask-6)"/><path id="Fill-30" fill="#759684" d="M12.6844706,11.4872021 C12.4090146,11.211746 11.9629294,11.211746 11.6874733,11.4872021 L11.4811408,11.6937422 L11.4811408,10.5755194 C11.4811408,10.186103 11.1654146,9.8703768 10.7759982,9.8703768 C10.3865818,9.8703768 10.0708557,10.186103 10.0708557,10.5755194 L10.0708557,13.1038198 L9.86431552,12.8972796 C9.58885947,12.6218236 9.14277429,12.6218236 8.86731824,12.8972796 C8.59206978,13.1727357 8.59206978,13.6190284 8.86731824,13.8942769 L10.0710632,15.0978143 L10.0710632,21.8561398 L11.4811408,21.8561398 L11.4811408,13.6877368 L12.6844706,12.4841993 C12.9599267,12.2087433 12.9599267,11.7626581 12.6844706,11.4872021" mask="url(#mask-6)"/><path id="Fill-31" fill="#F3FCFF" d="M21.0980648,16.2309828 L21.0980648,16.6463464 C21.0980648,17.3016702 20.5656272,17.8341079 19.9100957,17.8341079 L1.18759542,17.8341079 C0.526459397,17.8341079 4.15156058e-05,17.3016702 4.15156058e-05,16.6463464 L4.15156058e-05,16.2309828 L1.12926599,16.2309828 L1.12926599,16.3654933 C1.12926599,16.6756149 1.59735445,16.9271995 2.18230933,16.9271995 L18.7985154,16.9271995 C19.3778657,16.9271995 19.8519739,16.6756149 19.8519739,16.3654933 L19.8519739,16.2309828 L21.0980648,16.2309828 Z" mask="url(#mask-6)"/></g><g id="Page-1-Copy-4" transform="translate(40.297051, 67.401468)"><g id="Group-3" transform="translate(0.000000, 16.122170)"><mask id="mask-8" fill="#fff"><use xlink:href="#path-7"/></mask><path id="Fill-1" fill="#E2F0F7" d="M21.0987706,0.108812403 L21.0987706,16.1340438 C21.0987706,17.4270474 20.0515394,18.4744861 18.7585359,18.4744861 L2.34118956,18.4744861 C1.04818602,18.4744861 0.000747280905,17.4270474 0.000747280905,16.1340438 L0.000747280905,0.108812403 L1.13017934,0.108812403 L1.13017934,0.243322966 C1.13017934,0.553444541 1.59806021,0.805029112 2.18322268,0.805029112 L18.7992212,0.805029112 C19.3785714,0.805029112 19.8526797,0.553444541 19.8526797,0.243322966 L19.8526797,0.108812403 L21.0987706,0.108812403 Z" mask="url(#mask-8)"/></g><path id="Fill-4" fill="#E2F0F7" d="M19.8534062,16.2309828 L19.8534062,16.3654933 C19.8534062,16.6756149 19.3795055,16.9271995 18.8001553,16.9271995 L2.1839492,16.9271995 C1.59899432,16.9271995 1.13090586,16.6756149 1.13090586,16.3654933 L1.13090586,16.2309828 L19.8534062,16.2309828 Z"/><path id="Fill-6" fill="#F3FCFF" d="M19.8534062,16.0028338 L19.8534062,16.3656801 C19.8534062,16.6755941 19.3795055,16.9271787 18.8001553,16.9271787 L2.1839492,16.9271787 C1.59899432,16.9271787 1.13090586,16.6755941 1.13090586,16.3656801 L1.13090586,16.0028338 C1.13090586,15.6927122 1.59899432,15.4411276 2.1839492,15.4411276 L18.8001553,15.4411276 C19.3795055,15.4411276 19.8534062,15.6927122 19.8534062,16.0028338"/><path id="Fill-8" fill="#E2F0F7" d="M19.8534062,16.0028338 L19.8534062,16.3656801 C19.8534062,16.6755941 19.3795055,16.9271787 18.8001553,16.9271787 L2.1839492,16.9271787 C1.59899432,16.9271787 1.13090586,16.6755941 1.13090586,16.3656801 L1.13090586,16.0028338 C1.13090586,15.6927122 1.59899432,15.4411276 2.1839492,15.4411276 L18.8001553,15.4411276 C19.3795055,15.4411276 19.8534062,15.6927122 19.8534062,16.0028338"/><g id="Group-12" fill="#F3FCFF" transform="translate(0.000000, 14.669124)"><path id="Fill-10" d="M19.8534062,1.69647296 C19.8534062,2.00659453 19.3795055,2.2581791 18.8001553,2.2581791 L2.1839492,2.2581791 C1.59899432,2.2581791 1.13090586,2.00659453 1.13090586,1.69647296 L1.13090586,1.33362656 C1.13090586,1.02371257 1.59899432,0.771920417 2.1839492,0.771920417 L18.8001553,0.771920417 C19.3795055,0.771920417 19.8534062,1.02371257 19.8534062,1.33362656 L19.8534062,1.69647296 Z M19.9117356,0.0289986507 L1.18923529,0.0289986507 C0.528099264,0.0289986507 0.00168138204,0.561436295 0.00168138204,1.21655255 L0.00168138204,1.97732603 C0.00168138204,2.63264987 0.528099264,3.16508751 1.18923529,3.16508751 L19.9117356,3.16508751 C20.5670595,3.16508751 21.0994971,2.63264987 21.0994971,1.97732603 L21.0994971,1.21655255 C21.0994971,0.561436295 20.5670595,0.0289986507 19.9117356,0.0289986507 L19.9117356,0.0289986507 Z"/></g><mask id="mask-10" fill="#fff"><use xlink:href="#path-9"/></mask><polygon id="Fill-13" fill="#847264" points="1.434 28.738 19.665 28.738 19.665 22.633 1.434 22.633" mask="url(#mask-10)"/><path id="Fill-15" fill="#685A50" d="M19.2494164,33.2825007 L1.84856538,33.2825007 C1.61919166,33.2825007 1.43340932,33.0965108 1.43340932,32.8673447 L1.43340932,28.7375798 L19.6645725,28.7375798 L19.6645725,32.8673447 C19.6645725,33.0965108 19.4785825,33.2825007 19.2494164,33.2825007" mask="url(#mask-10)"/><path id="Stroke-16" stroke-linecap="round" stroke-linejoin="round" d="M8.30578824,13.7016445 L8.29645791,13.7016445" mask="url(#mask-10)"/><path id="Fill-17" fill="#9B8676" d="M19.2494164,24.2444288 L1.84856538,24.2444288 C1.61919166,24.2444288 1.43340932,24.0586464 1.43340932,23.8292727 L1.43340932,21.4373511 C1.43340932,21.2079774 1.61919166,21.022195 1.84856538,21.022195 L19.2494164,21.022195 C19.4785825,21.022195 19.6645725,21.2079774 19.6645725,21.4373511 L19.6645725,23.8292727 C19.6645725,24.0586464 19.4785825,24.2444288 19.2494164,24.2444288" mask="url(#mask-10)"/><path id="Fill-18" fill="#B3B3B3" d="M17.1678654,22.5904886 L15.3621442,22.5904886 C15.3621442,22.1275896 15.7665062,21.7522885 16.2651086,21.7522885 C16.763711,21.7522885 17.1678654,22.1275896 17.1678654,22.5904886" mask="url(#mask-10)"/><path id="Fill-19" fill="#C3C6C8" d="M16.8725027,22.5904886 L15.0667814,22.5904886 C15.0667814,22.1275896 15.4711434,21.7522885 15.9697458,21.7522885 C16.4683482,21.7522885 16.8725027,22.1275896 16.8725027,22.5904886" mask="url(#mask-10)"/><path id="Fill-20" fill="#B3B3B3" d="M6.07217629,22.5904886 L4.26645502,22.5904886 C4.26645502,22.1275896 4.67081702,21.7522885 5.16941945,21.7522885 C5.66802187,21.7522885 6.07217629,22.1275896 6.07217629,22.5904886" mask="url(#mask-10)"/><path id="Fill-21" fill="#C3C6C8" d="M5.77681352,22.5904886 L3.97109224,22.5904886 C3.97109224,22.1275896 4.37545424,21.7522885 4.87405667,21.7522885 C5.37265909,21.7522885 5.77681352,22.1275896 5.77681352,22.5904886" mask="url(#mask-10)"/><path id="Fill-22" fill="#9B8676" d="M14.4894239,31.8601553 C14.4894239,32.174636 14.234518,32.4297494 13.9198297,32.4297494 C13.605349,32.4297494 13.3504432,32.174636 13.3504432,31.8601553 C13.3504432,31.5456746 13.605349,31.2905612 13.9198297,31.2905612 C14.234518,31.2905612 14.4894239,31.5456746 14.4894239,31.8601553" mask="url(#mask-10)"/><path id="Fill-23" fill="#9B8676" d="M8.12991805,31.8601553 C8.12991805,32.174636 7.87480466,32.4297494 7.56032394,32.4297494 C7.24584323,32.4297494 6.99093741,32.174636 6.99093741,31.8601553 C6.99093741,31.5456746 7.24584323,31.2905612 7.56032394,31.2905612 C7.87480466,31.2905612 8.12991805,31.5456746 8.12991805,31.8601553" mask="url(#mask-10)"/><path id="Fill-24" fill="#847264" d="M11.8080347,30.388863 C11.8080347,30.7035513 11.5529213,30.9584571 11.2384406,30.9584571 C10.9239598,30.9584571 10.669054,30.7035513 10.669054,30.388863 C10.669054,30.0743823 10.9239598,29.8192689 11.2384406,29.8192689 C11.5529213,29.8192689 11.8080347,30.0743823 11.8080347,30.388863" mask="url(#mask-10)"/><path id="Fill-25" fill="#9B8676" d="M17.5268716,30.5549877 C17.5268716,30.8694684 17.2717582,31.1245818 16.9572775,31.1245818 C16.6427968,31.1245818 16.387891,30.8694684 16.387891,30.5549877 C16.387891,30.240507 16.6427968,29.9853936 16.9572775,29.9853936 C17.2717582,29.9853936 17.5268716,30.240507 17.5268716,30.5549877" mask="url(#mask-10)"/><path id="Fill-26" fill="#847264" d="M4.38631057,30.3112288 C4.38631057,30.6257095 4.13119718,30.8808229 3.81671646,30.8808229 C3.50223575,30.8808229 3.24732993,30.6257095 3.24732993,30.3112288 C3.24732993,29.9967481 3.50223575,29.7416347 3.81671646,29.7416347 C4.13119718,29.7416347 4.38631057,29.9967481 4.38631057,30.3112288" mask="url(#mask-10)"/><path id="Fill-27" fill="#847264" d="M8.8573545,22.646846 L12.6248957,22.646846 C12.6248957,22.2568069 12.3087544,21.940458 11.9185077,21.940458 C11.8444023,21.940458 11.7744485,21.9549884 11.7071933,21.976369 C11.4946334,21.670399 11.1417507,21.4694634 10.7411251,21.4694634 C10.3407071,21.4694634 9.98782445,21.670399 9.77505697,21.976369 C9.70800926,21.9549884 9.63784789,21.940458 9.56374253,21.940458 C9.17370342,21.940458 8.8573545,22.2568069 8.8573545,22.646846" mask="url(#mask-10)"/><path id="Fill-28" fill="#BFEC80" d="M10.7759152,6.22734087e-05 C7.55824816,6.22734087e-05 5.84074755,10.0350069 5.84074755,11.9856177 C5.84074755,14.7069656 8.05456723,16.9209929 10.7759152,16.9209929 C13.4972632,16.9209929 15.7110828,14.7069656 15.7110828,11.9856177 C15.7110828,10.0352145 13.9937898,6.22734087e-05 10.7759152,6.22734087e-05" mask="url(#mask-10)"/><path id="Fill-29" fill="#AAE655" d="M7.95578085,11.9856799 C7.95578085,10.2613293 9.29901827,2.22349282 11.833546,0.381445386 C11.5012136,0.13982456 11.1489537,0.000124546817 10.7759359,0.000124546817 C7.55806134,0.000124546817 5.84076831,10.0350692 5.84076831,11.9856799 C5.84076831,14.7070279 8.05479557,16.9208476 10.7759359,16.9208476 C11.1391975,16.9208476 11.4924953,16.8789168 11.833546,16.8039812 C9.61910359,16.3182486 7.95578085,14.3437664 7.95578085,11.9856799" mask="url(#mask-10)"/><path id="Fill-30" fill="#759684" d="M12.6844706,11.4872021 C12.4090146,11.211746 11.9629294,11.211746 11.6874733,11.4872021 L11.4811408,11.6937422 L11.4811408,10.5755194 C11.4811408,10.186103 11.1654146,9.8703768 10.7759982,9.8703768 C10.3865818,9.8703768 10.0708557,10.186103 10.0708557,10.5755194 L10.0708557,13.1038198 L9.86431552,12.8972796 C9.58885947,12.6218236 9.14277429,12.6218236 8.86731824,12.8972796 C8.59206978,13.1727357 8.59206978,13.6190284 8.86731824,13.8942769 L10.0710632,15.0978143 L10.0710632,21.8561398 L11.4811408,21.8561398 L11.4811408,13.6877368 L12.6844706,12.4841993 C12.9599267,12.2087433 12.9599267,11.7626581 12.6844706,11.4872021" mask="url(#mask-10)"/><path id="Fill-31" fill="#F3FCFF" d="M21.0980648,16.2309828 L21.0980648,16.6463464 C21.0980648,17.3016702 20.5656272,17.8341079 19.9100957,17.8341079 L1.18759542,17.8341079 C0.526459397,17.8341079 4.15156058e-05,17.3016702 4.15156058e-05,16.6463464 L4.15156058e-05,16.2309828 L1.12926599,16.2309828 L1.12926599,16.3654933 C1.12926599,16.6756149 1.59735445,16.9271995 2.18230933,16.9271995 L18.7985154,16.9271995 C19.3778657,16.9271995 19.8519739,16.6756149 19.8519739,16.3654933 L19.8519739,16.2309828 L21.0980648,16.2309828 Z" mask="url(#mask-10)"/></g><g id="Page-1-Copy-5" transform="translate(27.897958, 70.707892)"><g id="Group-3" transform="translate(0.000000, 16.122170)"><mask id="mask-12" fill="#fff"><use xlink:href="#path-11"/></mask><path id="Fill-1" fill="#E2F0F7" d="M21.0987706,0.108812403 L21.0987706,16.1340438 C21.0987706,17.4270474 20.0515394,18.4744861 18.7585359,18.4744861 L2.34118956,18.4744861 C1.04818602,18.4744861 0.000747280905,17.4270474 0.000747280905,16.1340438 L0.000747280905,0.108812403 L1.13017934,0.108812403 L1.13017934,0.243322966 C1.13017934,0.553444541 1.59806021,0.805029112 2.18322268,0.805029112 L18.7992212,0.805029112 C19.3785714,0.805029112 19.8526797,0.553444541 19.8526797,0.243322966 L19.8526797,0.108812403 L21.0987706,0.108812403 Z" mask="url(#mask-12)"/></g><path id="Fill-4" fill="#E2F0F7" d="M19.8534062,16.2309828 L19.8534062,16.3654933 C19.8534062,16.6756149 19.3795055,16.9271995 18.8001553,16.9271995 L2.1839492,16.9271995 C1.59899432,16.9271995 1.13090586,16.6756149 1.13090586,16.3654933 L1.13090586,16.2309828 L19.8534062,16.2309828 Z"/><path id="Fill-6" fill="#F3FCFF" d="M19.8534062,16.0028338 L19.8534062,16.3656801 C19.8534062,16.6755941 19.3795055,16.9271787 18.8001553,16.9271787 L2.1839492,16.9271787 C1.59899432,16.9271787 1.13090586,16.6755941 1.13090586,16.3656801 L1.13090586,16.0028338 C1.13090586,15.6927122 1.59899432,15.4411276 2.1839492,15.4411276 L18.8001553,15.4411276 C19.3795055,15.4411276 19.8534062,15.6927122 19.8534062,16.0028338"/><path id="Fill-8" fill="#E2F0F7" d="M19.8534062,16.0028338 L19.8534062,16.3656801 C19.8534062,16.6755941 19.3795055,16.9271787 18.8001553,16.9271787 L2.1839492,16.9271787 C1.59899432,16.9271787 1.13090586,16.6755941 1.13090586,16.3656801 L1.13090586,16.0028338 C1.13090586,15.6927122 1.59899432,15.4411276 2.1839492,15.4411276 L18.8001553,15.4411276 C19.3795055,15.4411276 19.8534062,15.6927122 19.8534062,16.0028338"/><g id="Group-12" fill="#F3FCFF" transform="translate(0.000000, 14.669124)"><path id="Fill-10" d="M19.8534062,1.69647296 C19.8534062,2.00659453 19.3795055,2.2581791 18.8001553,2.2581791 L2.1839492,2.2581791 C1.59899432,2.2581791 1.13090586,2.00659453 1.13090586,1.69647296 L1.13090586,1.33362656 C1.13090586,1.02371257 1.59899432,0.771920417 2.1839492,0.771920417 L18.8001553,0.771920417 C19.3795055,0.771920417 19.8534062,1.02371257 19.8534062,1.33362656 L19.8534062,1.69647296 Z M19.9117356,0.0289986507 L1.18923529,0.0289986507 C0.528099264,0.0289986507 0.00168138204,0.561436295 0.00168138204,1.21655255 L0.00168138204,1.97732603 C0.00168138204,2.63264987 0.528099264,3.16508751 1.18923529,3.16508751 L19.9117356,3.16508751 C20.5670595,3.16508751 21.0994971,2.63264987 21.0994971,1.97732603 L21.0994971,1.21655255 C21.0994971,0.561436295 20.5670595,0.0289986507 19.9117356,0.0289986507 L19.9117356,0.0289986507 Z"/></g><mask id="mask-14" fill="#fff"><use xlink:href="#path-13"/></mask><polygon id="Fill-13" fill="#847264" points="1.434 28.738 19.665 28.738 19.665 22.633 1.434 22.633" mask="url(#mask-14)"/><path id="Fill-15" fill="#685A50" d="M19.2494164,33.2825007 L1.84856538,33.2825007 C1.61919166,33.2825007 1.43340932,33.0965108 1.43340932,32.8673447 L1.43340932,28.7375798 L19.6645725,28.7375798 L19.6645725,32.8673447 C19.6645725,33.0965108 19.4785825,33.2825007 19.2494164,33.2825007" mask="url(#mask-14)"/><path id="Stroke-16" stroke-linecap="round" stroke-linejoin="round" d="M8.30578824,13.7016445 L8.29645791,13.7016445" mask="url(#mask-14)"/><path id="Fill-17" fill="#9B8676" d="M19.2494164,24.2444288 L1.84856538,24.2444288 C1.61919166,24.2444288 1.43340932,24.0586464 1.43340932,23.8292727 L1.43340932,21.4373511 C1.43340932,21.2079774 1.61919166,21.022195 1.84856538,21.022195 L19.2494164,21.022195 C19.4785825,21.022195 19.6645725,21.2079774 19.6645725,21.4373511 L19.6645725,23.8292727 C19.6645725,24.0586464 19.4785825,24.2444288 19.2494164,24.2444288" mask="url(#mask-14)"/><path id="Fill-18" fill="#B3B3B3" d="M17.1678654,22.5904886 L15.3621442,22.5904886 C15.3621442,22.1275896 15.7665062,21.7522885 16.2651086,21.7522885 C16.763711,21.7522885 17.1678654,22.1275896 17.1678654,22.5904886" mask="url(#mask-14)"/><path id="Fill-19" fill="#C3C6C8" d="M16.8725027,22.5904886 L15.0667814,22.5904886 C15.0667814,22.1275896 15.4711434,21.7522885 15.9697458,21.7522885 C16.4683482,21.7522885 16.8725027,22.1275896 16.8725027,22.5904886" mask="url(#mask-14)"/><path id="Fill-20" fill="#B3B3B3" d="M6.07217629,22.5904886 L4.26645502,22.5904886 C4.26645502,22.1275896 4.67081702,21.7522885 5.16941945,21.7522885 C5.66802187,21.7522885 6.07217629,22.1275896 6.07217629,22.5904886" mask="url(#mask-14)"/><path id="Fill-21" fill="#C3C6C8" d="M5.77681352,22.5904886 L3.97109224,22.5904886 C3.97109224,22.1275896 4.37545424,21.7522885 4.87405667,21.7522885 C5.37265909,21.7522885 5.77681352,22.1275896 5.77681352,22.5904886" mask="url(#mask-14)"/><path id="Fill-22" fill="#9B8676" d="M14.4894239,31.8601553 C14.4894239,32.174636 14.234518,32.4297494 13.9198297,32.4297494 C13.605349,32.4297494 13.3504432,32.174636 13.3504432,31.8601553 C13.3504432,31.5456746 13.605349,31.2905612 13.9198297,31.2905612 C14.234518,31.2905612 14.4894239,31.5456746 14.4894239,31.8601553" mask="url(#mask-14)"/><path id="Fill-23" fill="#9B8676" d="M8.12991805,31.8601553 C8.12991805,32.174636 7.87480466,32.4297494 7.56032394,32.4297494 C7.24584323,32.4297494 6.99093741,32.174636 6.99093741,31.8601553 C6.99093741,31.5456746 7.24584323,31.2905612 7.56032394,31.2905612 C7.87480466,31.2905612 8.12991805,31.5456746 8.12991805,31.8601553" mask="url(#mask-14)"/><path id="Fill-24" fill="#847264" d="M11.8080347,30.388863 C11.8080347,30.7035513 11.5529213,30.9584571 11.2384406,30.9584571 C10.9239598,30.9584571 10.669054,30.7035513 10.669054,30.388863 C10.669054,30.0743823 10.9239598,29.8192689 11.2384406,29.8192689 C11.5529213,29.8192689 11.8080347,30.0743823 11.8080347,30.388863" mask="url(#mask-14)"/><path id="Fill-25" fill="#9B8676" d="M17.5268716,30.5549877 C17.5268716,30.8694684 17.2717582,31.1245818 16.9572775,31.1245818 C16.6427968,31.1245818 16.387891,30.8694684 16.387891,30.5549877 C16.387891,30.240507 16.6427968,29.9853936 16.9572775,29.9853936 C17.2717582,29.9853936 17.5268716,30.240507 17.5268716,30.5549877" mask="url(#mask-14)"/><path id="Fill-26" fill="#847264" d="M4.38631057,30.3112288 C4.38631057,30.6257095 4.13119718,30.8808229 3.81671646,30.8808229 C3.50223575,30.8808229 3.24732993,30.6257095 3.24732993,30.3112288 C3.24732993,29.9967481 3.50223575,29.7416347 3.81671646,29.7416347 C4.13119718,29.7416347 4.38631057,29.9967481 4.38631057,30.3112288" mask="url(#mask-14)"/><path id="Fill-27" fill="#847264" d="M8.8573545,22.646846 L12.6248957,22.646846 C12.6248957,22.2568069 12.3087544,21.940458 11.9185077,21.940458 C11.8444023,21.940458 11.7744485,21.9549884 11.7071933,21.976369 C11.4946334,21.670399 11.1417507,21.4694634 10.7411251,21.4694634 C10.3407071,21.4694634 9.98782445,21.670399 9.77505697,21.976369 C9.70800926,21.9549884 9.63784789,21.940458 9.56374253,21.940458 C9.17370342,21.940458 8.8573545,22.2568069 8.8573545,22.646846" mask="url(#mask-14)"/><path id="Fill-28" fill="#BFEC80" d="M10.7759152,6.22734087e-05 C7.55824816,6.22734087e-05 5.84074755,10.0350069 5.84074755,11.9856177 C5.84074755,14.7069656 8.05456723,16.9209929 10.7759152,16.9209929 C13.4972632,16.9209929 15.7110828,14.7069656 15.7110828,11.9856177 C15.7110828,10.0352145 13.9937898,6.22734087e-05 10.7759152,6.22734087e-05" mask="url(#mask-14)"/><path id="Fill-29" fill="#AAE655" d="M7.95578085,11.9856799 C7.95578085,10.2613293 9.29901827,2.22349282 11.833546,0.381445386 C11.5012136,0.13982456 11.1489537,0.000124546817 10.7759359,0.000124546817 C7.55806134,0.000124546817 5.84076831,10.0350692 5.84076831,11.9856799 C5.84076831,14.7070279 8.05479557,16.9208476 10.7759359,16.9208476 C11.1391975,16.9208476 11.4924953,16.8789168 11.833546,16.8039812 C9.61910359,16.3182486 7.95578085,14.3437664 7.95578085,11.9856799" mask="url(#mask-14)"/><path id="Fill-30" fill="#759684" d="M12.6844706,11.4872021 C12.4090146,11.211746 11.9629294,11.211746 11.6874733,11.4872021 L11.4811408,11.6937422 L11.4811408,10.5755194 C11.4811408,10.186103 11.1654146,9.8703768 10.7759982,9.8703768 C10.3865818,9.8703768 10.0708557,10.186103 10.0708557,10.5755194 L10.0708557,13.1038198 L9.86431552,12.8972796 C9.58885947,12.6218236 9.14277429,12.6218236 8.86731824,12.8972796 C8.59206978,13.1727357 8.59206978,13.6190284 8.86731824,13.8942769 L10.0710632,15.0978143 L10.0710632,21.8561398 L11.4811408,21.8561398 L11.4811408,13.6877368 L12.6844706,12.4841993 C12.9599267,12.2087433 12.9599267,11.7626581 12.6844706,11.4872021" mask="url(#mask-14)"/><path id="Fill-31" fill="#F3FCFF" d="M21.0980648,16.2309828 L21.0980648,16.6463464 C21.0980648,17.3016702 20.5656272,17.8341079 19.9100957,17.8341079 L1.18759542,17.8341079 C0.526459397,17.8341079 4.15156058e-05,17.3016702 4.15156058e-05,16.6463464 L4.15156058e-05,16.2309828 L1.12926599,16.2309828 L1.12926599,16.3654933 C1.12926599,16.6756149 1.59735445,16.9271995 2.18230933,16.9271995 L18.7985154,16.9271995 C19.3778657,16.9271995 19.8519739,16.6756149 19.8519739,16.3654933 L19.8519739,16.2309828 L21.0980648,16.2309828 Z" mask="url(#mask-14)"/></g></g><g id="Group-7-Copy" fill="#667B8F" fill-opacity=".5" transform="translate(23.865842, 84.500000)"><rect id="Rectangle-3" width="50.683" height="3.557" x="10.288" y=".069"/><rect id="Rectangle-3-Copy-9" width="50.683" height="3.557" x="10.288" y="27.908"/><rect id="Rectangle-3-Copy" width="25.341" height="3.557" x="10.288" y="9.469"/><rect id="Rectangle-3-Copy-3" width="16.995" height="3.557" x="10.288" y="18.805"/><rect id="Rectangle-3-Copy-5" width="16.995" height="3.557" x="39.627" y="18.805"/><rect id="Rectangle-3-Copy-2" width="9.543" height="3.557" x="38.531" y="9.469"/><rect id="Rectangle-3-Copy-6" width="5.337" height="3.557" x=".216" y="9.469"/><rect id="Rectangle-3-Copy-7" width="5.337" height="3.557" x=".216" y=".069"/><rect id="Rectangle-3-Copy-13" width="5.337" height="3.557" x=".216" y="27.908"/><rect id="Rectangle-3-Copy-8" width="5.337" height="3.557" x=".216" y="18.508"/><rect id="Rectangle-3-Copy-4" width="6.4" height="3.557" x="30.353" y="18.805"/></g></g></g></g></svg>