<svg xmlns="http://www.w3.org/2000/svg" xmlns:xlink="http://www.w3.org/1999/xlink" id="Layer_1" x="0" y="0" version="1.1" viewBox="0 0 135 110" xml:space="preserve" style="enable-background:new 0 0 135 110"><style type="text/css">.st0{fill:#ddc7ae}.st1{fill:#575c5f;fill-opacity:5.000000e-02}.st2{fill:#a2bd7c}.st3{fill:#ffe9d1}.st4{fill:#fff}.st5{fill:#837365}.st6{fill:none;stroke:#827365;stroke-linecap:round;stroke-linejoin:round}.st7{fill:#827365}.st8{filter:url(#Adobe_OpacityMaskFilter)}.st9{mask:url(#mask-2_1_);fill-opacity:.1}.st10{fill:#b9da8d}.st11{fill-opacity:.1}</style><title>FCBA1B29-BF9C-44AA-B18B-16DC58D226C4</title><desc>Created with sketchtool.</desc><g id="Symbols"><g id="footer_x2F_main" transform="translate(-1032.000000, 96.000000)"><g id="habicat-wave" transform="translate(1030.000000, -97.000000)"><path id="Shape-Copy-3" d="M4.6,29c2-1.7,5.1-1.4,6.8,0.6l11.4,13.6l-7.4,6.2L4,35.7C2.3,33.7,2.6,30.7,4.6,29z" class="st0"/><path id="Rectangle-4" d="M119.7,97c0,0-4.5,3.3-13.4,10c-3,2.2-7.1,4-9.4,4H20c-2.2,0-1.6-1.8,1.4-4 c8.9-6.7,13.4-10,13.4-10C39.2,97,113.7,97,119.7,97z" class="st1"/><path id="Rectangle-6" d="M21.4,11.3h82.4c3.3,0,6,2.7,6,6v66.5c0,3.3-2.7,6-6,6H21.4c-3.3,0-6-2.7-6-6V17.3 C15.4,14,18.1,11.3,21.4,11.3z" class="st0"/><path id="Rectangle-6_1_" d="M21.4,67.8h88.4v16.5c0,3.3-2.7,6-6,6H21.4c-3.3,0-6-2.7-6-6V73.8 C15.4,70.5,18.1,67.8,21.4,67.8z" class="st2"/><path id="Rectangle-6-Copy" d="M19.4,14.9h68.7c2.2,0,4,1.8,4,4v66.3c0,2.2-1.8,4-4,4H19.4c-2.2,0-4-1.8-4-4V18.9 C15.4,16.7,17.2,14.9,19.4,14.9z" class="st3"/><path id="Rectangle-Copy-9" d="M53.3,41.9L53.3,41.9c7.1,0,12.8,5.7,12.8,12.8v13.1H40.5V54.7 C40.5,47.7,46.2,41.9,53.3,41.9z" class="st4"/><ellipse id="Oval-Copy" cx="35.5" cy="33.8" class="st5" rx="2.1" ry="2.1"/><ellipse id="Oval-Copy-2" cx="71.5" cy="33.8" class="st5" rx="2.1" ry="2.1"/><path id="Shape-Copy-4" d="M57.9,42.8l-1.2,0.9c-1.7,1.4-4.8,1.6-6.9,0.4c-0.2-0.1-0.4-0.3-0.6-0.4l-1.2-0.9 c-0.4-0.3-0.3-0.8,0.1-1c0.2-0.1,0.4-0.2,0.7-0.2h8.2c0.6,0,1.1,0.3,1.1,0.8C58.2,42.5,58.1,42.6,57.9,42.8z" class="st5"/><path id="Line-6" d="M17.8,43.8h3.6" class="st6"/><path id="Line-6-Copy-3" d="M85.3,44.2h3.6" class="st6"/><path id="Line-6-Copy" d="M17.8,39h3.6" class="st6"/><path id="Line-6-Copy-4" d="M85.3,38.8h3.6" class="st6"/><path id="Line-6-Copy-2" d="M17.8,49.8h3.6" class="st6"/><path id="Line-6-Copy-5" d="M85.3,49.6h3.6" class="st6"/><g id="Group-2" transform="translate(62.232068, 0.736701)"><path id="Triangle-Copy-4" d="M11.9,2.3l5.8,10.2H0.8L6.7,2.3c0.8-1.4,2.7-1.9,4.1-1.1C11.2,1.5,11.6,1.8,11.9,2.3z" class="st0"/><path id="Triangle-Copy-5" d="M10.1,8.4l2.3,4.1H6.1l2.3-4.1C8.7,8,9.3,7.8,9.8,8.1C9.9,8.1,10.1,8.3,10.1,8.4z" class="st7"/></g><g id="Group-2-Copy" transform="translate(27.394418, 0.736701)"><path id="Triangle-Copy-4_1_" d="M11.9,2.3l5.8,10.2H0.8L6.7,2.3c0.8-1.4,2.7-1.9,4.1-1.1 C11.2,1.5,11.6,1.8,11.9,2.3z" class="st0"/><path id="Triangle-Copy-5_1_" d="M10.1,8.4l2.3,4.1H6.1l2.3-4.1C8.7,8,9.3,7.8,9.8,8.1C9.9,8.1,10.1,8.3,10.1,8.4z" class="st7"/></g><path id="Path-2" d="M109.7,71.5c10.3,0.2,15.1-5.6,18.3-13.1c3.2-7.5,11.7-2.8,8.1,4.8S123.3,81,109.7,80.9 C109.7,71.5,109.7,78.5,109.7,71.5z" class="st0"/><g id="Rectangle-3-Copy-2" transform="translate(109.082702, 54.572355)"><g id="Mask"><path id="path-1_1_" d="M0.6,16.9c10.3,0.2,15.1-5.6,18.3-13.1S30.6,0.9,27,8.6S14.2,26.5,0.6,26.3 C0.6,16.9,0.6,23.9,0.6,16.9z" class="st0"/></g><defs><filter id="Adobe_OpacityMaskFilter" width="4.1" height="10.2" x=".6" y="16.3" filterUnits="userSpaceOnUse"><feColorMatrix type="matrix" values="1 0 0 0 0 0 1 0 0 0 0 0 1 0 0 0 0 0 1 0"/></filter></defs><mask id="mask-2_1_" width="4.1" height="10.2" x=".6" y="16.3" maskUnits="userSpaceOnUse"><g class="st8"><path id="path-1_2_" d="M0.6,16.9c10.3,0.2,15.1-5.6,18.3-13.1S30.6,0.9,27,8.6S14.2,26.5,0.6,26.3 C0.6,16.9,0.6,23.9,0.6,16.9z" class="st4"/></g></mask><rect width="4.1" height="10.2" x=".6" y="16.3" class="st9"/></g><path id="Shape-Copy-6" d="M120.7,60.1c1.5-2.2,1-5.2-1.2-6.7L105,43.2l-5.5,7.9L114,61.2 C116.2,62.8,119.2,62.2,120.7,60.1z" class="st0"/><path id="Rectangle-6-Copy_1_" d="M15.4,67.8h76.7v18.5c0,2.2-1.8,4-4,4H19.4c-2.2,0-4-1.8-4-4V67.8z" class="st10"/><path id="Shape_1_" d="M38.2,106.8c-2.7,0-4.8-2.1-4.8-4.8V90.2H43V102C43,104.7,40.9,106.8,38.2,106.8z" class="st0"/><path id="Shape-Copy-2" d="M75.7,106.8c-2.7,0-4.8-2.1-4.8-4.8V90.1h9.6V102C80.5,104.7,78.4,106.8,75.7,106.8z" class="st0"/><rect id="Rectangle-3" width="9.6" height="3.6" x="33.4" y="90.3" class="st11"/><rect id="Rectangle-3-Copy" width="9.6" height="3.6" x="70.9" y="90.3" class="st11"/></g></g></g></svg>