<svg xmlns="http://www.w3.org/2000/svg" xmlns:xlink="http://www.w3.org/1999/xlink" width="1440" height="324" version="1.1" viewBox="0 0 1440 324"><title>polygon</title><desc>Created with Sketch.</desc><defs><linearGradient id="linearGradient-1" x1="0%" x2="100%" y1="100%" y2="0%"><stop offset="0%" stop-color="#7A9F8B"/><stop offset="100%" stop-color="#87B09A"/></linearGradient></defs><g id="Habitat-SaaS-Home-&amp;-Pricing/desktop" fill="none" fill-rule="evenodd" stroke="none" stroke-width="1"><g id="Pricing-(desktop)-V2" transform="translate(0.000000, -1936.000000)"><g id="polygon" transform="translate(0.000000, 1935.710938)"><polygon id="Combined-Shape-Copy" fill="url(#linearGradient-1)" points="1154 8.771 1116 31.23 1048 51.09 970 5.317 898 26.913 816 17.406 766 26.913 722 39.002 678 32.094 568 36.411 482 7.908 430 32.094 368 16.543 270 1 202 19.133 112 39.865 0 32.094 0 75.276 0 118.022 0 161.205 0 204.387 0 247.57 0 290.325 84 305.004 152 310.184 186 315.365 316 313.638 414 303.277 446 289.461 538 295.505 594 310.184 704 293.778 798 316.229 918 269.592 946 273.91 986 286.862 1034 284.28 1128 324 1250 279.954 1300 292.915 1440 290.325 1440 247.57 1440 204.387 1440 161.205 1440 118.022 1440 75.276 1440 32.094 1292 14.816" transform="translate(720.000000, 162.500000) rotate(180.000000) translate(-720.000000, -162.500000)"/><g style="mix-blend-mode:luminosity" transform="translate(720.500000, 162.500000) scale(-1, -1) translate(-720.500000, -162.500000) translate(0.000000, 1.000000)"><polygon id="Fill-1" fill="#5F8B81" points="0 74.142 14 66.384 0 31.037"/><polygon id="Fill-2" fill="#6EA090" points="0 159.915 66 130.175 0 116.811"/><polygon id="Fill-3" fill="#6C9D8D" points="66 130.175 70.001 124.141 0 116.811"/><polygon id="Fill-4" fill="#77AE99" points="0 203.02 100 182.761 0 159.915"/><polygon id="Fill-5" fill="#75AA96" points="100 182.761 92 168.108 0 159.916"/><polygon id="Fill-6" fill="#72A693" points="0 159.915 92 168.108 66 130.175"/><polygon id="Fill-7" fill="#7EB9A0" points="0 246.125 106 216.384 0 203.02"/><polygon id="Fill-8" fill="#6A9B8C" points="0 116.811 70 124.142 112 107.765"/><polygon id="Fill-9" fill="#5D887F" points="14 66.384 111.999 38.794 0 31.037"/><polygon id="Fill-10" fill="#7BB39C" points="0 203.02 106 216.384 100 182.761"/><polygon id="Fill-11" fill="#68968A" points="0 116.811 112 107.765 0 74.143"/><polygon id="Fill-12" fill="#5E8B81" points="112 38.795 14 66.385 118 62.067"/><polygon id="Fill-13" fill="#639185" points="14 66.385 112 107.765 118 62.066"/><polygon id="Fill-14" fill="#649286" points="0 74.142 112 107.765 14 66.384"/><polygon id="Fill-15" fill="#81BCA2" points="0 246.125 150 237.07 106 216.384"/><polygon id="Fill-16" fill="#8AC8AB" points="0 288.802 84 303.455 0 246.125"/><polygon id="Fill-17" fill="#5E8880" points="112 38.795 118 62.067 158 47.414"/><polygon id="Fill-18" fill="#87C4A8" points="0 246.125 84 303.454 150 237.07"/><polygon id="Fill-19" fill="#76AB97" points="92 168.108 100 182.76 188 166.385"/><polygon id="Fill-20" fill="#76AC98" points="100 182.76 186 178.451 188 166.384"/><polygon id="Fill-21" fill="#6C9D8D" points="70 124.142 66 130.175 112 107.765"/><polygon id="Fill-22" fill="#7FB9A0" points="106 216.384 150 237.07 198 215.522"/><polygon id="Fill-23" fill="#73A794" points="92 168.108 188 166.385 204 149.999"/><polygon id="Fill-24" fill="#5B857C" points="112 38.795 158 47.414 202 18.1"/><polygon id="Fill-25" fill="#659386" points="118 62.067 112 107.765 206 90.518"/><polygon id="Fill-26" fill="#71A493" points="66 130.175 92 168.108 204 149.999"/><polygon id="Fill-27" fill="#79B19B" points="100 182.76 106 216.384 186 178.451"/><polygon id="Fill-28" fill="#6D9E8E" points="112 107.765 66 130.175 204 149.999"/><polygon id="Fill-29" fill="#7CB39D" points="186 178.451 106 216.384 198 215.522"/><polygon id="Fill-30" fill="#618D83" points="158 47.414 118 62.066 206 90.518"/><polygon id="Fill-31" fill="#8CCAAB" points="150 237.07 84 303.454 152 308.626"/><polygon id="Fill-32" fill="#82BCA3" points="198 215.522 150 237.07 216 246.559"/><polygon id="Fill-33" fill="#628E84" points="158 47.414 206 90.518 236 74.142"/><polygon id="Fill-34" fill="#88C5A9" points="150 237.07 152 308.626 216 246.559"/><polygon id="Fill-35" fill="#6A9B8C" points="112 107.765 204 149.999 206 90.518"/><polygon id="Fill-36" fill="#7AB09B" points="186 178.451 198 215.522 260 186.208"/><polygon id="Fill-37" fill="#76AD97" points="188 166.385 186 178.45 260 186.209"/><polygon id="Fill-38" fill="#74AA96" points="204 149.999 188 166.384 260 186.208"/><polygon id="Fill-39" fill="#5D877F" points="202 18.1 158 47.414 236 74.142"/><polygon id="Fill-40" fill="#8CCCAC" points="152 308.626 186 313.797 216 246.56"/><polygon id="Fill-41" fill="#81BBA2" points="198 215.522 216 246.559 298 225.865"/><polygon id="Fill-42" fill="#75A996" points="204 149.999 260 186.208 308 168.108"/><polygon id="Fill-43" fill="#7CB49D" points="260 186.208 198 215.522 298 225.865"/><polygon id="Fill-44" fill="#76AC98" points="308 168.108 260 186.208 316 175.865"/><polygon id="Fill-45" fill="#8CCCAD" points="216 246.56 186 313.797 316 312.074"/><polygon id="Fill-46" fill="#5D877F" points="202 18.1 236 74.142 354 52.586"/><polygon id="Fill-47" fill="#6A9B8C" points="206 90.519 204 149.999 360 106.033"/><polygon id="Fill-48" fill="#669487" points="236 74.142 206 90.519 360 106.033"/><polygon id="Fill-49" fill="#59827B" points="270 0 202 18.1 354 52.585"/><polygon id="Fill-50" fill="#7BB29B" points="260 186.208 298 225.865 316 175.865"/><polygon id="Fill-51" fill="#59827B" points="270 0 354 52.585 368 15.514"/><polygon id="Fill-52" fill="#6FA290" points="204 149.999 308 168.108 360 106.033"/><polygon id="Fill-53" fill="#639185" points="354 52.585 236 74.142 360 106.033"/><polygon id="Fill-54" fill="#87C4A8" points="298 225.865 216 246.56 316 312.074"/><polygon id="Fill-55" fill="#88C5A9" points="298 225.865 316 312.074 408 265.522"/><polygon id="Fill-56" fill="#8DCCAE" points="408 265.522 316 312.074 414 301.731"/><polygon id="Fill-57" fill="#83BFA3" points="298 225.865 408 265.522 424 235.347"/><polygon id="Fill-58" fill="#5B857D" points="368 15.514 354 52.585 428 40.518"/><polygon id="Fill-59" fill="#59837C" points="368 15.514 428 40.518 430 31.037"/><polygon id="Fill-60" fill="#7BB29C" points="316 175.865 298 225.865 440 191.38"/><polygon id="Fill-61" fill="#8CCAAD" points="408 265.522 414 301.731 446 287.941"/><polygon id="Fill-62" fill="#7EB7A0" points="298 225.865 424 235.347 440 191.38"/><polygon id="Fill-63" fill="#5B857E" points="430 31.038 428 40.519 466 42.242"/><polygon id="Fill-64" fill="#669487" points="354 52.585 360 106.033 434 106.895"/><polygon id="Fill-65" fill="#5E8981" points="466 42.242 428 40.519 488 74.142"/><polygon id="Fill-66" fill="#5F8A81" points="428 40.519 354 52.586 488 74.142"/><polygon id="Fill-67" fill="#639185" points="354 52.585 434 106.895 488 74.142"/><polygon id="Fill-68" fill="#77AD98" points="308 168.108 316 175.865 440 191.38"/><polygon id="Fill-69" fill="#6D9F8F" points="360 106.033 308 168.108 434 106.895"/><polygon id="Fill-70" fill="#5E8B81" points="466 42.242 488 74.142 488 45.69"/><polygon id="Fill-71" fill="#73A694" points="434 106.895 308 168.108 440 191.38"/><polygon id="Fill-72" fill="#5F8B82" points="488 45.69 488 74.142 508 54.309"/><polygon id="Fill-73" fill="#59837B" points="430 31.038 466 42.242 482 6.895"/><polygon id="Fill-74" fill="#5C867E" points="466 42.242 488 45.69 512 40.519"/><polygon id="Fill-75" fill="#618D83" points="488 74.142 506 71.556 508 54.309"/><polygon id="Fill-76" fill="#79AF9A" points="510 181.898 440 191.38 520 199.146"/><polygon id="Fill-77" fill="#5D8880" points="488 45.69 508 54.309 512 40.519"/><polygon id="Fill-78" fill="#7CB69E" points="440 191.38 424 235.346 520 199.146"/><polygon id="Fill-79" fill="#5A837B" points="482 6.895 466 42.242 512 40.519"/><polygon id="Fill-80" fill="#74A895" points="434 106.895 440 191.38 510 181.898"/><polygon id="Fill-81" fill="#639086" points="556 71.556 506 71.556 558 90.518"/><polygon id="Fill-82" fill="#669488" points="488 74.142 434 106.895 558 90.519"/><polygon id="Fill-83" fill="#639085" points="506 71.556 488 74.142 558 90.518"/><polygon id="Fill-84" fill="#618D83" points="508 54.309 506 71.556 556 71.556"/><polygon id="Fill-85" fill="#5D877E" points="512 40.519 508 54.309 568 35.347"/><polygon id="Fill-86" fill="#5A837B" points="482 6.895 512 40.519 568 35.347"/><polygon id="Fill-87" fill="#87C4A8" points="424 235.346 408 265.522 446 287.94"/><polygon id="Fill-88" fill="#5F8A81" points="508 54.309 556 71.556 568 35.347"/><polygon id="Fill-89" fill="#89C6AA" points="424 235.346 446 287.94 538 293.974"/><polygon id="Fill-90" fill="#87C4A8" points="424 235.346 538 293.974 612 263.798"/><polygon id="Fill-91" fill="#82BDA3" points="592 214.66 424 235.347 612 263.797"/><polygon id="Fill-92" fill="#7EB89F" points="520 199.146 424 235.346 592 214.659"/><polygon id="Fill-93" fill="#8CCBAD" points="538 293.974 594 308.626 612 263.798"/><polygon id="Fill-94" fill="#6C9E8E" points="434 106.895 510 181.898 558 90.518"/><polygon id="Fill-95" fill="#7AB09A" points="510 181.898 520 199.146 648 195.699"/><polygon id="Fill-96" fill="#7BB39D" points="520 199.146 592 214.659 648 195.698"/><polygon id="Fill-97" fill="#6FA291" points="558 90.519 510 181.898 654 145.69"/><polygon id="Fill-98" fill="#76AB97" points="510 181.898 648 195.699 654 145.689"/><polygon id="Fill-99" fill="#8CCAAC" points="612 263.798 594 308.626 704 292.25"/><polygon id="Fill-100" fill="#5C877F" points="568 35.347 556 71.556 678 31.038"/><polygon id="Fill-101" fill="#83BFA4" points="592 214.66 612 263.797 704 251.731"/><polygon id="Fill-102" fill="#86C2A7" points="704 251.731 612 263.798 716 260.35"/><polygon id="Fill-103" fill="#89C6AA" points="612 263.798 704 292.25 716 260.35"/><polygon id="Fill-104" fill="#7FB8A0" points="648 195.698 592 214.659 704 251.73"/><polygon id="Fill-105" fill="#69998B" points="558 90.519 654 145.69 754 88.795"/><polygon id="Fill-106" fill="#659286" points="556 71.556 558 90.518 754 88.795"/><polygon id="Fill-107" fill="#608C83" points="678 31.038 556 71.556 754 88.794"/><polygon id="Fill-108" fill="#5E8980" points="722 37.933 678 31.037 754 88.794"/><polygon id="Fill-109" fill="#75AB97" points="654 145.689 648 195.698 768 173.279"/><polygon id="Fill-110" fill="#5B857D" points="722 37.933 756 42.242 766 25.866"/><polygon id="Fill-111" fill="#7FB8A0" points="648 195.698 704 251.73 778 216.384"/><polygon id="Fill-112" fill="#5F8B81" points="722 37.933 754 88.794 756 42.242"/><polygon id="Fill-113" fill="#7AB29B" points="768 173.28 648 195.698 778 216.384"/><polygon id="Fill-114" fill="#85C1A6" points="704 251.731 716 260.35 802 239.655"/><polygon id="Fill-115" fill="#81BDA3" points="778 216.384 704 251.731 802 239.655"/><polygon id="Fill-116" fill="#5F8C82" points="756 42.242 754 88.795 786 48.276"/><polygon id="Fill-117" fill="#80BAA1" points="778 216.384 802 239.655 804 222.417"/><polygon id="Fill-118" fill="#5B857E" points="766 25.866 756 42.242 786 48.276"/><polygon id="Fill-119" fill="#86C3A7" points="802 239.655 716 260.351 830 275.003"/><polygon id="Fill-120" fill="#89C7AA" points="716 260.35 704 292.25 830 275.003"/><polygon id="Fill-121" fill="#8DCDAD" points="704 292.249 798 314.659 830 275.002"/><polygon id="Fill-122" fill="#5A837C" points="766 25.866 786 48.276 816 16.376"/><polygon id="Fill-123" fill="#6FA091" points="754 88.795 654 145.69 768 173.28"/><polygon id="Fill-124" fill="#86C3A6" points="802 239.655 830 275.003 848 252.593"/><polygon id="Fill-125" fill="#7AB09B" points="768 173.28 778 216.384 868 184.485"/><polygon id="Fill-126" fill="#7CB49E" points="778 216.384 804 222.417 868 184.484"/><polygon id="Fill-127" fill="#6FA08F" points="754 88.795 768 173.28 884 141.38"/><polygon id="Fill-128" fill="#81BCA2" points="804 222.417 802 239.655 892 234.484"/><polygon id="Fill-129" fill="#83BFA3" points="802 239.655 848 252.593 892 234.485"/><polygon id="Fill-130" fill="#5A847C" points="816 16.376 786 48.276 898 25.866"/><polygon id="Fill-131" fill="#74A996" points="768 173.28 868 184.485 884 141.38"/><polygon id="Fill-132" fill="#88C5A8" points="848 252.593 830 275.003 918 268.107"/><polygon id="Fill-133" fill="#7DB79E" points="868 184.485 804 222.417 892 234.484"/><polygon id="Fill-134" fill="#5C867E" points="898 25.866 786 48.276 932 43.966"/><polygon id="Fill-135" fill="#85C1A6" points="892 234.484 848 252.593 918 268.107"/><polygon id="Fill-136" fill="#83BFA4" points="914 234.484 892 234.484 918 268.107"/><polygon id="Fill-137" fill="#7EB89F" points="868 184.485 892 234.484 914 234.484"/><polygon id="Fill-138" fill="#5F8C82" points="786 48.276 754 88.795 932 43.966"/><polygon id="Fill-139" fill="#8CCBAD" points="830 275.003 798 314.66 918 268.107"/><polygon id="Fill-140" fill="#88C5A9" points="918 268.108 946 272.417 984 259.488"/><polygon id="Fill-141" fill="#83BFA3" points="978 231.899 914 234.484 984 259.488"/><polygon id="Fill-142" fill="#85C2A6" points="914 234.484 918 268.107 984 259.488"/><polygon id="Fill-143" fill="#669487" points="754 88.795 884 141.38 932 43.966"/><polygon id="Fill-144" fill="#5A837B" points="898 25.866 932 43.966 970 4.31"/><polygon id="Fill-145" fill="#89C7AA" points="984 259.488 946 272.418 986 285.346"/><polygon id="Fill-146" fill="#679588" points="932 43.966 884 141.38 1014 90.518"/><polygon id="Fill-147" fill="#7EB7A0" points="868 184.485 914 234.484 978 231.899"/><polygon id="Fill-148" fill="#628E84" points="932 43.966 1014 90.518 1024 69.832"/><polygon id="Fill-149" fill="#84C0A5" points="978 231.899 984 259.488 1016 256.903"/><polygon id="Fill-150" fill="#88C6A9" points="1016 256.903 1034 282.769 1042 264.66"/><polygon id="Fill-151" fill="#89C7AA" points="1016 256.903 986 285.346 1034 282.769"/><polygon id="Fill-152" fill="#88C5A9" points="984 259.488 986 285.346 1016 256.902"/><polygon id="Fill-153" fill="#5F8A81" points="932 43.966 1024 69.832 1048 50"/><polygon id="Fill-154" fill="#5B847C" points="970 4.31 932 43.966 1048 50"/><polygon id="Fill-155" fill="#6B9C8C" points="1014 90.519 884 141.38 1072 118.108"/><polygon id="Fill-156" fill="#7BB39D" points="868 184.485 1058 213.798 1076 200.869"/><polygon id="Fill-157" fill="#7DB59E" points="868 184.485 978 231.899 1058 213.798"/><polygon id="Fill-158" fill="#82BDA3" points="978 231.899 1016 256.903 1058 213.798"/><polygon id="Fill-159" fill="#76AB97" points="884 141.38 868 184.485 1076 200.87"/><polygon id="Fill-160" fill="#74AA96" points="884 141.38 1076 200.87 1100 161.213"/><polygon id="Fill-161" fill="#71A492" points="1096 135.347 884 141.38 1100 161.213"/><polygon id="Fill-162" fill="#6D9F8F" points="1072 118.108 884 141.38 1096 135.347"/><polygon id="Fill-163" fill="#83BFA4" points="1016 256.903 1042 264.66 1058 213.798"/><polygon id="Fill-164" fill="#6D9E8E" points="1072 118.108 1096 135.347 1128 129.313"/><polygon id="Fill-165" fill="#639185" points="1024 69.832 1014 90.518 1140 82.761"/><polygon id="Fill-166" fill="#679588" points="1014 90.519 1072 118.108 1140 82.761"/><polygon id="Fill-167" fill="#628E83" points="1048 50 1024 69.833 1140 82.761"/><polygon id="Fill-168" fill="#6FA391" points="1096 135.347 1100 161.213 1128 129.313"/><polygon id="Fill-169" fill="#5C877F" points="1116 30.176 1048 50 1174 56.895"/><polygon id="Fill-170" fill="#618D82" points="1048 50 1140 82.761 1174 56.895"/><polygon id="Fill-171" fill="#6A998C" points="1072 118.108 1128 129.313 1140 82.761"/><polygon id="Fill-172" fill="#77AD99" points="1100 161.213 1076 200.869 1194 179.313"/><polygon id="Fill-173" fill="#82BDA3" points="1058 213.798 1042 264.66 1206 237.069"/><polygon id="Fill-174" fill="#7DB79F" points="1076 200.869 1058 213.799 1206 237.07"/><polygon id="Fill-175" fill="#72A693" points="1128 129.313 1100 161.213 1194 179.313"/><polygon id="Fill-176" fill="#5A847C" points="1154 7.757 1116 30.176 1174 56.895"/><polygon id="Fill-177" fill="#8DCCAD" points="1034 282.769 1128 322.417 1042 264.66"/><polygon id="Fill-178" fill="#7CB49D" points="1194 179.313 1076 200.869 1206 237.07"/><polygon id="Fill-179" fill="#8CCBAD" points="1128 322.417 1250 278.45 1042 264.66"/><polygon id="Fill-180" fill="#87C4A7" points="1206 237.07 1042 264.66 1250 278.45"/><polygon id="Fill-181" fill="#85C2A6" points="1234 249.145 1206 237.07 1250 278.45"/><polygon id="Fill-182" fill="#5B847C" points="1154 7.757 1174 56.895 1296 36.209"/><polygon id="Fill-183" fill="#58807A" points="1292 13.791 1154 7.757 1296 36.209"/><polygon id="Fill-184" fill="#83BEA3" points="1206 237.07 1234 249.145 1310 229.312"/><polygon id="Fill-185" fill="#72A593" points="1128 129.313 1194 179.313 1316 151.731"/><polygon id="Fill-186" fill="#5E8981" points="1296 36.209 1174 56.895 1326 62.066"/><polygon id="Fill-187" fill="#7EB79F" points="1194 179.313 1206 237.07 1310 229.313"/><polygon id="Fill-188" fill="#87C4A7" points="1234 249.145 1250 278.45 1342 253.455"/><polygon id="Fill-189" fill="#83BFA4" points="1310 229.312 1234 249.145 1342 253.455"/><polygon id="Fill-190" fill="#89C7AA" points="1250 278.45 1300 291.388 1342 253.455"/><polygon id="Fill-191" fill="#618D83" points="1174 56.895 1140 82.761 1326 62.067"/><polygon id="Fill-192" fill="#6C9D8E" points="1140 82.761 1128 129.313 1316 151.732"/><polygon id="Fill-193" fill="#618C82" points="1358 58.619 1326 62.067 1366 60.343"/><polygon id="Fill-194" fill="#5E8981" points="1296 36.209 1326 62.066 1358 58.619"/><polygon id="Fill-195" fill="#68968A" points="1140 82.761 1316 151.732 1326 62.067"/><polygon id="Fill-196" fill="#79AF9A" points="1194 179.313 1310 229.313 1316 151.732"/><polygon id="Fill-197" fill="#77AD98" points="1316 151.731 1310 229.312 1366 153.447"/><polygon id="Fill-198" fill="#88C6A9" points="1342 253.455 1300 291.388 1418 260.35"/><polygon id="Fill-199" fill="#7AB29B" points="1310 229.312 1440 203.02 1366 153.447"/><polygon id="Fill-200" fill="#8BC9AB" points="1299.999 291.388 1439.999 288.802 1418.001 260.35"/><polygon id="Fill-201" fill="#5D877E" points="1296 36.209 1358 58.619 1440 31.037"/><polygon id="Fill-202" fill="#59827B" points="1296 36.209 1440 31.037 1292 13.79"/><polygon id="Fill-203" fill="#5D8880" points="1358 58.619 1366 60.342 1440 31.037"/><polygon id="Fill-204" fill="#5F8A81" points="1366 60.342 1440 74.143 1440 31.037"/><polygon id="Fill-205" fill="#649186" points="1326 62.066 1440 116.811 1366 60.342"/><polygon id="Fill-206" fill="#6FA291" points="1316 151.731 1366 153.447 1440 116.811"/><polygon id="Fill-207" fill="#69998B" points="1316 151.731 1440 116.811 1326 62.066"/><polygon id="Fill-208" fill="#659287" points="1440 116.811 1440 74.143 1366 60.343"/><polygon id="Fill-209" fill="#70A291" points="1366 153.447 1440 159.915 1440 116.811"/><polygon id="Fill-210" fill="#75AB97" points="1440 203.02 1440 159.915 1366 153.447"/><polygon id="Fill-211" fill="#85C2A6" points="1342 253.455 1418 260.35 1440 246.125"/><polygon id="Fill-212" fill="#80BAA1" points="1310 229.312 1440 246.125 1440 203.02"/><polygon id="Fill-213" fill="#83BFA4" points="1342 253.455 1440 246.125 1310 229.312"/><polygon id="Fill-214" fill="#88C5A9" points="1418 260.35 1440 288.802 1440 246.125"/></g></g></g></g></svg>