<svg xmlns="http://www.w3.org/2000/svg" xmlns:xlink="http://www.w3.org/1999/xlink" width="48" height="48" version="1.1" viewBox="0 0 48 48"><title>4B7F42B0-8784-4E79-AAEF-2D0A8C17EC9A</title><desc>Created with sketchtool.</desc><defs><path id="path-1" d="M43.2,0 L4.8,0 C2.16,0 0.024,2.16 0.024,4.8 L0,48 L9.6,38.4 L43.2,38.4 C45.84,38.4 48,36.24 48,33.6 L48,4.8 C48,2.16 45.84,0 43.2,0 L43.2,0 Z M9.6,24 L38.4,24 L38.4,28.8 L9.6,28.8 L9.6,24 Z M9.6,16.8 L38.4,16.8 L38.4,21.6 L9.6,21.6 L9.6,16.8 Z M9.6,9.6 L38.4,9.6 L38.4,14.4 L9.6,14.4 L9.6,9.6 Z"/></defs><g id="Symbols" fill="none" fill-rule="evenodd" stroke="none" stroke-width="1"><g id="icon/message"><g id="color/default"><mask id="mask-2" fill="#fff"><use xlink:href="#path-1"/></mask><use id="Mask" fill="#000" xlink:href="#path-1"/><g id="Rectangle" fill="#87b09a" mask="url(#mask-2)"><g transform="translate(-23.000000, -21.000000)"><rect width="96" height="96" x="0" y="0"/></g></g></g></g></g></svg>